<svg width="357" height="402" viewBox="0 0 357 402" fill="none" xmlns="http://www.w3.org/2000/svg">
<path fill-rule="evenodd" clip-rule="evenodd" d="M256.637 146.311L227.526 134.82L226.761 26.0392L294.94 9.18567L332.477 68.1727L256.637 146.311ZM239.784 125.628L252.807 130.99L315.624 67.4066L288.812 24.507L239.784 36.764V125.628Z" fill="#314C48"/>
<path fill-rule="evenodd" clip-rule="evenodd" d="M197.646 146.318L121.806 68.1798L159.343 9.19275L227.522 26.0463L226.757 134.827L197.646 146.318ZM138.659 66.6476L201.477 130.997L214.499 125.635V36.005L165.471 23.7479L138.659 66.6476Z" fill="#314C48"/>
<path fill-rule="evenodd" clip-rule="evenodd" d="M294.94 337.821L226.761 320.968L227.526 212.186L256.637 200.695L332.477 278.068L294.94 337.821ZM239.784 311.009L288.812 323.266L315.624 280.366L252.807 216.017L239.784 221.379V311.009Z" fill="#314C48"/>
<path fill-rule="evenodd" clip-rule="evenodd" d="M159.343 337.821L121.805 278.068L197.646 200.695L226.756 212.186L227.522 320.967L159.343 337.821ZM138.659 280.366L165.471 322.499L214.499 311.009L213.733 221.379L200.71 216.017L138.659 280.366Z" fill="#314C48"/>
<path fill-rule="evenodd" clip-rule="evenodd" d="M79.6765 173.907L62.823 105.727L121.81 68.1902L199.949 144.03L188.458 173.141L79.6765 173.907ZM77.3784 111.856L89.6352 160.884H179.265L184.627 147.861L120.278 85.0435L77.3784 111.856Z" fill="#314C48"/>
<path fill-rule="evenodd" clip-rule="evenodd" d="M121.81 278.089L62.823 241.318L79.6765 173.138L188.458 173.904L199.949 203.014L121.81 278.089ZM77.3784 234.423L120.278 261.235L184.627 199.184L179.265 186.161L89.6352 185.395L77.3784 234.423Z" fill="#314C48"/>
<path fill-rule="evenodd" clip-rule="evenodd" d="M360.051 173.907L265.825 173.141L254.334 144.03L332.473 68.1902L360.051 85.8096V173.907ZM275.018 160.884H347.028V92.7041L334.005 85.0435L269.655 147.095L275.018 160.884Z" fill="#314C48"/>
<path fill-rule="evenodd" clip-rule="evenodd" d="M332.473 278.855L254.334 203.014L265.825 173.138H360.051V261.235L332.473 278.855ZM269.655 199.95L334.005 262.768L347.028 254.341V186.927H275.018L269.655 199.95Z" fill="#314C48"/>
<path fill-rule="evenodd" clip-rule="evenodd" d="M227.521 401.418C197.645 401.418 168.534 395.289 141.722 384.564C140.19 383.798 138.658 383.032 137.892 382.266C83.501 360.05 40.6018 317.151 17.6199 261.994C16.8538 261.228 16.0876 259.696 16.0876 258.164C5.36273 231.351 0 203.007 0 173.897C0 144.02 5.36273 114.91 16.0876 88.0974C16.0876 87.3313 16.8538 86.5653 17.6199 85.0332C30.6429 52.8585 52.0926 24.5142 77.3728 2.29833L79.6709 0H360.05V358.518L356.986 360.816C344.218 369.498 330.429 376.904 315.619 383.032C314.852 383.798 313.32 383.798 311.788 384.564C285.742 395.289 257.398 401.418 227.521 401.418ZM29.8767 88.8635L28.3445 91.9277C17.6196 118.485 12.2573 145.808 12.2573 173.897C12.2573 201.475 17.6196 228.287 28.3445 253.567L29.8767 257.398C51.3265 308.724 91.9278 349.325 143.254 370.775L147.084 372.307C197.645 392.991 257.398 392.991 307.958 372.307C308.724 371.541 309.49 371.541 310.256 371.541C323.534 365.413 335.792 358.774 347.027 351.624V13.0232H84.2671C60.5191 34.473 42.8998 59.7531 29.8767 88.8635Z" fill="#314C48"/>
<path fill-rule="evenodd" clip-rule="evenodd" d="M227.518 401.407C197.641 401.407 169.297 395.279 141.718 384.554C140.186 383.788 138.654 383.022 137.122 382.256L125.631 375.361L140.953 369.999L227.518 340.122L330.17 375.361L316.381 383.021C314.849 383.021 313.317 383.788 311.019 384.554C285.739 395.279 257.394 401.407 227.518 401.407ZM160.104 376.893C204.536 392.214 252.032 391.448 294.165 376.893L227.518 353.911L160.104 376.893Z" fill="#314C48"/>
<path d="M29.1062 261.99L17.6152 256.628L18.3811 254.33L46.7256 173.893L17.6152 89.6257L16.083 88.8596C16.5937 87.3275 17.1045 85.7953 17.6152 84.2632L24.5095 71.2402L30.6379 87.3276L60.5146 173.893L29.1062 261.99Z" fill="#314C48"/>
<path d="M298.754 388.394L304.883 373.839L344.718 291.104L350.08 288.039L356.208 300.296L354.677 301.062L316.374 380.733H315.607L316.374 382.265C314.841 383.287 313.309 384.053 311.777 384.563L298.754 388.394Z" fill="#314C48"/>
<path d="M13.7788 102.655L16.0769 89.6313C16.0769 87.3331 16.8431 85.8009 17.6091 85.0349L19.9072 85.801L19.1409 85.0349L21.4395 83.5029L99.5776 45.9656L120.261 3.83203L131.752 9.96069L109.537 55.9245L13.7788 102.655Z" fill="#314C48"/>
<path d="M350.094 58.2192L344.731 55.9211L322.516 9.95727L334.007 3.82861L354.69 45.9621L356.222 46.7283L350.094 58.2192Z" fill="#314C48"/>
<path d="M138.648 381.511L137.116 379.213L99.5786 301.074L19.9082 262.005L24.5044 250.514L27.5688 251.28L109.538 291.115L150.139 375.383L138.648 381.511Z" fill="#314C48"/>
</svg>
