<svg width="359" height="402" viewBox="0 0 359 402" fill="none" xmlns="http://www.w3.org/2000/svg">
<path fill-rule="evenodd" clip-rule="evenodd" d="M101.415 255.107L130.525 266.598L131.291 375.379L63.1116 392.232L25.5743 333.245L101.415 255.107ZM118.268 275.79L105.245 270.428L42.4278 334.011L69.24 376.911L118.268 364.654V275.79Z" fill="#314C48"/>
<path fill-rule="evenodd" clip-rule="evenodd" d="M160.405 255.1L236.246 333.238L198.708 392.225L130.529 375.372L131.295 266.591L160.405 255.1ZM219.392 334.77L156.575 270.421L143.552 275.783V365.413L192.58 377.67L219.392 334.77Z" fill="#314C48"/>
<path fill-rule="evenodd" clip-rule="evenodd" d="M63.1116 63.5972L131.291 80.4505L130.525 189.232L101.415 200.723L25.5743 123.35L63.1116 63.5972ZM118.268 90.4094L69.24 78.1524L42.4278 121.052L105.245 185.401L118.268 180.039V90.4094Z" fill="#314C48"/>
<path fill-rule="evenodd" clip-rule="evenodd" d="M198.709 63.5972L236.246 123.35L160.405 200.723L131.295 189.232L130.529 80.4505L198.709 63.5972ZM219.392 121.052L192.58 78.9185L143.552 90.4094L144.318 180.039L157.341 185.401L219.392 121.052Z" fill="#314C48"/>
<path fill-rule="evenodd" clip-rule="evenodd" d="M278.375 227.511L295.228 295.691L236.241 333.228L158.103 257.387L169.594 228.277L278.375 227.511ZM280.673 289.562L268.416 240.534H178.786L173.424 253.557L237.773 316.375L280.673 289.562Z" fill="#314C48"/>
<path fill-rule="evenodd" clip-rule="evenodd" d="M236.241 123.329L295.228 160.1L278.375 228.28L169.594 227.514L158.103 198.404L236.241 123.329ZM280.673 166.995L237.773 140.183L173.424 202.234L178.786 215.257L268.416 216.023L280.673 166.995Z" fill="#314C48"/>
<path fill-rule="evenodd" clip-rule="evenodd" d="M-1.99802 227.511L92.2278 228.277L103.719 257.387L25.5801 333.228L-1.99802 315.608V227.511ZM83.0349 240.534H11.0247V308.714L24.0479 316.375L88.3975 254.323L83.0349 240.534Z" fill="#314C48"/>
<path fill-rule="evenodd" clip-rule="evenodd" d="M25.5801 122.563L103.719 198.404L92.2278 228.28H-1.99802V140.183L25.5801 122.563ZM88.3975 201.468L24.0479 138.65L11.0247 147.077V214.491H83.0349L88.3975 201.468Z" fill="#314C48"/>
<path fill-rule="evenodd" clip-rule="evenodd" d="M130.529 0.00012207C160.406 0.00012207 189.516 6.12875 216.328 16.8536C217.861 17.6197 219.393 18.3857 220.159 19.1517C274.549 41.3676 317.449 84.2673 340.43 139.424C341.197 140.19 341.963 141.722 341.963 143.254C352.688 170.066 358.05 198.411 358.05 227.521C358.05 257.398 352.688 286.508 341.963 313.321C341.963 314.087 341.197 314.853 340.43 316.385C327.407 348.559 305.958 376.904 280.678 399.12L278.379 401.418H-1.99985V42.8998L1.06412 40.6017C13.8318 31.9196 27.6212 24.5144 42.4318 18.3859C43.1978 17.6198 44.73 17.6197 46.2621 16.8536C72.3083 6.12875 100.653 0.00012207 130.529 0.00012207ZM328.174 312.554L329.706 309.49C340.431 282.933 345.793 255.61 345.793 227.521C345.793 199.943 340.431 173.131 329.706 147.851L328.174 144.02C306.724 92.694 266.123 52.0925 214.796 30.6427L210.966 29.1107C160.406 8.42697 100.653 8.42697 50.0924 29.1107C49.3264 29.8768 48.5604 29.8768 47.7943 29.8768C34.5159 36.0053 22.2585 42.6444 11.0229 49.7943V388.395H273.783C297.531 366.945 315.151 341.665 328.174 312.554Z" fill="#314C48"/>
<path fill-rule="evenodd" clip-rule="evenodd" d="M130.533 0.0107574C160.409 0.0107574 188.754 6.13937 216.332 16.8643C217.864 17.6303 219.396 18.3963 220.928 19.1624L232.419 26.0571L217.098 31.4194L130.533 61.2959L27.88 26.0571L41.6691 18.3965C43.2012 18.3965 44.7334 17.6303 47.0316 16.8643C72.3117 6.13937 100.656 0.0107574 130.533 0.0107574ZM197.946 24.5249C153.515 9.20362 106.019 9.96969 63.8851 24.5249L130.533 47.5068L197.946 24.5249Z" fill="#314C48"/>
<path d="M328.945 139.428L340.436 144.79L339.67 147.088L311.326 227.525L340.436 311.792L341.968 312.558C341.457 314.09 340.947 315.623 340.436 317.155L333.542 330.178L327.413 314.09L297.537 227.525L328.945 139.428Z" fill="#314C48"/>
<path d="M59.2965 13.0242L53.1676 27.5794L13.3326 110.314L7.97005 113.379L1.84163 101.122L3.37339 100.355L41.6766 20.6848H42.4429L41.6766 19.1526C43.2087 18.1312 44.7411 17.3652 46.2733 16.8545L59.2965 13.0242Z" fill="#314C48"/>
<path d="M344.272 298.763L341.974 311.786C341.974 314.085 341.208 315.617 340.442 316.383L338.144 315.617L338.91 316.383L336.612 317.915L258.473 355.452L237.79 397.586L226.299 391.457L248.514 345.493L344.272 298.763Z" fill="#314C48"/>
<path d="M7.95802 343.199L13.3206 345.497L35.5361 391.461L24.0452 397.589L3.36135 355.456L1.8296 354.69L7.95802 343.199Z" fill="#314C48"/>
<path d="M219.403 19.9068L220.935 22.2051L258.472 100.344L338.143 139.413L333.547 150.904L330.482 150.138L248.513 110.302L207.912 26.0354L219.403 19.9068Z" fill="#314C48"/>
</svg>
