<svg width="425" height="1100" viewBox="0 0 425 1100" fill="none" xmlns="http://www.w3.org/2000/svg">
<path d="M-596.514 28.1971L323.027 916.434L205.874 1037.72L-43.267 797.057L-4.02066 756.427L200.5 952.5L239.16 912.477L-693.767 12.7947C-661.276 17.2183 -628.784 21.6422 -596.514 28.1971Z" fill="#B28E68"/>
<path fill-rule="evenodd" clip-rule="evenodd" d="M95.4854 747.087L116.318 741.837L116.285 717.137L105.763 707.002L84.3517 728.897L95.4854 747.087ZM112.158 738.803L97.2306 742.601L89.1369 729.612L105.683 712.768L112.197 719.042L112.158 738.803Z" fill="#B89672"/>
<path fill-rule="evenodd" clip-rule="evenodd" d="M64.7138 717.446L84.3517 728.897L105.597 706.842L94.1572 695.823L68.7838 696.05L64.7138 717.446ZM83.4215 723.782L69.3872 715.456L72.213 700.002L92.4892 700.058L99.4601 706.773L83.4215 723.782Z" fill="#B89672"/>
<path fill-rule="evenodd" clip-rule="evenodd" d="M69.6755 695.845L94.7932 696.435L69.3409 671.919L63.8 675.278L69.6755 695.845ZM84.9807 692.263L72.7478 691.972L68.6131 677.119L68.9235 676.796L84.9807 692.263Z" fill="#B89672"/>
<path fill-rule="evenodd" clip-rule="evenodd" d="M116.938 741.37L138.138 746.572L141.268 741.202L114.959 715.86L116.938 741.37ZM135.869 742.213L120.55 738.327L119.582 725.903L136.18 741.891L135.869 742.213Z" fill="#B89672"/>
<path fill-rule="evenodd" clip-rule="evenodd" d="M66.7467 747.174C73.5034 753.682 81.066 758.661 89.5989 761.938C89.7722 762.105 90.4565 762.434 90.9677 762.597C108.034 769.152 126.954 768.927 143.84 761.799L144.342 761.624C144.567 761.622 144.844 761.45 145.174 761.108C148.015 759.891 150.684 758.508 153.681 756.783L156.012 755.404L55.1811 658.279L53.8901 660.66C52.1629 663.609 50.7707 666.441 49.7136 669.157C49.393 669.836 49.2284 670.007 49.0724 670.516C42.582 687.656 43.0653 706.572 50.6007 723.714C50.4361 723.885 50.7826 724.219 50.7912 724.557C54.7293 733.182 60.0478 740.721 66.7467 747.174ZM142.393 758.1C126.175 764.882 108.433 764.924 92.0509 758.699C91.8777 758.532 91.5398 758.536 91.3666 758.369C74.9764 751.806 61.6362 738.956 54.6464 723.328L54.1094 722.152C47.2757 706.015 46.8182 688.112 52.9967 671.99L53.3086 670.972C54.1578 668.935 55.1197 666.896 56.1941 664.856L149.229 754.471C147.23 755.621 145.229 756.658 143.225 757.583L142.393 758.1Z" fill="#B89672"/>
<path fill-rule="evenodd" clip-rule="evenodd" d="M66.6604 747.091C73.3933 753.576 80.9342 758.531 89.448 761.786C89.7932 762.118 90.3033 762.28 90.6407 762.275L95.231 763.729L92.7511 758.702L79.8416 733.406L49.3017 719.158L50.4163 723.529C50.5367 723.865 50.6569 724.201 50.7773 724.537C54.6907 733.143 59.9851 740.661 66.6604 747.091ZM86.9603 756.422C73.8168 750.027 63.1132 739.717 56.5761 727.154L76.8758 736.485L86.9603 756.422Z" fill="#B89672"/>
<path d="M85.3666 759.555L88.9909 761.712C89.5128 762.215 90.0275 762.377 90.3682 762.372L90.5275 761.858L90.7015 762.026L91.3754 761.674L116.899 752.239L143.501 761.185L144.949 757.244L144.094 757.087L116.804 747.811L85.3666 759.555Z" fill="#B89672"/>
<path fill-rule="evenodd" clip-rule="evenodd" d="M80.3063 888.251L101.139 883.002L101.106 858.302L90.5844 848.167L69.1726 870.062L80.3063 888.251ZM96.9785 879.968L82.0515 883.765L73.9578 870.776L90.5044 853.932L97.0177 860.206L96.9785 879.968Z" fill="#B89672"/>
<path fill-rule="evenodd" clip-rule="evenodd" d="M49.5347 858.611L69.1726 870.062L90.4174 848.006L78.978 836.987L53.6047 837.214L49.5347 858.611ZM68.2423 864.946L54.208 856.621L57.0339 841.167L77.3101 841.223L84.2809 847.938L68.2423 864.946Z" fill="#B89672"/>
<path fill-rule="evenodd" clip-rule="evenodd" d="M54.4964 837.009L79.6141 837.6L54.1618 813.083L48.6209 816.442L54.4964 837.009ZM69.8015 833.428L57.5687 833.136L53.4339 818.283L53.7443 817.961L69.8015 833.428Z" fill="#B89672"/>
<path fill-rule="evenodd" clip-rule="evenodd" d="M101.759 882.535L122.959 887.737L126.089 882.367L99.7803 857.025L101.759 882.535ZM120.69 883.378L105.371 879.492L104.403 867.068L121 883.055L120.69 883.378Z" fill="#B89672"/>
<path fill-rule="evenodd" clip-rule="evenodd" d="M51.5676 888.338C58.3243 894.847 65.8869 899.825 74.4198 903.102C74.5931 903.269 75.2774 903.599 75.7885 903.762C92.8545 910.316 111.775 910.091 128.66 902.964L129.163 902.789C129.388 902.786 129.665 902.614 129.994 902.272C132.836 901.056 135.505 899.673 138.502 897.948L140.833 896.568L40.002 799.444L38.7109 801.824C36.9838 804.773 35.5916 807.606 34.5344 810.321C34.2138 811.001 34.0493 811.172 33.8933 811.68C27.4029 828.821 27.8862 847.736 35.4216 864.879C35.257 865.05 35.6034 865.383 35.6121 865.721C39.5501 874.347 44.8686 881.886 51.5676 888.338ZM127.214 899.264C110.996 906.046 93.2534 906.088 76.8718 899.863C76.6986 899.696 76.3607 899.7 76.1875 899.534C59.7973 892.971 46.457 880.121 39.4673 864.493L38.9303 863.316C32.0966 847.179 31.6391 829.277 37.8175 813.154L38.1295 812.137C38.9787 810.099 39.9406 808.061 41.015 806.021L134.05 895.635C132.051 896.785 130.05 897.823 128.046 898.748L127.214 899.264Z" fill="#B89672"/>
<path fill-rule="evenodd" clip-rule="evenodd" d="M51.4813 888.255C58.2141 894.741 65.7551 899.696 74.2688 902.95C74.6141 903.283 75.1242 903.445 75.4616 903.44L80.0519 904.894L77.572 899.867L64.6625 874.571L34.1226 860.323L35.2372 864.694C35.3575 865.03 35.4778 865.365 35.5981 865.701C39.5116 874.307 44.806 881.825 51.4813 888.255ZM71.7811 897.586C58.6377 891.191 47.9341 880.881 41.397 868.319L61.6967 877.65L71.7811 897.586Z" fill="#B89672"/>
<path d="M70.1875 900.72L73.8117 902.877C74.3337 903.38 74.8484 903.542 75.1891 903.536L75.3483 903.023L75.5224 903.19L76.1963 902.839L101.72 893.403L128.322 902.35L129.77 898.408L128.915 898.252L101.625 888.976L70.1875 900.72Z" fill="#B89672"/>
<path fill-rule="evenodd" clip-rule="evenodd" d="M188.69 814.65L184.224 835.665L159.54 836.557L149.019 826.422L170.097 804.205L188.69 814.65ZM181.036 831.621L184.273 816.562L170.99 808.96L154.777 826.126L161.29 832.4L181.036 831.621Z" fill="#B89672"/>
<path fill-rule="evenodd" clip-rule="evenodd" d="M157.919 785.01L170.097 804.205L148.852 826.261L137.412 815.242L136.69 789.878L157.919 785.01ZM164.95 803.467L156.105 789.754L140.767 793.157L141.583 813.417L148.554 820.131L164.95 803.467Z" fill="#B89672"/>
<path fill-rule="evenodd" clip-rule="evenodd" d="M136.518 790.777L138.049 815.855L112.596 791.338L115.745 785.675L136.518 790.777ZM133.512 806.205L132.763 793.992L117.765 790.416L117.455 790.738L133.512 806.205Z" fill="#B89672"/>
<path fill-rule="evenodd" clip-rule="evenodd" d="M183.781 836.302L189.773 857.292L184.524 860.622L158.215 835.28L183.781 836.302ZM185.332 855.188L180.875 840.025L168.424 839.523L185.021 855.511L185.332 855.188Z" fill="#B89672"/>
<path fill-rule="evenodd" clip-rule="evenodd" d="M187.702 785.929C194.458 792.437 199.716 799.808 203.311 808.212C203.484 808.379 203.839 809.05 204.021 809.555C211.21 826.364 211.693 845.28 205.203 862.42L205.047 862.928C205.052 863.154 204.891 863.437 204.561 863.779C203.452 866.664 202.17 869.382 200.558 872.443L199.267 874.823L98.4364 777.699L100.767 776.319C103.649 774.483 106.427 772.986 109.101 771.828C109.769 771.482 109.933 771.311 110.436 771.136C127.321 764.009 146.241 763.784 163.654 770.672C163.819 770.501 164.165 770.835 164.503 770.831C173.27 774.443 181.003 779.476 187.702 785.929ZM201.452 861.113C207.622 844.652 206.999 826.921 200.166 810.784C199.992 810.617 199.984 810.279 199.811 810.112C192.639 793.979 179.299 781.129 163.42 774.729L162.224 774.237C145.843 768.012 127.936 768.225 112.055 775.003L111.05 775.352C109.046 776.277 107.045 777.315 105.046 778.465L198.081 868.08C199.155 866.039 200.117 864.001 200.966 861.963L201.452 861.113Z" fill="#B89672"/>
<path fill-rule="evenodd" clip-rule="evenodd" d="M187.615 785.845C194.348 792.331 199.582 799.681 203.153 808.067C203.499 808.399 203.679 808.903 203.687 809.24L205.311 813.773L200.195 811.483L174.434 799.53L159.053 769.544L163.462 770.495C163.803 770.602 164.142 770.71 164.483 770.818C173.229 774.406 180.94 779.415 187.615 785.845ZM197.7 805.782C190.817 792.887 180.114 782.577 167.316 776.514L177.4 796.451L197.7 805.782Z" fill="#B89672"/>
<path d="M200.771 804.072L203.063 807.613C203.584 808.116 203.766 808.624 203.773 808.965L203.266 809.143L203.44 809.311L203.114 809.997L194.64 835.857L204.576 862.104L200.692 863.699L200.503 862.851L190.212 835.927L200.771 804.072Z" fill="#B89672"/>
<path fill-rule="evenodd" clip-rule="evenodd" d="M173.511 955.815L169.045 976.83L144.361 977.721L133.84 967.586L154.918 945.37L173.511 955.815ZM165.857 972.785L169.094 957.727L155.811 950.125L139.598 967.29L146.111 973.564L165.857 972.785Z" fill="#B89672"/>
<path fill-rule="evenodd" clip-rule="evenodd" d="M142.74 926.174L154.918 945.37L133.673 967.425L122.233 956.407L121.51 931.042L142.74 926.174ZM149.771 944.632L140.926 930.919L125.588 934.321L126.404 954.581L133.375 961.296L149.771 944.632Z" fill="#B89672"/>
<path fill-rule="evenodd" clip-rule="evenodd" d="M121.339 931.941L122.869 957.019L97.417 932.502L100.566 926.84L121.339 931.941ZM118.333 947.37L117.583 935.156L102.586 931.58L102.276 931.903L118.333 947.37Z" fill="#B89672"/>
<path fill-rule="evenodd" clip-rule="evenodd" d="M168.602 977.467L174.594 998.457L169.345 1001.79L143.036 976.444L168.602 977.467ZM170.153 996.353L165.696 981.19L153.245 980.688L169.842 996.675L170.153 996.353Z" fill="#B89672"/>
<path fill-rule="evenodd" clip-rule="evenodd" d="M172.522 927.093C179.279 933.601 184.537 940.972 188.132 949.377C188.305 949.543 188.66 950.215 188.842 950.72C196.031 967.528 196.514 986.444 190.024 1003.58L189.868 1004.09C189.873 1004.32 189.712 1004.6 189.382 1004.94C188.273 1007.83 186.991 1010.55 185.379 1013.61L184.088 1015.99L83.2573 918.863L85.5878 917.484C88.47 915.648 91.2482 914.15 93.9224 912.992C94.5895 912.646 94.7541 912.476 95.2565 912.301C112.142 905.173 131.062 904.948 148.475 911.837C148.639 911.666 148.986 911.999 149.324 911.995C158.091 915.608 165.823 920.64 172.522 927.093ZM186.273 1002.28C192.442 985.817 191.82 968.085 184.987 951.948C184.813 951.781 184.805 951.443 184.631 951.277C177.46 935.144 164.12 922.294 148.24 915.894L147.045 915.401C130.663 909.176 112.757 909.389 96.8762 916.167L95.8712 916.517C93.867 917.442 91.8658 918.479 89.8673 919.629L182.902 1009.24C183.976 1007.2 184.938 1005.17 185.787 1003.13L186.273 1002.28Z" fill="#B89672"/>
<path fill-rule="evenodd" clip-rule="evenodd" d="M172.436 927.01C179.169 933.495 184.403 940.845 187.974 949.231C188.319 949.564 188.5 950.068 188.508 950.405L190.132 954.938L185.016 952.648L159.255 940.694L143.873 910.709L148.283 911.659C148.623 911.767 148.963 911.874 149.303 911.982C158.05 915.571 165.761 920.58 172.436 927.01ZM182.521 946.946C175.638 934.051 164.935 923.741 152.136 917.679L162.221 937.615L182.521 946.946Z" fill="#B89672"/>
<path d="M185.592 945.236L187.883 948.777C188.405 949.28 188.587 949.788 188.594 950.129L188.087 950.307L188.261 950.475L187.935 951.162L179.461 977.021L189.397 1003.27L185.513 1004.86L185.324 1004.02L175.033 977.092L185.592 945.236Z" fill="#B89672"/>
<path fill-rule="evenodd" clip-rule="evenodd" d="M14.3427 802.497L9.87639 823.512L-14.8074 824.403L-25.3289 814.268L-4.25107 792.052L14.3427 802.497ZM6.68875 819.468L9.9252 804.409L-3.35798 796.807L-19.5706 813.973L-13.0573 820.247L6.68875 819.468Z" fill="#B89672"/>
<path fill-rule="evenodd" clip-rule="evenodd" d="M9.43309 824.149L15.4252 845.139L10.1759 848.468L-16.133 823.126L9.43309 824.149ZM10.9841 843.035L6.52747 827.872L-5.9238 827.37L10.6737 843.357L10.9841 843.035Z" fill="#B89672"/>
<path fill-rule="evenodd" clip-rule="evenodd" d="M18.3091 778.548C25.0419 785.034 30.2762 792.384 33.847 800.77C34.1923 801.102 34.3728 801.606 34.3807 801.943L36.0052 806.476L30.8891 804.186L5.1279 792.232L-10.2536 762.247L-5.84371 763.198C-5.50368 763.305 -5.1637 763.413 -4.82367 763.521C3.9229 767.109 11.6338 772.118 18.3091 778.548ZM28.3935 798.485C21.5111 785.59 10.8075 775.28 -1.99067 769.217L8.09369 789.153L28.3935 798.485Z" fill="#B89672"/>
<path d="M26.4237 791.919L28.7148 795.46C29.2368 795.962 29.4181 796.471 29.4255 796.811L28.9181 796.99L29.0921 797.157L28.7661 797.844L20.2927 823.703L30.2285 849.951L26.3442 851.546L26.1555 850.697L15.8645 823.774L26.4237 791.919Z" fill="#B89672"/>
<path fill-rule="evenodd" clip-rule="evenodd" d="M27.3612 659.251L22.8949 680.266L-1.78889 681.157L-12.3105 671.023L8.76739 648.806L27.3612 659.251ZM19.7072 676.222L22.9437 661.163L9.66049 653.561L-6.55214 670.727L-0.0388031 677.001L19.7072 676.222Z" fill="#B89672"/>
<path fill-rule="evenodd" clip-rule="evenodd" d="M-3.41049 629.611L8.76739 648.806L-12.4774 670.862L-23.9168 659.843L-24.6397 634.479L-3.41049 629.611ZM3.62064 648.068L-5.22406 634.355L-20.5618 637.758L-19.7464 658.018L-12.7756 664.732L3.62064 648.068Z" fill="#B89672"/>
<path fill-rule="evenodd" clip-rule="evenodd" d="M22.4516 680.903L28.4437 701.893L23.1944 705.222L-3.11456 679.881L22.4516 680.903ZM24.0025 699.789L19.5459 684.626L7.09466 684.124L23.6922 700.111L24.0025 699.789Z" fill="#B89672"/>
<path fill-rule="evenodd" clip-rule="evenodd" d="M26.3723 630.529C33.129 637.038 38.387 644.409 41.9814 652.813C42.1547 652.98 42.5097 653.651 42.6916 654.156C49.8805 670.965 50.3639 689.88 43.8735 707.021L43.7175 707.529C43.7232 707.755 43.5615 708.038 43.2322 708.38C42.1231 711.265 40.8407 713.983 39.229 717.043L37.938 719.424L-62.8928 622.3L-60.5623 620.92C-57.6801 619.084 -54.9019 617.587 -52.2278 616.429C-51.5607 616.083 -51.3961 615.912 -50.8936 615.737C-34.0083 608.61 -15.0878 608.385 2.32467 615.273C2.48929 615.102 2.83578 615.436 3.17365 615.432C11.9405 619.044 19.6733 624.077 26.3723 630.529ZM40.1225 705.714C46.2922 689.253 45.6701 671.522 38.8364 655.385C38.6631 655.218 38.6545 654.88 38.4813 654.713C31.3097 638.58 17.9694 625.73 2.09035 619.33L0.894853 618.838C-15.4867 612.613 -33.3936 612.826 -49.274 619.603L-50.2789 619.953C-52.2831 620.878 -54.2844 621.916 -56.2828 623.066L36.7518 712.68C37.8262 710.64 38.788 708.602 39.6372 706.564L40.1225 705.714Z" fill="#B89672"/>
<path fill-rule="evenodd" clip-rule="evenodd" d="M26.286 630.446C33.0188 636.932 38.2531 644.282 41.824 652.668C42.1692 653 42.3497 653.504 42.3576 653.841L43.9822 658.374L38.866 656.084L13.1048 644.13L-2.27668 614.145L2.13322 615.096C2.47325 615.203 2.81323 615.311 3.15325 615.419C11.8998 619.007 19.6107 624.016 26.286 630.446ZM36.3704 650.383C29.488 637.488 18.7845 627.178 5.98626 621.115L16.0706 641.051L36.3704 650.383Z" fill="#B89672"/>
<path d="M39.4422 648.673L41.7333 652.214C42.2552 652.717 42.4366 653.225 42.4439 653.565L41.9365 653.744L42.1106 653.912L41.7846 654.598L33.3112 680.457L43.247 706.705L39.3627 708.3L39.174 707.451L28.8829 680.528L39.4422 648.673Z" fill="#B89672"/>
<path fill-rule="evenodd" clip-rule="evenodd" d="M259.696 905.261L280.529 900.011L280.496 875.311L269.974 865.177L248.562 887.071L259.696 905.261ZM276.368 896.977L261.441 900.775L253.347 887.786L269.894 870.942L276.407 877.216L276.368 896.977Z" fill="#B89672"/>
<path fill-rule="evenodd" clip-rule="evenodd" d="M228.923 875.62L248.561 887.071L269.806 865.016L258.367 853.997L232.994 854.224L228.923 875.62ZM247.631 881.956L233.597 873.63L236.423 858.176L256.699 858.233L263.67 864.947L247.631 881.956Z" fill="#B89672"/>
<path fill-rule="evenodd" clip-rule="evenodd" d="M233.886 854.019L259.003 854.609L233.551 830.093L228.01 833.452L233.886 854.019ZM249.191 850.437L236.958 850.146L232.823 835.293L233.134 834.97L249.191 850.437Z" fill="#B89672"/>
<path fill-rule="evenodd" clip-rule="evenodd" d="M281.148 899.544L302.348 904.746L305.479 899.376L279.17 874.034L281.148 899.544ZM300.079 900.387L284.76 896.501L283.792 884.078L300.39 900.065L300.079 900.387Z" fill="#B89672"/>
<path fill-rule="evenodd" clip-rule="evenodd" d="M230.957 905.348C237.714 911.856 245.276 916.835 253.809 920.112C253.982 920.279 254.667 920.608 255.178 920.771C272.244 927.326 291.164 927.101 308.05 919.973L308.552 919.799C308.777 919.796 309.054 919.624 309.384 919.282C312.225 918.065 314.894 916.682 317.892 914.957L320.222 913.578L219.391 816.453L218.1 818.834C216.373 821.783 214.981 824.615 213.924 827.331C213.603 828.01 213.439 828.181 213.283 828.69C206.792 845.83 207.275 864.746 214.811 881.888C214.646 882.059 214.993 882.393 215.001 882.731C218.939 891.356 224.258 898.895 230.957 905.348ZM306.603 916.274C290.385 923.056 272.643 923.098 256.261 916.873C256.088 916.706 255.75 916.71 255.577 916.543C239.187 909.98 225.846 897.131 218.857 881.502L218.32 880.326C211.486 864.189 211.028 846.287 217.207 830.164L217.519 829.146C218.368 827.109 219.33 825.07 220.404 823.03L313.439 912.645C311.44 913.795 309.439 914.832 307.435 915.757L306.603 916.274Z" fill="#B89672"/>
<path fill-rule="evenodd" clip-rule="evenodd" d="M230.871 905.265C237.603 911.75 245.144 916.706 253.658 919.96C254.003 920.293 254.513 920.454 254.851 920.449L259.441 921.903L256.961 916.876L244.052 891.581L213.512 877.332L214.626 881.704C214.747 882.039 214.867 882.375 214.987 882.711C218.901 891.317 224.195 898.835 230.871 905.265ZM251.17 914.596C238.027 908.201 227.323 897.891 220.786 885.329L241.086 894.66L251.17 914.596Z" fill="#B89672"/>
<path d="M249.577 917.729L253.201 919.886C253.723 920.389 254.238 920.551 254.578 920.546L254.738 920.032L254.912 920.2L255.586 919.848L281.11 910.413L307.711 919.359L309.159 915.418L308.304 915.261L281.014 905.985L249.577 917.729Z" fill="#B89672"/>
<path fill-rule="evenodd" clip-rule="evenodd" d="M214.571 976.945L219.877 997.764L244.576 997.665L254.683 987.116L232.731 965.763L214.571 976.945ZM222.899 993.595L219.062 978.678L232.029 970.55L248.917 987.051L242.661 993.581L222.899 993.595Z" fill="#B89672"/>
<path fill-rule="evenodd" clip-rule="evenodd" d="M244.13 946.094L232.731 965.763L254.843 986.949L265.832 975.48L265.537 950.107L244.13 946.094ZM237.844 964.819L246.132 950.762L261.594 953.547L261.591 973.823L254.895 980.812L237.844 964.819Z" fill="#B89672"/>
<path fill-rule="evenodd" clip-rule="evenodd" d="M265.744 950.998L265.221 976.118L289.67 950.6L286.296 945.068L265.744 950.998ZM269.367 966.294L269.626 954.06L284.468 949.886L284.791 950.196L269.367 966.294Z" fill="#B89672"/>
<path fill-rule="evenodd" clip-rule="evenodd" d="M220.345 998.382L215.199 1019.6L220.578 1022.71L245.85 996.335L220.345 998.382ZM219.553 1017.32L223.398 1001.99L235.819 1000.98L219.876 1017.62L219.553 1017.32Z" fill="#B89672"/>
<path fill-rule="evenodd" clip-rule="evenodd" d="M214.408 948.206C207.917 954.98 202.959 962.556 199.705 971.098C199.538 971.272 199.21 971.957 199.049 972.468C192.54 989.552 192.815 1008.47 199.987 1025.34L200.164 1025.84C200.167 1026.07 200.34 1026.34 200.683 1026.67C201.907 1029.51 203.297 1032.17 205.03 1035.17L206.416 1037.49L303.271 936.404L300.887 935.119C297.934 933.4 295.098 932.015 292.379 930.965C291.699 930.647 291.527 930.483 291.018 930.328C273.861 923.883 254.946 924.417 237.824 931.998C237.653 931.834 237.32 932.181 236.982 932.191C228.367 936.152 220.842 941.49 214.408 948.206ZM203.683 1023.88C196.858 1007.68 196.769 989.939 202.95 973.541C203.117 973.367 203.112 973.03 203.278 972.856C209.797 956.448 222.611 943.074 238.221 936.043L239.396 935.502C255.515 928.626 273.416 928.121 289.555 934.256L290.573 934.565C292.613 935.409 294.654 936.365 296.697 937.434L207.33 1030.71C206.175 1028.71 205.132 1026.71 204.202 1024.71L203.683 1023.88Z" fill="#B89672"/>
<path fill-rule="evenodd" clip-rule="evenodd" d="M214.491 948.12C208.023 954.87 203.088 962.424 199.856 970.946C199.524 971.293 199.364 971.803 199.37 972.14L197.928 976.735L202.949 974.241L228.21 961.264L242.377 930.687L238.008 931.813C237.673 931.934 237.338 932.055 237.002 932.177C228.406 936.113 220.903 941.427 214.491 948.12ZM205.214 968.444C211.573 955.284 221.855 944.553 234.4 937.982L225.123 958.307L205.214 968.444Z" fill="#B89672"/>
<path d="M202.076 966.859L199.928 970.489C199.427 971.012 199.266 971.528 199.273 971.868L199.787 972.026L199.62 972.201L199.973 972.874L209.476 998.372L200.601 1025L204.546 1026.44L204.7 1025.58L213.904 998.265L202.076 966.859Z" fill="#B89672"/>
<path d="M-667.648 -162.669C-635.708 -158.32 -603.788 -153.941 -572.084 -147.508L346.993 740.282L230.535 860.845L-17.8869 620.879L20.6648 580.969L207.045 761.005L246.4 720.263L-667.648 -162.669Z" stroke="#B8C9C7"/>
<path d="M-777.766 50.2172C-748.332 52.1439 -718.922 54.0991 -689.851 57.9895L105.871 826.624L-10.587 947.186L-225.591 739.501L-187.039 699.591L-25.6583 855.478L13.6966 814.736L-777.766 50.2172Z" stroke="#315651"/>
</svg>
