<svg width="1278" height="171" viewBox="0 0 1278 171" fill="none" xmlns="http://www.w3.org/2000/svg">
<path d="M1278.48 0.113533L3.94675e-06 1.91205L0.237217 170.536L346.63 170.049L346.551 113.56L62 113.56L61.9217 57.9139L1359.21 56.4892C1332.74 37.1347 1306.27 17.78 1278.48 0.113533Z" fill="#254742"/>
<path fill-rule="evenodd" clip-rule="evenodd" d="M1187.36 36.8001L1176 18.5663L1193.16 0.80011H1207.77L1208 31.4235L1187.36 36.8001ZM1181.1 19.2677L1189.22 32.3585L1204.06 28.6183L1203.83 5.00794H1194.78L1181.1 19.2677Z" fill="#2F4A46"/>
<path fill-rule="evenodd" clip-rule="evenodd" d="M1230.09 36.8001L1208 31.4235V0.80011H1223.88L1242 18.5663L1230.09 36.8001ZM1212.22 28.3845L1228.1 32.1248L1236.79 19.0339L1222.15 5.00794H1212.47L1212.22 28.3845Z" fill="#2F4A46"/>
<path fill-rule="evenodd" clip-rule="evenodd" d="M1241.5 17.8001L1223 0.80011H1258.34L1260 7.0633L1241.5 17.8001ZM1232.96 4.60277L1241.97 12.8791L1255.26 5.05016V4.60277H1232.96Z" fill="#2F4A46"/>
<path fill-rule="evenodd" clip-rule="evenodd" d="M1175.88 17.8001L1157 6.83961L1158.47 0.80011H1195L1175.88 17.8001ZM1161.66 5.27379L1175.39 13.1027L1184.7 4.82646H1161.66V5.27379Z" fill="#2F4A46"/>
<path fill-rule="evenodd" clip-rule="evenodd" d="M1208 56.8001C1198.62 56.8001 1189.72 55.1391 1181.3 51.5798C1181.06 51.5798 1180.34 51.3425 1179.86 51.1052C1163.02 43.9866 1149.55 30.6984 1142.33 13.851L1142.09 13.3764C1141.93 13.2182 1141.85 12.9019 1141.85 12.4273C1140.65 9.57983 1139.68 6.73233 1138.72 3.41029L1138 0.80011H1278L1277.28 3.41029C1276.48 6.73233 1275.51 9.73802 1274.39 12.4273C1274.15 13.1391 1274.15 13.3764 1273.91 13.851C1266.69 30.6984 1253.22 43.9866 1235.9 51.1052C1235.9 51.3425 1235.42 51.3425 1235.18 51.5798C1226.36 55.06 1217.3 56.8001 1208 56.8001ZM1145.94 12.19C1152.91 28.3256 1165.66 40.6645 1181.78 47.5459C1182.02 47.5459 1182.26 47.7832 1182.5 47.7832C1198.86 54.4273 1217.38 54.4273 1233.26 48.0205L1234.46 47.5459C1250.58 40.6645 1263.33 28.0883 1270.06 12.19L1270.54 11.2408C1271.34 9.18435 1272.07 7.04872 1272.71 4.83404H1143.53C1144.17 7.04872 1144.9 9.18435 1145.7 11.2408L1145.94 12.19Z" fill="#2F4A46"/>
<path fill-rule="evenodd" clip-rule="evenodd" d="M1208.12 56.8001C1198.77 56.8001 1189.9 55.1377 1181.51 51.5752C1181.03 51.5752 1180.55 51.3376 1180.31 51.1001L1176 48.9626L1181.27 47.0626L1208.12 37.8001L1240 48.7251L1236.16 51.1001C1235.85 51.2585 1235.53 51.4168 1235.21 51.5752C1226.42 55.0585 1217.39 56.8001 1208.12 56.8001ZM1187.03 49.4376C1200.93 53.9501 1215.79 53.9501 1229.21 49.4376L1208.12 42.0752L1187.03 49.4376Z" fill="#2F4A46"/>
<path d="M1186 52.8001L1181.89 51.8392C1181.17 51.8392 1180.69 51.599 1180.44 51.3588L1180.69 50.8783H1180.44L1180.2 50.1576L1168.37 25.6548L1143 13.6436L1144.69 9.80011L1145.42 10.2805L1171.51 22.5319L1186 52.8001Z" fill="#2F4A46"/>
<path fill-rule="evenodd" clip-rule="evenodd" d="M732.362 36.8001L721 18.5663L738.159 0.80011H752.768L753 31.4235L732.362 36.8001ZM726.101 19.2677L734.217 32.3585L749.058 28.6183L748.826 5.00794H739.783L726.101 19.2677Z" fill="#2F4A46"/>
<path fill-rule="evenodd" clip-rule="evenodd" d="M775.088 36.8001L753 31.4235V0.80011H768.883L787 18.5663L775.088 36.8001ZM757.219 28.3845L773.102 32.1248L781.788 19.0339L767.146 5.00794H757.467L757.219 28.3845Z" fill="#2F4A46"/>
<path fill-rule="evenodd" clip-rule="evenodd" d="M786.5 17.8001L768 0.80011H803.34L805 7.0633L786.5 17.8001ZM777.962 4.60277L786.974 12.8791L800.256 5.05016V4.60277H777.962Z" fill="#2F4A46"/>
<path fill-rule="evenodd" clip-rule="evenodd" d="M720.877 17.8001L702 6.83961L703.471 0.80011H740L720.877 17.8001ZM706.658 5.27379L720.387 13.1027L729.703 4.82646H706.658V5.27379Z" fill="#2F4A46"/>
<path fill-rule="evenodd" clip-rule="evenodd" d="M753 56.8001C743.619 56.8001 734.718 55.1391 726.299 51.5798C726.058 51.5798 725.337 51.3425 724.856 51.1052C708.017 43.9866 694.546 30.6984 687.33 13.851L687.089 13.3764C686.929 13.2182 686.849 12.9019 686.849 12.4273C685.646 9.57983 684.684 6.73233 683.722 3.41029L683 0.80011H823L822.278 3.41029C821.477 6.73233 820.514 9.73802 819.392 12.4273C819.151 13.1391 819.151 13.3764 818.911 13.851C811.694 30.6984 798.223 43.9866 780.904 51.1052C780.904 51.3425 780.423 51.3425 780.182 51.5798C771.362 55.06 762.301 56.8001 753 56.8001ZM690.938 12.19C697.914 28.3256 710.663 40.6645 726.78 47.5459C727.021 47.5459 727.261 47.7832 727.502 47.7832C743.859 54.4273 762.382 54.4273 778.258 48.0205L779.461 47.5459C795.577 40.6645 808.326 28.0883 815.062 12.19L815.543 11.2408C816.345 9.18435 817.066 7.04872 817.708 4.83404H688.533C689.174 7.04872 689.896 9.18435 690.698 11.2408L690.938 12.19Z" fill="#2F4A46"/>
<path fill-rule="evenodd" clip-rule="evenodd" d="M753.12 56.8001C743.772 56.8001 734.903 55.1377 726.513 51.5752C726.034 51.5752 725.554 51.3376 725.315 51.1001L721 48.9626L726.273 47.0626L753.12 37.8001L785 48.7251L781.165 51.1001C780.845 51.2585 780.526 51.4168 780.206 51.5752C771.417 55.0585 762.388 56.8001 753.12 56.8001ZM732.026 49.4376C745.929 53.9501 760.79 53.9501 774.213 49.4376L753.12 42.0752L732.026 49.4376Z" fill="#2F4A46"/>
<path d="M731 52.8001L726.893 51.8392C726.169 51.8392 725.685 51.599 725.444 51.3588L725.686 50.8783H725.444L725.202 50.1576L713.365 25.6548L688 13.6436L689.691 9.80011L690.416 10.2805L716.506 22.5319L731 52.8001Z" fill="#2F4A46"/>
<path fill-rule="evenodd" clip-rule="evenodd" d="M281.362 37.8001L270 19.5663L287.159 1.80011H301.768L302 32.4235L281.362 37.8001ZM275.101 20.2677L283.217 33.3585L298.058 29.6183L297.826 6.00794H288.783L275.101 20.2677Z" fill="#2F4A46"/>
<path fill-rule="evenodd" clip-rule="evenodd" d="M324.088 37.8001L302 32.4235V1.80011H317.883L336 19.5663L324.088 37.8001ZM306.219 29.3845L322.102 33.1248L330.788 20.0339L316.146 6.00794H306.467L306.219 29.3845Z" fill="#2F4A46"/>
<path fill-rule="evenodd" clip-rule="evenodd" d="M335.5 18.8001L317 1.80011H352.34L354 8.0633L335.5 18.8001ZM326.962 5.60277L335.974 13.8791L349.256 6.05016V5.60277H326.962Z" fill="#2F4A46"/>
<path fill-rule="evenodd" clip-rule="evenodd" d="M269.877 18.8001L251 7.83961L252.471 1.80011H289L269.877 18.8001ZM255.658 6.27379L269.387 14.1027L278.703 5.82646H255.658V6.27379Z" fill="#2F4A46"/>
<path fill-rule="evenodd" clip-rule="evenodd" d="M302 57.8001C292.619 57.8001 283.718 56.1391 275.299 52.5798C275.058 52.5798 274.337 52.3425 273.856 52.1052C257.017 44.9866 243.546 31.6984 236.33 14.851L236.089 14.3764C235.929 14.2182 235.849 13.9019 235.849 13.4273C234.646 10.5798 233.684 7.73233 232.722 4.41029L232 1.80011H372L371.278 4.41029C370.477 7.73233 369.514 10.738 368.392 13.4273C368.151 14.1391 368.151 14.3764 367.911 14.851C360.694 31.6984 347.223 44.9866 329.904 52.1052C329.904 52.3425 329.423 52.3425 329.182 52.5798C320.362 56.06 311.301 57.8001 302 57.8001ZM239.938 13.19C246.914 29.3256 259.663 41.6645 275.78 48.5459C276.021 48.5459 276.261 48.7832 276.502 48.7832C292.859 55.4273 311.382 55.4273 327.258 49.0205L328.461 48.5459C344.577 41.6645 357.326 29.0883 364.062 13.19L364.543 12.2408C365.345 10.1843 366.066 8.04872 366.708 5.83404H237.533C238.174 8.04872 238.896 10.1843 239.698 12.2408L239.938 13.19Z" fill="#2F4A46"/>
<path fill-rule="evenodd" clip-rule="evenodd" d="M302.12 57.8001C292.772 57.8001 283.903 56.1377 275.513 52.5752C275.034 52.5752 274.554 52.3376 274.315 52.1001L270 49.9626L275.273 48.0626L302.12 38.8001L334 49.7251L330.165 52.1001C329.845 52.2585 329.526 52.4168 329.206 52.5752C320.417 56.0585 311.388 57.8001 302.12 57.8001ZM281.026 50.4376C294.929 54.9501 309.79 54.9501 323.213 50.4376L302.12 43.0752L281.026 50.4376Z" fill="#2F4A46"/>
<path d="M280 53.8001L275.893 52.8392C275.169 52.8392 274.685 52.599 274.444 52.3588L274.686 51.8783H274.444L274.202 51.1576L262.365 26.6548L237 14.6436L238.691 10.8001L239.416 11.2805L265.506 23.5319L280 53.8001Z" fill="#2F4A46"/>
<path fill-rule="evenodd" clip-rule="evenodd" d="M194.362 150L183 131.766L200.159 114H214.768L215 144.623L194.362 150ZM188.101 132.468L196.217 145.559L211.058 141.818L210.826 118.208H201.783L188.101 132.468Z" fill="#2F4A46"/>
<path fill-rule="evenodd" clip-rule="evenodd" d="M237.088 150L215 144.623V114H230.883L249 131.766L237.088 150ZM219.219 141.585L235.102 145.325L243.788 132.234L229.146 118.208H219.467L219.219 141.585Z" fill="#2F4A46"/>
<path fill-rule="evenodd" clip-rule="evenodd" d="M248.5 131L230 114H265.34L267 120.263L248.5 131ZM239.962 117.803L248.974 126.079L262.256 118.25V117.803H239.962Z" fill="#2F4A46"/>
<path fill-rule="evenodd" clip-rule="evenodd" d="M182.877 131L164 120.04L165.471 114H202L182.877 131ZM168.658 118.474L182.387 126.303L191.703 118.026H168.658V118.474Z" fill="#2F4A46"/>
<path fill-rule="evenodd" clip-rule="evenodd" d="M215 170C205.619 170 196.718 168.339 188.299 164.78C188.058 164.78 187.337 164.543 186.856 164.305C170.017 157.187 156.546 143.898 149.33 127.051L149.089 126.576C148.929 126.418 148.849 126.102 148.849 125.627C147.646 122.78 146.684 119.932 145.722 116.61L145 114H285L284.278 116.61C283.477 119.932 282.514 122.938 281.392 125.627C281.151 126.339 281.151 126.576 280.911 127.051C273.694 143.898 260.223 157.187 242.904 164.305C242.904 164.543 242.423 164.543 242.182 164.78C233.362 168.26 224.301 170 215 170ZM152.938 125.39C159.914 141.526 172.663 153.865 188.78 160.746C189.021 160.746 189.261 160.983 189.502 160.983C205.859 167.627 224.382 167.627 240.258 161.221L241.461 160.746C257.577 153.865 270.326 141.288 277.062 125.39L277.543 124.441C278.345 122.384 279.066 120.249 279.708 118.034H150.533C151.174 120.249 151.896 122.384 152.698 124.441L152.938 125.39Z" fill="#2F4A46"/>
<path fill-rule="evenodd" clip-rule="evenodd" d="M215.12 170C205.772 170 196.903 168.338 188.513 164.775C188.034 164.775 187.554 164.538 187.315 164.3L183 162.163L188.273 160.263L215.12 151L247 161.925L243.165 164.3C242.845 164.458 242.526 164.617 242.206 164.775C233.417 168.258 224.388 170 215.12 170ZM194.026 162.638C207.929 167.15 222.79 167.15 236.213 162.638L215.12 155.275L194.026 162.638Z" fill="#2F4A46"/>
<path d="M193 166L188.893 165.039C188.169 165.039 187.685 164.799 187.444 164.559L187.686 164.078H187.444L187.202 163.358L175.365 138.855L150 126.844L151.691 123L152.416 123.481L178.506 135.732L193 166Z" fill="#2F4A46"/>
<path fill-rule="evenodd" clip-rule="evenodd" d="M1069.36 20.8001L1058 39.0339L1075.16 56.8001H1089.77L1090 26.1768L1069.36 20.8001ZM1063.1 38.3326L1071.22 25.2417L1086.06 28.9819L1085.83 52.5923H1076.78L1063.1 38.3326Z" fill="#2F4A46"/>
<path fill-rule="evenodd" clip-rule="evenodd" d="M1112.09 20.8001L1090 26.1768V56.8001H1105.88L1124 39.0339L1112.09 20.8001ZM1094.22 29.2157L1110.1 25.4754L1118.79 38.5663L1104.15 52.5923H1094.47L1094.22 29.2157Z" fill="#2F4A46"/>
<path fill-rule="evenodd" clip-rule="evenodd" d="M1123.5 39.8001L1105 56.8001H1140.34L1142 50.5369L1123.5 39.8001ZM1114.96 52.9975L1123.97 44.7211L1137.26 52.5501V52.9975H1114.96Z" fill="#2F4A46"/>
<path fill-rule="evenodd" clip-rule="evenodd" d="M1057.88 39.8001L1039 50.7606L1040.47 56.8001H1077L1057.88 39.8001ZM1043.66 52.3264L1057.39 44.4975L1066.7 52.7738H1043.66V52.3264Z" fill="#2F4A46"/>
<path fill-rule="evenodd" clip-rule="evenodd" d="M1090 0.80011C1080.62 0.80011 1071.72 2.46108 1063.3 6.0204C1063.06 6.0204 1062.34 6.25772 1061.86 6.49501C1045.02 13.6137 1031.55 26.9018 1024.33 43.7493L1024.09 44.2238C1023.93 44.382 1023.85 44.6984 1023.85 45.1729C1022.65 48.0204 1021.68 50.8679 1020.72 54.1899L1020 56.8001H1160L1159.28 54.1899C1158.48 50.8679 1157.51 47.8622 1156.39 45.1729C1156.15 44.4611 1156.15 44.2238 1155.91 43.7493C1148.69 26.9018 1135.22 13.6137 1117.9 6.49501C1117.9 6.25772 1117.42 6.25769 1117.18 6.0204C1108.36 2.54018 1099.3 0.80011 1090 0.80011ZM1027.94 45.4102C1034.91 29.2747 1047.66 16.9357 1063.78 10.0543C1064.02 10.0543 1064.26 9.81703 1064.5 9.81703C1080.86 3.17296 1099.38 3.17295 1115.26 9.57973L1116.46 10.0543C1132.58 16.9357 1145.33 29.5119 1152.06 45.4102L1152.54 46.3594C1153.34 48.4159 1154.07 50.5515 1154.71 52.7662H1025.53C1026.17 50.5515 1026.9 48.4159 1027.7 46.3594L1027.94 45.4102Z" fill="#2F4A46"/>
<path fill-rule="evenodd" clip-rule="evenodd" d="M1090.12 0.80011C1080.77 0.80011 1071.9 2.46257 1063.51 6.02507C1063.03 6.02507 1062.55 6.2626 1062.31 6.5001L1058 8.63758L1063.27 10.5376L1090.12 19.8001L1122 8.8751L1118.16 6.5001C1117.85 6.34176 1117.53 6.1834 1117.21 6.02507C1108.42 2.54173 1099.39 0.80011 1090.12 0.80011ZM1069.03 8.16262C1082.93 3.65012 1097.79 3.65012 1111.21 8.16262L1090.12 15.5251L1069.03 8.16262Z" fill="#2F4A46"/>
<path d="M1068 4.80011L1063.89 5.76099C1063.17 5.76099 1062.69 6.00124 1062.44 6.24147L1062.69 6.72194H1062.44L1062.2 7.44258L1050.37 31.9454L1025 43.9566L1026.69 47.8001L1027.42 47.3197L1053.51 35.0683L1068 4.80011Z" fill="#2F4A46"/>
<path fill-rule="evenodd" clip-rule="evenodd" d="M844.362 20.8001L833 39.0339L850.159 56.8001H864.768L865 26.1768L844.362 20.8001ZM838.101 38.3326L846.217 25.2417L861.058 28.9819L860.826 52.5923H851.783L838.101 38.3326Z" fill="#2F4A46"/>
<path fill-rule="evenodd" clip-rule="evenodd" d="M887.088 20.8001L865 26.1768V56.8001H880.883L899 39.0339L887.088 20.8001ZM869.219 29.2157L885.102 25.4754L893.788 38.5663L879.146 52.5923H869.467L869.219 29.2157Z" fill="#2F4A46"/>
<path fill-rule="evenodd" clip-rule="evenodd" d="M898.5 39.8001L880 56.8001H915.34L917 50.5369L898.5 39.8001ZM889.962 52.9975L898.974 44.7211L912.256 52.5501V52.9975H889.962Z" fill="#2F4A46"/>
<path fill-rule="evenodd" clip-rule="evenodd" d="M832.877 39.8001L814 50.7606L815.471 56.8001H852L832.877 39.8001ZM818.658 52.3264L832.387 44.4975L841.703 52.7738H818.658V52.3264Z" fill="#2F4A46"/>
<path fill-rule="evenodd" clip-rule="evenodd" d="M865 0.80011C855.619 0.80011 846.718 2.46108 838.299 6.0204C838.058 6.0204 837.337 6.25772 836.856 6.49501C820.017 13.6137 806.546 26.9018 799.33 43.7493L799.089 44.2238C798.929 44.382 798.849 44.6984 798.849 45.1729C797.646 48.0204 796.684 50.8679 795.722 54.1899L795 56.8001H935L934.278 54.1899C933.477 50.8679 932.514 47.8622 931.392 45.1729C931.151 44.4611 931.151 44.2238 930.911 43.7493C923.694 26.9018 910.223 13.6137 892.904 6.49501C892.904 6.25772 892.423 6.25769 892.182 6.0204C883.362 2.54018 874.301 0.80011 865 0.80011ZM802.938 45.4102C809.914 29.2747 822.663 16.9357 838.78 10.0543C839.021 10.0543 839.261 9.81703 839.502 9.81703C855.859 3.17296 874.382 3.17295 890.258 9.57973L891.461 10.0543C907.577 16.9357 920.326 29.5119 927.062 45.4102L927.543 46.3594C928.345 48.4159 929.066 50.5515 929.708 52.7662H800.533C801.174 50.5515 801.896 48.4159 802.698 46.3594L802.938 45.4102Z" fill="#2F4A46"/>
<path fill-rule="evenodd" clip-rule="evenodd" d="M865.12 0.80011C855.772 0.80011 846.903 2.46257 838.513 6.02507C838.034 6.02507 837.554 6.2626 837.315 6.5001L833 8.63758L838.273 10.5376L865.12 19.8001L897 8.8751L893.165 6.5001C892.845 6.34176 892.526 6.1834 892.206 6.02507C883.417 2.54173 874.388 0.80011 865.12 0.80011ZM844.026 8.16262C857.929 3.65012 872.79 3.65012 886.213 8.16262L865.12 15.5251L844.026 8.16262Z" fill="#2F4A46"/>
<path d="M843 4.80011L838.893 5.76099C838.169 5.76099 837.685 6.00124 837.444 6.24147L837.686 6.72194H837.444L837.202 7.44258L825.365 31.9454L800 43.9566L801.691 47.8001L802.416 47.3197L828.506 35.0683L843 4.80011Z" fill="#2F4A46"/>
<path fill-rule="evenodd" clip-rule="evenodd" d="M618.362 20.8001L607 39.0339L624.159 56.8001H638.768L639 26.1768L618.362 20.8001ZM612.101 38.3326L620.217 25.2417L635.058 28.9819L634.826 52.5923H625.783L612.101 38.3326Z" fill="#2F4A46"/>
<path fill-rule="evenodd" clip-rule="evenodd" d="M661.088 20.8001L639 26.1768V56.8001H654.883L673 39.0339L661.088 20.8001ZM643.219 29.2157L659.102 25.4754L667.788 38.5663L653.146 52.5923H643.467L643.219 29.2157Z" fill="#2F4A46"/>
<path fill-rule="evenodd" clip-rule="evenodd" d="M672.5 39.8001L654 56.8001H689.34L691 50.5369L672.5 39.8001ZM663.962 52.9975L672.974 44.7211L686.256 52.5501V52.9975H663.962Z" fill="#2F4A46"/>
<path fill-rule="evenodd" clip-rule="evenodd" d="M606.877 39.8001L588 50.7606L589.471 56.8001H626L606.877 39.8001ZM592.658 52.3264L606.387 44.4975L615.703 52.7738H592.658V52.3264Z" fill="#2F4A46"/>
<path fill-rule="evenodd" clip-rule="evenodd" d="M639 0.80011C629.619 0.80011 620.718 2.46108 612.299 6.0204C612.058 6.0204 611.337 6.25772 610.856 6.49501C594.017 13.6137 580.546 26.9018 573.33 43.7493L573.089 44.2238C572.929 44.382 572.849 44.6984 572.849 45.1729C571.646 48.0204 570.684 50.8679 569.722 54.1899L569 56.8001H709L708.278 54.1899C707.477 50.8679 706.514 47.8622 705.392 45.1729C705.151 44.4611 705.151 44.2238 704.911 43.7493C697.694 26.9018 684.223 13.6137 666.904 6.49501C666.904 6.25772 666.423 6.25769 666.182 6.0204C657.362 2.54018 648.301 0.80011 639 0.80011ZM576.938 45.4102C583.914 29.2747 596.663 16.9357 612.78 10.0543C613.021 10.0543 613.261 9.81703 613.502 9.81703C629.859 3.17296 648.382 3.17295 664.258 9.57973L665.461 10.0543C681.577 16.9357 694.326 29.5119 701.062 45.4102L701.543 46.3594C702.345 48.4159 703.066 50.5515 703.708 52.7662H574.533C575.174 50.5515 575.896 48.4159 576.698 46.3594L576.938 45.4102Z" fill="#2F4A46"/>
<path fill-rule="evenodd" clip-rule="evenodd" d="M639.12 0.80011C629.772 0.80011 620.903 2.46257 612.513 6.02507C612.034 6.02507 611.554 6.2626 611.315 6.5001L607 8.63758L612.273 10.5376L639.12 19.8001L671 8.8751L667.165 6.5001C666.845 6.34176 666.526 6.1834 666.206 6.02507C657.417 2.54173 648.388 0.80011 639.12 0.80011ZM618.026 8.16262C631.929 3.65012 646.79 3.65012 660.213 8.16262L639.12 15.5251L618.026 8.16262Z" fill="#2F4A46"/>
<path d="M617 4.80011L612.893 5.76099C612.169 5.76099 611.685 6.00124 611.444 6.24147L611.686 6.72194H611.444L611.202 7.44258L599.365 31.9454L574 43.9566L575.691 47.8001L576.416 47.3197L602.506 35.0683L617 4.80011Z" fill="#2F4A46"/>
<path fill-rule="evenodd" clip-rule="evenodd" d="M167.362 21.8001L156 40.0339L173.159 57.8001H187.768L188 27.1768L167.362 21.8001ZM161.101 39.3326L169.217 26.2417L184.058 29.9819L183.826 53.5923H174.783L161.101 39.3326Z" fill="#2F4A46"/>
<path fill-rule="evenodd" clip-rule="evenodd" d="M210.088 21.8001L188 27.1768V57.8001H203.883L222 40.0339L210.088 21.8001ZM192.219 30.2157L208.102 26.4754L216.788 39.5663L202.146 53.5923H192.467L192.219 30.2157Z" fill="#2F4A46"/>
<path fill-rule="evenodd" clip-rule="evenodd" d="M221.5 40.8001L203 57.8001H238.34L240 51.5369L221.5 40.8001ZM212.962 53.9975L221.974 45.7211L235.256 53.5501V53.9975H212.962Z" fill="#2F4A46"/>
<path fill-rule="evenodd" clip-rule="evenodd" d="M155.877 40.8001L137 51.7606L138.471 57.8001H175L155.877 40.8001ZM141.658 53.3264L155.387 45.4975L164.703 53.7738H141.658V53.3264Z" fill="#2F4A46"/>
<path fill-rule="evenodd" clip-rule="evenodd" d="M188 1.80011C178.619 1.80011 169.718 3.46108 161.299 7.0204C161.058 7.0204 160.337 7.25772 159.856 7.49501C143.017 14.6137 129.546 27.9018 122.33 44.7493L122.089 45.2238C121.929 45.382 121.849 45.6984 121.849 46.1729C120.646 49.0204 119.684 51.8679 118.722 55.1899L118 57.8001H258L257.278 55.1899C256.477 51.8679 255.514 48.8622 254.392 46.1729C254.151 45.4611 254.151 45.2238 253.911 44.7493C246.694 27.9018 233.223 14.6137 215.904 7.49501C215.904 7.25772 215.423 7.25769 215.182 7.0204C206.362 3.54018 197.301 1.80011 188 1.80011ZM125.938 46.4102C132.914 30.2747 145.663 17.9357 161.78 11.0543C162.021 11.0543 162.261 10.817 162.502 10.817C178.859 4.17296 197.382 4.17295 213.258 10.5797L214.461 11.0543C230.577 17.9357 243.326 30.5119 250.062 46.4102L250.543 47.3594C251.345 49.4159 252.066 51.5515 252.708 53.7662H123.533C124.174 51.5515 124.896 49.4159 125.698 47.3594L125.938 46.4102Z" fill="#2F4A46"/>
<path fill-rule="evenodd" clip-rule="evenodd" d="M188.12 1.80011C178.772 1.80011 169.903 3.46257 161.513 7.02507C161.034 7.02507 160.554 7.2626 160.315 7.5001L156 9.63758L161.273 11.5376L188.12 20.8001L220 9.8751L216.165 7.5001C215.845 7.34176 215.526 7.1834 215.206 7.02507C206.417 3.54173 197.388 1.80011 188.12 1.80011ZM167.026 9.16262C180.929 4.65012 195.79 4.65012 209.213 9.16262L188.12 16.5251L167.026 9.16262Z" fill="#2F4A46"/>
<path d="M166 5.80011L161.893 6.76099C161.169 6.76099 160.685 7.00124 160.444 7.24147L160.686 7.72194H160.444L160.202 8.44258L148.365 32.9454L123 44.9566L124.691 48.8001L125.416 48.3197L151.506 36.0683L166 5.80011Z" fill="#2F4A46"/>
<path fill-rule="evenodd" clip-rule="evenodd" d="M80.3622 134L69 152.234L86.1594 170H100.768L101 139.377L80.3622 134ZM74.1015 151.533L82.2174 138.442L97.0579 142.182L96.8261 165.792H87.7826L74.1015 151.533Z" fill="#2F4A46"/>
<path fill-rule="evenodd" clip-rule="evenodd" d="M123.088 134L101 139.377V170H116.883L135 152.234L123.088 134ZM105.219 142.416L121.102 138.675L129.788 151.766L115.146 165.792H105.467L105.219 142.416Z" fill="#2F4A46"/>
<path fill-rule="evenodd" clip-rule="evenodd" d="M134.5 153L116 170H151.34L153 163.737L134.5 153ZM125.962 166.197L134.974 157.921L148.256 165.75V166.197H125.962Z" fill="#2F4A46"/>
<path fill-rule="evenodd" clip-rule="evenodd" d="M68.8774 153L50 163.961L51.4709 170H88L68.8774 153ZM54.6581 165.526L68.3871 157.698L77.7032 165.974H54.6581V165.526Z" fill="#2F4A46"/>
<path fill-rule="evenodd" clip-rule="evenodd" d="M101 114C91.6186 114 82.7182 115.661 74.299 119.22C74.0584 119.22 73.3368 119.458 72.8557 119.695C56.0172 126.814 42.5464 140.102 35.3299 156.949L35.0894 157.424C34.929 157.582 34.8489 157.898 34.8489 158.373C33.6461 161.22 32.6838 164.068 31.7216 167.39L31 170H171L170.278 167.39C169.477 164.068 168.514 161.062 167.392 158.373C167.151 157.661 167.151 157.424 166.911 156.949C159.694 140.102 146.223 126.814 128.904 119.695C128.904 119.458 128.423 119.458 128.182 119.22C119.362 115.74 110.301 114 101 114ZM38.9381 158.61C45.9141 142.475 58.6633 130.136 74.7801 123.254C75.0206 123.254 75.2612 123.017 75.5017 123.017C91.8591 116.373 110.382 116.373 126.258 122.78L127.461 123.254C143.577 130.136 156.326 142.712 163.062 158.61L163.543 159.559C164.345 161.616 165.066 163.752 165.708 165.966H36.5326C37.1741 163.752 37.8958 161.616 38.6976 159.559L38.9381 158.61Z" fill="#2F4A46"/>
<path fill-rule="evenodd" clip-rule="evenodd" d="M101.12 114C91.7716 114 82.9026 115.663 74.5131 119.225C74.0337 119.225 73.5543 119.463 73.3146 119.7L69 121.838L74.2734 123.738L101.12 133L133 122.075L129.165 119.7C128.845 119.542 128.526 119.383 128.206 119.225C119.417 115.742 110.388 114 101.12 114ZM80.0262 121.363C93.9288 116.85 108.79 116.85 122.213 121.363L101.12 128.725L80.0262 121.363Z" fill="#2F4A46"/>
<path d="M79 118L74.8934 118.961C74.1687 118.961 73.6854 119.201 73.4438 119.441L73.6855 119.922H73.4438L73.2023 120.643L61.3652 145.145L36 157.157L37.691 161L38.4157 160.52L64.5056 148.268L79 118Z" fill="#2F4A46"/>
<path fill-rule="evenodd" clip-rule="evenodd" d="M301.362 134L290 152.234L307.159 170H321.768L322 139.377L301.362 134ZM295.101 151.533L303.217 138.442L318.058 142.182L317.826 165.792H308.783L295.101 151.533Z" fill="#2F4A46"/>
<path fill-rule="evenodd" clip-rule="evenodd" d="M289.877 153L271 163.961L272.471 170H309L289.877 153ZM275.658 165.526L289.387 157.698L298.703 165.974H275.658V165.526Z" fill="#2F4A46"/>
<path fill-rule="evenodd" clip-rule="evenodd" d="M315.12 114C305.772 114 296.903 115.663 288.513 119.225C288.034 119.225 287.554 119.463 287.315 119.7L283 121.838L288.273 123.738L315.12 133L347 122.075L343.165 119.7C342.845 119.542 342.526 119.383 342.206 119.225C333.417 115.742 324.388 114 315.12 114ZM294.026 121.363C307.929 116.85 322.79 116.85 336.213 121.363L315.12 128.725L294.026 121.363Z" fill="#2F4A46"/>
<path d="M300 118L295.893 118.961C295.169 118.961 294.685 119.201 294.444 119.441L294.686 119.922H294.444L294.202 120.643L282.365 145.145L257 157.157L258.691 161L259.416 160.52L285.506 148.268L300 118Z" fill="#2F4A46"/>
<path fill-rule="evenodd" clip-rule="evenodd" d="M391.362 21.8001L380 40.0339L397.159 57.8001H411.768L412 27.1768L391.362 21.8001ZM385.101 39.3326L393.217 26.2417L408.058 29.9819L407.826 53.5923H398.783L385.101 39.3326Z" fill="#2F4A46"/>
<path fill-rule="evenodd" clip-rule="evenodd" d="M434.088 21.8001L412 27.1768V57.8001H427.883L446 40.0339L434.088 21.8001ZM416.219 30.2157L432.102 26.4754L440.788 39.5663L426.146 53.5923H416.467L416.219 30.2157Z" fill="#2F4A46"/>
<path fill-rule="evenodd" clip-rule="evenodd" d="M445.5 40.8001L427 57.8001H462.34L464 51.5369L445.5 40.8001ZM436.962 53.9975L445.974 45.7211L459.256 53.5501V53.9975H436.962Z" fill="#2F4A46"/>
<path fill-rule="evenodd" clip-rule="evenodd" d="M379.877 40.8001L361 51.7606L362.471 57.8001H399L379.877 40.8001ZM365.658 53.3264L379.387 45.4975L388.703 53.7738H365.658V53.3264Z" fill="#2F4A46"/>
<path fill-rule="evenodd" clip-rule="evenodd" d="M412 1.80011C402.619 1.80011 393.718 3.46108 385.299 7.0204C385.058 7.0204 384.337 7.25772 383.856 7.49501C367.017 14.6137 353.546 27.9018 346.33 44.7493L346.089 45.2238C345.929 45.382 345.849 45.6984 345.849 46.1729C344.646 49.0204 343.684 51.8679 342.722 55.1899L342 57.8001H482L481.278 55.1899C480.477 51.8679 479.514 48.8622 478.392 46.1729C478.151 45.4611 478.151 45.2238 477.911 44.7493C470.694 27.9018 457.223 14.6137 439.904 7.49501C439.904 7.25772 439.423 7.25769 439.182 7.0204C430.362 3.54018 421.301 1.80011 412 1.80011ZM349.938 46.4102C356.914 30.2747 369.663 17.9357 385.78 11.0543C386.021 11.0543 386.261 10.817 386.502 10.817C402.859 4.17296 421.382 4.17295 437.258 10.5797L438.461 11.0543C454.577 17.9357 467.326 30.5119 474.062 46.4102L474.543 47.3594C475.345 49.4159 476.066 51.5515 476.708 53.7662H347.533C348.174 51.5515 348.896 49.4159 349.698 47.3594L349.938 46.4102Z" fill="#2F4A46"/>
<path fill-rule="evenodd" clip-rule="evenodd" d="M412.12 1.80011C402.772 1.80011 393.903 3.46257 385.513 7.02507C385.034 7.02507 384.554 7.2626 384.315 7.5001L380 9.63758L385.273 11.5376L412.12 20.8001L444 9.8751L440.165 7.5001C439.845 7.34176 439.526 7.1834 439.206 7.02507C430.417 3.54173 421.388 1.80011 412.12 1.80011ZM391.026 9.16262C404.929 4.65012 419.79 4.65012 433.213 9.16262L412.12 16.5251L391.026 9.16262Z" fill="#2F4A46"/>
<path d="M390 5.80011L385.893 6.76099C385.169 6.76099 384.685 7.00124 384.444 7.24147L384.686 7.72194H384.444L384.202 8.44258L372.365 32.9454L347 44.9566L348.691 48.8001L349.416 48.3197L375.506 36.0683L390 5.80011Z" fill="#2F4A46"/>
<path fill-rule="evenodd" clip-rule="evenodd" d="M955.362 36.8001L944 18.5663L961.159 0.80011H975.768L976 31.4235L955.362 36.8001ZM949.101 19.2677L957.217 32.3585L972.058 28.6183L971.826 5.00794H962.783L949.101 19.2677Z" fill="#2F4A46"/>
<path fill-rule="evenodd" clip-rule="evenodd" d="M998.088 36.8001L976 31.4235V0.80011H991.883L1010 18.5663L998.088 36.8001ZM980.219 28.3845L996.102 32.1248L1004.79 19.0339L990.146 5.00794H980.467L980.219 28.3845Z" fill="#2F4A46"/>
<path fill-rule="evenodd" clip-rule="evenodd" d="M1009.5 17.8001L991 0.80011H1026.34L1028 7.0633L1009.5 17.8001ZM1000.96 4.60277L1009.97 12.8791L1023.26 5.05016V4.60277H1000.96Z" fill="#2F4A46"/>
<path fill-rule="evenodd" clip-rule="evenodd" d="M943.877 17.8001L925 6.83961L926.471 0.80011H963L943.877 17.8001ZM929.658 5.27379L943.387 13.1027L952.703 4.82646H929.658V5.27379Z" fill="#2F4A46"/>
<path fill-rule="evenodd" clip-rule="evenodd" d="M976 56.8001C966.619 56.8001 957.718 55.1391 949.299 51.5798C949.058 51.5798 948.337 51.3425 947.856 51.1052C931.017 43.9866 917.546 30.6984 910.33 13.851L910.089 13.3764C909.929 13.2182 909.849 12.9019 909.849 12.4273C908.646 9.57983 907.684 6.73233 906.722 3.41029L906 0.80011H1046L1045.28 3.41029C1044.48 6.73233 1043.51 9.73802 1042.39 12.4273C1042.15 13.1391 1042.15 13.3764 1041.91 13.851C1034.69 30.6984 1021.22 43.9866 1003.9 51.1052C1003.9 51.3425 1003.42 51.3425 1003.18 51.5798C994.362 55.06 985.301 56.8001 976 56.8001ZM913.938 12.19C920.914 28.3256 933.663 40.6645 949.78 47.5459C950.021 47.5459 950.261 47.7832 950.502 47.7832C966.859 54.4273 985.382 54.4273 1001.26 48.0205L1002.46 47.5459C1018.58 40.6645 1031.33 28.0883 1038.06 12.19L1038.54 11.2408C1039.34 9.18435 1040.07 7.04872 1040.71 4.83404H911.533C912.174 7.04872 912.896 9.18435 913.698 11.2408L913.938 12.19Z" fill="#2F4A46"/>
<path fill-rule="evenodd" clip-rule="evenodd" d="M976.12 56.8001C966.772 56.8001 957.903 55.1377 949.513 51.5752C949.034 51.5752 948.554 51.3376 948.315 51.1001L944 48.9626L949.273 47.0626L976.12 37.8001L1008 48.7251L1004.16 51.1001C1003.85 51.2585 1003.53 51.4168 1003.21 51.5752C994.417 55.0585 985.388 56.8001 976.12 56.8001ZM955.026 49.4376C968.929 53.9501 983.79 53.9501 997.213 49.4376L976.12 42.0752L955.026 49.4376Z" fill="#2F4A46"/>
<path d="M954 52.8001L949.893 51.8392C949.169 51.8392 948.685 51.599 948.444 51.3588L948.686 50.8783H948.444L948.202 50.1576L936.365 25.6548L911 13.6436L912.691 9.80011L913.416 10.2805L939.506 22.5319L954 52.8001Z" fill="#2F4A46"/>
<path fill-rule="evenodd" clip-rule="evenodd" d="M504.362 37.8001L493 19.5663L510.159 1.80011H524.768L525 32.4235L504.362 37.8001ZM498.101 20.2677L506.217 33.3585L521.058 29.6183L520.826 6.00794H511.783L498.101 20.2677Z" fill="#2F4A46"/>
<path fill-rule="evenodd" clip-rule="evenodd" d="M547.088 37.8001L525 32.4235V1.80011H540.883L559 19.5663L547.088 37.8001ZM529.219 29.3845L545.102 33.1248L553.788 20.0339L539.146 6.00794H529.467L529.219 29.3845Z" fill="#2F4A46"/>
<path fill-rule="evenodd" clip-rule="evenodd" d="M558.5 18.8001L540 1.80011H575.34L577 8.0633L558.5 18.8001ZM549.962 5.60277L558.974 13.8791L572.256 6.05016V5.60277H549.962Z" fill="#2F4A46"/>
<path fill-rule="evenodd" clip-rule="evenodd" d="M492.877 18.8001L474 7.83961L475.471 1.80011H512L492.877 18.8001ZM478.658 6.27379L492.387 14.1027L501.703 5.82646H478.658V6.27379Z" fill="#2F4A46"/>
<path fill-rule="evenodd" clip-rule="evenodd" d="M525 57.8001C515.619 57.8001 506.718 56.1391 498.299 52.5798C498.058 52.5798 497.337 52.3425 496.856 52.1052C480.017 44.9866 466.546 31.6984 459.33 14.851L459.089 14.3764C458.929 14.2182 458.849 13.9019 458.849 13.4273C457.646 10.5798 456.684 7.73233 455.722 4.41029L455 1.80011H595L594.278 4.41029C593.477 7.73233 592.514 10.738 591.392 13.4273C591.151 14.1391 591.151 14.3764 590.911 14.851C583.694 31.6984 570.223 44.9866 552.904 52.1052C552.904 52.3425 552.423 52.3425 552.182 52.5798C543.362 56.06 534.301 57.8001 525 57.8001ZM462.938 13.19C469.914 29.3256 482.663 41.6645 498.78 48.5459C499.021 48.5459 499.261 48.7832 499.502 48.7832C515.859 55.4273 534.382 55.4273 550.258 49.0205L551.461 48.5459C567.577 41.6645 580.326 29.0883 587.062 13.19L587.543 12.2408C588.345 10.1843 589.066 8.04872 589.708 5.83404H460.533C461.174 8.04872 461.896 10.1843 462.698 12.2408L462.938 13.19Z" fill="#2F4A46"/>
<path fill-rule="evenodd" clip-rule="evenodd" d="M525.12 57.8001C515.772 57.8001 506.903 56.1377 498.513 52.5752C498.034 52.5752 497.554 52.3376 497.315 52.1001L493 49.9626L498.273 48.0626L525.12 38.8001L557 49.7251L553.165 52.1001C552.845 52.2585 552.526 52.4168 552.206 52.5752C543.417 56.0585 534.388 57.8001 525.12 57.8001ZM504.026 50.4376C517.929 54.9501 532.79 54.9501 546.213 50.4376L525.12 43.0752L504.026 50.4376Z" fill="#2F4A46"/>
<path d="M503 53.8001L498.893 52.8392C498.169 52.8392 497.685 52.599 497.444 52.3588L497.686 51.8783H497.444L497.202 51.1576L485.365 26.6548L460 14.6436L461.691 10.8001L462.416 11.2805L488.506 23.5319L503 53.8001Z" fill="#2F4A46"/>
<path fill-rule="evenodd" clip-rule="evenodd" d="M53.3622 37.8001L42 19.5663L59.1594 1.80011H73.7682L74 32.4235L53.3622 37.8001ZM47.1015 20.2677L55.2174 33.3585L70.0579 29.6183L69.8261 6.00794H60.7826L47.1015 20.2677Z" fill="#2F4A46"/>
<path fill-rule="evenodd" clip-rule="evenodd" d="M96.0876 37.8001L74 32.4235V1.80011H89.8832L108 19.5663L96.0876 37.8001ZM78.2189 29.3845L94.1022 33.1248L102.788 20.0339L88.1459 6.00794H78.4671L78.2189 29.3845Z" fill="#2F4A46"/>
<path fill-rule="evenodd" clip-rule="evenodd" d="M107.5 18.8001L89 1.80011H124.34L126 8.0633L107.5 18.8001ZM98.9615 5.60277L107.974 13.8791L121.256 6.05016V5.60277H98.9615Z" fill="#2F4A46"/>
<path fill-rule="evenodd" clip-rule="evenodd" d="M41.8774 18.8001L23 7.83961L24.4709 1.80011H61L41.8774 18.8001ZM27.6581 6.27379L41.3871 14.1027L50.7032 5.82646H27.6581V6.27379Z" fill="#2F4A46"/>
<path fill-rule="evenodd" clip-rule="evenodd" d="M74.0001 57.8001C64.6186 57.8001 55.7182 56.1391 47.299 52.5798C47.0584 52.5798 46.3368 52.3425 45.8557 52.1052C29.0172 44.9866 15.5464 31.6984 8.32987 14.851L8.08938 14.3764C7.92901 14.2182 7.84888 13.9019 7.84888 13.4273C6.64614 10.5798 5.68382 7.73233 4.72162 4.41029L4 1.80011H144L143.278 4.41029C142.477 7.73233 141.514 10.738 140.392 13.4273C140.151 14.1391 140.151 14.3764 139.911 14.851C132.694 31.6984 119.223 44.9866 101.904 52.1052C101.904 52.3425 101.423 52.3425 101.182 52.5798C92.362 56.06 83.3013 57.8001 74.0001 57.8001ZM11.9381 13.19C18.9141 29.3256 31.6633 41.6645 47.7801 48.5459C48.0206 48.5459 48.2612 48.7832 48.5017 48.7832C64.8591 55.4273 83.3815 55.4273 99.2578 49.0205L100.461 48.5459C116.577 41.6645 129.326 29.0883 136.062 13.19L136.543 12.2408C137.345 10.1843 138.066 8.04872 138.708 5.83404H9.53262C10.1741 8.04872 10.8958 10.1843 11.6976 12.2408L11.9381 13.19Z" fill="#2F4A46"/>
<path fill-rule="evenodd" clip-rule="evenodd" d="M74.1199 57.8001C64.7716 57.8001 55.9026 56.1377 47.5131 52.5752C47.0337 52.5752 46.5543 52.3376 46.3146 52.1001L42 49.9626L47.2734 48.0626L74.1199 38.8001L106 49.7251L102.165 52.1001C101.845 52.2585 101.526 52.4168 101.206 52.5752C92.417 56.0585 83.3883 57.8001 74.1199 57.8001ZM53.0262 50.4376C66.9288 54.9501 81.7903 54.9501 95.2135 50.4376L74.1199 43.0752L53.0262 50.4376Z" fill="#2F4A46"/>
<path d="M52 53.8001L47.8934 52.8392C47.1687 52.8392 46.6854 52.599 46.4438 52.3588L46.6855 51.8783H46.4438L46.2023 51.1576L34.3652 26.6548L9 14.6436L10.691 10.8001L11.4157 11.2805L37.5056 23.5319L52 53.8001Z" fill="#2F4A46"/>
<path fill-rule="evenodd" clip-rule="evenodd" d="M36.1317 120.733L17.8677 132.047L0.14725 114.84L0.186172 100.232L30.81 100.081L36.1317 120.733ZM18.5826 126.947L31.695 118.866L27.9944 104.016L4.38348 104.185L4.35939 113.228L18.5826 126.947Z" fill="#2F4A46"/>
<path fill-rule="evenodd" clip-rule="evenodd" d="M36.2452 78.0082L30.8098 100.081L0.186523 99.9998L0.228841 84.1166L18.0433 66.0472L36.2452 78.0082ZM27.7821 95.8544L31.5647 79.9811L18.4969 71.2601L4.43203 85.8651L4.40624 95.5438L27.7821 95.8544Z" fill="#2F4A46"/>
<path fill-rule="evenodd" clip-rule="evenodd" d="M17.276 66.5452L0.226746 84.9998L0.320902 49.6602L6.5885 48.0166L17.276 66.5452ZM4.05593 75.0484L12.3562 66.0578L4.56272 52.7548L4.11533 52.7536L4.05593 75.0484Z" fill="#2F4A46"/>
<path fill-rule="evenodd" clip-rule="evenodd" d="M17.1011 132.168L6.09038 151.016L0.0548223 149.529L0.152147 113L17.1011 132.168ZM4.53698 146.353L12.4025 132.645L4.15105 123.307L4.08965 146.352L4.53698 146.353Z" fill="#2F4A46"/>
<path fill-rule="evenodd" clip-rule="evenodd" d="M56.1863 100.149C56.1613 109.53 54.4766 118.426 50.8949 126.836C50.8942 127.077 50.655 127.798 50.4164 128.278C43.253 145.097 29.929 158.533 13.0623 165.704L12.5872 165.944C12.4285 166.104 12.112 166.183 11.6374 166.182C8.78674 167.377 5.93668 168.332 2.6121 169.285L0 170L0.373004 30L2.98125 30.7286C6.30114 31.5393 9.30426 32.5095 11.9905 33.6392C12.7017 33.8817 12.939 33.8823 13.4129 34.1241C30.2411 41.3855 43.4933 54.8916 50.5658 72.2301C50.8031 72.2307 50.8018 72.7118 51.0384 72.953C54.4952 81.7824 56.2111 90.8477 56.1863 100.149ZM11.411 162.092C27.5651 155.159 39.938 142.443 46.8623 126.344C46.8629 126.104 47.1008 125.864 47.1015 125.623C53.7891 109.284 53.8385 90.7612 47.474 74.8679L47.0026 73.6639C40.1642 57.5287 27.622 44.7462 11.7417 37.9684L10.7938 37.4848C8.73948 36.6775 6.60579 35.9502 4.39282 35.3029L4.04865 164.478C6.26504 163.842 8.40258 163.126 10.4612 162.33L11.411 162.092Z" fill="#2F4A46"/>
<path fill-rule="evenodd" clip-rule="evenodd" d="M56.1869 100.029C56.162 109.377 54.4759 118.242 50.8911 126.622C50.8898 127.101 50.651 127.58 50.4128 127.819L48.2639 132.128L46.3779 126.85L37.187 99.9785L48.1969 68.1276L50.5616 71.9692C50.7191 72.2892 50.8766 72.6092 51.0341 72.9292C54.494 81.7274 56.2116 90.7607 56.1869 100.029ZM48.7682 121.103C53.3177 107.213 53.3573 92.3512 48.8806 78.916L41.462 99.9899L48.7682 121.103Z" fill="#2F4A46"/>
<path d="M52.128 122.138L51.1561 126.242C51.1542 126.967 50.9127 127.45 50.6718 127.691L50.192 127.448L50.1913 127.689L49.4701 127.929L24.9358 139.701L12.8571 165.034L9.01806 163.333L9.50039 162.609L21.8213 136.552L52.128 122.138Z" fill="#2F4A46"/>
</svg>
