<svg width="444" height="1256" viewBox="0 0 444 1256" fill="none" xmlns="http://www.w3.org/2000/svg">
<path d="M181.62 1071.24L-737.921 183.002L-620.768 61.7204L-371.627 302.38L-410.874 343.01L-597.254 162.974L-635.914 202.997L278.873 1086.64C246.381 1082.22 213.89 1077.79 181.62 1071.24Z" fill="#B28E68"/>
<path fill-rule="evenodd" clip-rule="evenodd" d="M142.138 980.884L121.305 986.133L121.338 1010.83L131.86 1020.97L153.272 999.073L142.138 980.884ZM125.466 989.167L140.393 985.37L148.486 998.359L131.94 1015.2L125.427 1008.93L125.466 989.167Z" fill="#B89672"/>
<path fill-rule="evenodd" clip-rule="evenodd" d="M172.91 1010.52L153.272 999.073L132.027 1021.13L143.466 1032.15L168.84 1031.92L172.91 1010.52ZM154.202 1004.19L168.236 1012.51L165.41 1027.97L145.134 1027.91L138.163 1021.2L154.202 1004.19Z" fill="#B89672"/>
<path fill-rule="evenodd" clip-rule="evenodd" d="M167.948 1032.13L142.83 1031.54L168.283 1056.05L173.823 1052.69L167.948 1032.13ZM152.643 1035.71L164.876 1036L169.01 1050.85L168.7 1051.17L152.643 1035.71Z" fill="#B89672"/>
<path fill-rule="evenodd" clip-rule="evenodd" d="M120.685 986.6L99.4856 981.398L96.3551 986.768L122.664 1012.11L120.685 986.6ZM101.754 985.757L117.073 989.643L118.041 1002.07L101.444 986.08L101.754 985.757Z" fill="#B89672"/>
<path fill-rule="evenodd" clip-rule="evenodd" d="M170.877 980.797C164.12 974.288 156.557 969.31 148.024 966.032C147.851 965.866 147.167 965.536 146.656 965.373C129.59 958.818 110.669 959.043 93.7839 966.171L93.2815 966.346C93.0563 966.349 92.7791 966.521 92.4498 966.863C89.6082 968.079 86.9397 969.462 83.942 971.187L81.6115 972.567L182.442 1069.69L183.733 1067.31C185.461 1064.36 186.853 1061.53 187.91 1058.81C188.23 1058.13 188.395 1057.96 188.551 1057.45C195.041 1040.31 194.558 1021.4 187.023 1004.26C187.187 1004.09 186.841 1003.75 186.832 1003.41C182.894 994.788 177.576 987.249 170.877 980.797ZM95.2304 969.87C111.449 963.089 129.191 963.047 145.572 969.272C145.746 969.438 146.084 969.434 146.257 969.601C162.647 976.164 175.987 989.014 182.977 1004.64L183.514 1005.82C190.348 1021.96 190.805 1039.86 184.627 1055.98L184.315 1057C183.466 1059.04 182.504 1061.07 181.429 1063.11L88.3947 973.499C90.3931 972.349 92.3945 971.312 94.3987 970.387L95.2304 969.87Z" fill="#B89672"/>
<path fill-rule="evenodd" clip-rule="evenodd" d="M170.963 980.88C164.23 974.394 156.689 969.439 148.175 966.184C147.83 965.852 147.32 965.69 146.983 965.695L142.392 964.241L144.872 969.268L157.782 994.564L188.322 1008.81L187.207 1004.44C187.087 1004.11 186.967 1003.77 186.846 1003.43C182.933 994.828 177.638 987.31 170.963 980.88ZM150.663 971.549C163.807 977.943 174.51 988.254 181.047 1000.82L160.748 991.485L150.663 971.549Z" fill="#B89672"/>
<path d="M152.257 968.415L148.633 966.258C148.111 965.755 147.596 965.593 147.255 965.599L147.096 966.112L146.922 965.945L146.248 966.296L120.724 975.731L94.1227 966.785L92.6742 970.727L93.5294 970.883L120.819 980.159L152.257 968.415Z" fill="#B89672"/>
<path fill-rule="evenodd" clip-rule="evenodd" d="M45.0521 911.544L49.5184 890.53L74.2021 889.638L84.7237 899.773L63.6458 921.989L45.0521 911.544ZM52.706 894.574L49.4696 909.633L62.7527 917.234L78.9654 900.069L72.452 893.795L52.706 894.574Z" fill="#B89672"/>
<path fill-rule="evenodd" clip-rule="evenodd" d="M75.8237 941.185L63.6458 921.99L84.8906 899.934L96.33 910.953L97.0529 936.317L75.8237 941.185ZM68.7926 922.728L77.6373 936.44L92.975 933.038L92.1597 912.778L85.1888 906.064L68.7926 922.728Z" fill="#B89672"/>
<path fill-rule="evenodd" clip-rule="evenodd" d="M97.2243 935.418L95.6939 910.34L121.146 934.857L117.997 940.52L97.2243 935.418ZM100.23 919.99L100.98 932.203L115.977 935.779L116.288 935.457L100.23 919.99Z" fill="#B89672"/>
<path fill-rule="evenodd" clip-rule="evenodd" d="M49.9617 889.893L43.9696 868.903L49.2188 865.573L75.5278 890.915L49.9617 889.893ZM48.4107 871.006L52.8673 886.169L65.3186 886.672L48.721 870.684L48.4107 871.006Z" fill="#B89672"/>
<path fill-rule="evenodd" clip-rule="evenodd" d="M46.0409 940.266C39.2842 933.758 34.0263 926.387 30.4318 917.983C30.2586 917.816 29.9035 917.144 29.7216 916.64C22.5327 899.831 22.0494 880.915 28.5397 863.775L28.6957 863.266C28.69 863.041 28.8518 862.758 29.181 862.416C30.2902 859.531 31.5725 856.812 33.1842 853.752L34.4753 851.372L135.306 948.496L132.976 949.875C130.093 951.712 127.315 953.209 124.641 954.367C123.974 954.713 123.809 954.884 123.307 955.059C106.422 962.186 87.501 962.411 70.0886 955.523C69.9239 955.694 69.5774 955.36 69.2396 955.364C60.4727 951.752 52.7399 946.719 46.0409 940.266ZM32.2908 865.082C26.121 881.543 26.7431 899.274 33.5769 915.411C33.7501 915.578 33.7587 915.916 33.932 916.083C41.1036 932.216 54.4438 945.066 70.3229 951.465L71.5184 951.958C87.8999 958.183 105.807 957.97 121.687 951.192L122.692 950.843C124.696 949.918 126.698 948.88 128.696 947.73L35.6614 858.115C34.587 860.155 33.6252 862.194 32.776 864.232L32.2908 865.082Z" fill="#B89672"/>
<path fill-rule="evenodd" clip-rule="evenodd" d="M46.1272 940.349C39.3944 933.864 34.1601 926.514 30.5893 918.128C30.244 917.795 30.0635 917.292 30.0556 916.954L28.4311 912.422L33.5472 914.712L59.3084 926.665L74.6899 956.65L70.28 955.7C69.94 955.592 69.6 955.485 69.26 955.377C60.5134 951.789 52.8025 946.779 46.1272 940.349ZM36.0428 920.413C42.9252 933.308 53.6288 943.618 66.427 949.68L56.3426 929.744L36.0428 920.413Z" fill="#B89672"/>
<path d="M32.971 922.123L30.68 918.582C30.158 918.079 29.9766 917.571 29.9693 917.23L30.4767 917.052L30.3026 916.884L30.6286 916.198L39.102 890.338L29.1662 864.091L33.0506 862.496L33.2392 863.344L43.5303 890.268L32.971 922.123Z" fill="#B89672"/>
<path fill-rule="evenodd" clip-rule="evenodd" d="M5.81857 849.575L-13.8194 838.124L-35.0642 860.179L-23.6248 871.198L1.74852 870.971L5.81857 849.575ZM-12.8891 843.239L1.14518 851.565L-1.68063 867.019L-21.9569 866.963L-28.9277 860.248L-12.8891 843.239Z" fill="#B89672"/>
<path fill-rule="evenodd" clip-rule="evenodd" d="M0.856798 871.176L-24.2609 870.586L1.19147 895.103L6.7323 891.743L0.856798 871.176ZM-14.4483 874.758L-2.21547 875.05L1.91927 889.903L1.60889 890.225L-14.4483 874.758Z" fill="#B89672"/>
<path fill-rule="evenodd" clip-rule="evenodd" d="M3.78563 819.847C-2.97107 813.339 -10.5336 808.36 -19.0666 805.083C-19.2399 804.916 -19.9242 804.587 -20.4353 804.424C-37.5013 797.869 -56.4219 798.094 -73.3072 805.222L-73.8096 805.396C-74.0348 805.399 -74.312 805.571 -74.6412 805.913C-77.4829 807.13 -80.1514 808.513 -83.1491 810.238L-85.4796 811.617L15.3512 908.742L16.6423 906.361C18.3694 903.412 19.7616 900.58 20.8188 897.864C21.1394 897.185 21.3039 897.014 21.4599 896.505C27.9503 879.365 27.467 860.449 19.9316 843.307C20.0962 843.136 19.7498 842.802 19.7412 842.464C15.8031 833.839 10.4846 826.3 3.78563 819.847ZM-71.8607 808.921C-55.6425 802.139 -37.9002 802.097 -21.5186 808.322C-21.3454 808.489 -21.0075 808.485 -20.8343 808.652C-4.44405 815.215 8.89618 828.064 15.8859 843.693L16.4229 844.869C23.2567 861.006 23.7141 878.908 17.5357 895.031L17.2237 896.049C16.3746 898.086 15.4127 900.125 14.3382 902.165L-78.6964 812.55C-76.6979 811.4 -74.6966 810.363 -72.6924 809.438L-71.8607 808.921Z" fill="#B89672"/>
<path fill-rule="evenodd" clip-rule="evenodd" d="M3.87193 819.93C-2.86091 813.445 -10.4019 808.489 -18.9156 805.235C-19.2609 804.902 -19.771 804.741 -20.1084 804.746L-24.6987 803.292L-22.2188 808.319L-9.30925 833.614L21.2306 847.863L20.116 843.492C19.9957 843.156 19.8754 842.82 19.7551 842.484C15.8416 833.878 10.5472 826.36 3.87193 819.93ZM-16.4279 810.599C-3.28445 816.994 7.4191 827.304 13.9562 839.867L-6.34345 830.536L-16.4279 810.599Z" fill="#B89672"/>
<path d="M68.3221 1159.1L-761.887 359.154L-645.429 238.593L-397.007 478.558L-435.559 518.468L-621.94 338.432L-661.295 379.175L-660.934 379.522L148.879 1159.1C116.322 1159.1 101.756 1159.1 68.3221 1159.1Z" stroke="#EADBCB"/>
<path d="M362.872 1049.22C333.438 1047.29 304.028 1045.34 274.957 1041.45L-520.765 272.813L-404.307 152.251L-189.303 359.935L-227.855 399.846L-389.236 243.959L-428.591 284.7L362.872 1049.22Z" stroke="#315651"/>
</svg>
