<svg width="1332" height="1304" viewBox="0 0 1332 1304" fill="none" xmlns="http://www.w3.org/2000/svg">
<path d="M311.002 232.362L1230.54 1120.6L1113.39 1241.88L864.249 1001.22L903.495 960.592L1108.02 1156.66L1146.68 1116.64L213.749 216.959C246.24 221.383 278.731 225.807 311.002 232.362Z" fill="#B28E68"/>
<path fill-rule="evenodd" clip-rule="evenodd" d="M350.482 322.718L371.315 317.468L371.281 292.768L360.76 282.633L339.348 304.528L350.482 322.718ZM367.154 314.434L352.227 318.232L344.133 305.242L360.68 288.398L367.193 294.672L367.154 314.434Z" fill="#B89672"/>
<path fill-rule="evenodd" clip-rule="evenodd" d="M319.71 293.077L339.348 304.528L360.593 282.472L349.154 271.453L323.78 271.68L319.71 293.077ZM338.418 299.412L324.384 291.087L327.209 275.633L347.486 275.689L354.456 282.404L338.418 299.412Z" fill="#B89672"/>
<path fill-rule="evenodd" clip-rule="evenodd" d="M324.672 271.476L349.79 272.066L324.337 247.549L318.796 250.908L324.672 271.476ZM339.977 267.894L327.744 267.602L323.609 252.749L323.92 252.427L339.977 267.894Z" fill="#B89672"/>
<path fill-rule="evenodd" clip-rule="evenodd" d="M371.935 317.001L393.134 322.203L396.265 316.833L369.956 291.491L371.935 317.001ZM390.866 317.844L375.546 313.958L374.578 301.534L391.176 317.522L390.866 317.844Z" fill="#B89672"/>
<path fill-rule="evenodd" clip-rule="evenodd" d="M321.743 322.805C328.5 329.313 336.062 334.291 344.595 337.569C344.769 337.735 345.453 338.065 345.964 338.228C363.03 344.783 381.951 344.558 398.836 337.43L399.338 337.255C399.564 337.253 399.841 337.08 400.17 336.738C403.012 335.522 405.68 334.139 408.678 332.414L411.008 331.034L310.178 233.91L308.886 236.291C307.159 239.239 305.767 242.072 304.71 244.787C304.389 245.467 304.225 245.638 304.069 246.146C297.578 263.287 298.062 282.202 305.597 299.345C305.432 299.516 305.779 299.85 305.788 300.187C309.726 308.813 315.044 316.352 321.743 322.805ZM397.389 333.731C381.171 340.512 363.429 340.554 347.047 334.329C346.874 334.163 346.536 334.167 346.363 334C329.973 327.437 316.633 314.587 309.643 298.959L309.106 297.783C302.272 281.646 301.815 263.743 307.993 247.62L308.305 246.603C309.154 244.566 310.116 242.527 311.191 240.487L404.225 330.102C402.227 331.252 400.225 332.289 398.221 333.214L397.389 333.731Z" fill="#B89672"/>
<path fill-rule="evenodd" clip-rule="evenodd" d="M321.657 322.721C328.39 329.207 335.931 334.162 344.444 337.417C344.79 337.749 345.3 337.911 345.637 337.906L350.227 339.36L347.747 334.333L334.838 309.037L304.298 294.789L305.413 299.16C305.533 299.496 305.653 299.832 305.774 300.167C309.687 308.774 314.981 316.291 321.657 322.721ZM341.957 332.052C328.813 325.658 318.11 315.347 311.572 302.785L331.872 312.116L341.957 332.052Z" fill="#B89672"/>
<path d="M340.363 335.186L343.987 337.343C344.509 337.846 345.024 338.008 345.365 338.003L345.524 337.489L345.698 337.657L346.372 337.305L371.896 327.87L398.497 336.816L399.946 332.875L399.09 332.718L371.801 323.442L340.363 335.186Z" fill="#B89672"/>
<path fill-rule="evenodd" clip-rule="evenodd" d="M678.182 638.372L699.014 633.122L698.981 608.423L688.46 598.288L667.048 620.182L678.182 638.372ZM694.854 630.088L679.927 633.886L671.833 620.897L688.38 604.053L694.893 610.327L694.854 630.088Z" fill="#B89672"/>
<path fill-rule="evenodd" clip-rule="evenodd" d="M647.41 608.732L667.048 620.182L688.293 598.127L676.853 587.108L651.48 587.335L647.41 608.732ZM666.118 615.067L652.083 606.742L654.909 591.287L675.185 591.344L682.156 598.058L666.118 615.067Z" fill="#B89672"/>
<path fill-rule="evenodd" clip-rule="evenodd" d="M652.372 587.13L677.489 587.721L652.037 563.204L646.496 566.563L652.372 587.13ZM667.677 583.549L655.444 583.257L651.309 568.404L651.62 568.082L667.677 583.549Z" fill="#B89672"/>
<path fill-rule="evenodd" clip-rule="evenodd" d="M699.634 632.656L720.834 637.858L723.965 632.487L697.656 607.146L699.634 632.656ZM718.565 633.498L703.246 629.613L702.278 617.189L718.876 633.176L718.565 633.498Z" fill="#B89672"/>
<path fill-rule="evenodd" clip-rule="evenodd" d="M649.443 638.459C656.2 644.967 663.762 649.946 672.295 653.223C672.468 653.39 673.153 653.72 673.664 653.883C690.73 660.437 709.65 660.212 726.536 653.085L727.038 652.91C727.263 652.907 727.541 652.735 727.87 652.393C730.711 651.177 733.38 649.793 736.378 648.068L738.708 646.689L637.877 549.565L636.586 551.945C634.859 554.894 633.467 557.726 632.41 560.442C632.089 561.122 631.925 561.292 631.769 561.801C625.278 578.941 625.762 597.857 633.297 614.999C633.132 615.17 633.479 615.504 633.487 615.842C637.425 624.467 642.744 632.006 649.443 638.459ZM725.089 649.385C708.871 656.167 691.129 656.209 674.747 649.984C674.574 649.817 674.236 649.821 674.063 649.654C657.673 643.092 644.332 630.242 637.343 614.613L636.806 613.437C629.972 597.3 629.514 579.398 635.693 563.275L636.005 562.258C636.854 560.22 637.816 558.181 638.89 556.141L731.925 645.756C729.926 646.906 727.925 647.944 725.921 648.869L725.089 649.385Z" fill="#B89672"/>
<path fill-rule="evenodd" clip-rule="evenodd" d="M649.357 638.376C656.089 644.861 663.63 649.817 672.144 653.071C672.489 653.404 672.999 653.565 673.337 653.561L677.927 655.014L675.447 649.988L662.538 624.692L631.998 610.444L633.113 614.815C633.233 615.151 633.353 615.486 633.473 615.822C637.387 624.428 642.681 631.946 649.357 638.376ZM669.656 647.707C656.513 641.312 645.809 631.002 639.272 618.44L659.572 627.771L669.656 647.707Z" fill="#B89672"/>
<path d="M668.063 650.841L671.687 652.998C672.209 653.5 672.724 653.663 673.064 653.657L673.224 653.144L673.398 653.311L674.072 652.96L699.596 643.524L726.197 652.471L727.645 648.529L726.79 648.372L699.5 639.096L668.063 650.841Z" fill="#B89672"/>
<path fill-rule="evenodd" clip-rule="evenodd" d="M1003 951.251L1023.83 946.001L1023.8 921.302L1013.28 911.167L991.867 933.062L1003 951.251ZM1019.67 942.967L1004.75 946.765L996.652 933.776L1013.2 916.932L1019.71 923.206L1019.67 942.967Z" fill="#B89672"/>
<path fill-rule="evenodd" clip-rule="evenodd" d="M972.229 921.611L991.867 933.062L1013.11 911.006L1001.67 899.987L976.299 900.214L972.229 921.611ZM990.937 927.946L976.903 919.621L979.729 904.167L1000 904.223L1006.98 910.938L990.937 927.946Z" fill="#B89672"/>
<path fill-rule="evenodd" clip-rule="evenodd" d="M977.191 900.009L1002.31 900.6L976.856 876.083L971.316 879.442L977.191 900.009ZM992.496 896.428L980.263 896.136L976.129 881.283L976.439 880.961L992.496 896.428Z" fill="#B89672"/>
<path fill-rule="evenodd" clip-rule="evenodd" d="M1024.45 945.535L1045.65 950.737L1048.78 945.367L1022.48 920.025L1024.45 945.535ZM1043.38 946.378L1028.07 942.492L1027.1 930.068L1043.7 946.055L1043.38 946.378Z" fill="#B89672"/>
<path fill-rule="evenodd" clip-rule="evenodd" d="M974.262 951.338C981.019 957.847 988.582 962.825 997.114 966.102C997.288 966.269 997.972 966.599 998.483 966.762C1015.55 973.316 1034.47 973.091 1051.36 965.964L1051.86 965.789C1052.08 965.786 1052.36 965.614 1052.69 965.272C1055.53 964.056 1058.2 962.673 1061.2 960.948L1063.53 959.568L962.697 862.444L961.406 864.824C959.678 867.773 958.286 870.605 957.229 873.321C956.909 874.001 956.744 874.172 956.588 874.68C950.098 891.821 950.581 910.736 958.116 927.879C957.952 928.05 958.298 928.383 958.307 928.721C962.245 937.347 967.563 944.886 974.262 951.338ZM1049.91 962.264C1033.69 969.046 1015.95 969.088 999.566 962.863C999.393 962.696 999.055 962.7 998.882 962.534C982.492 955.971 969.152 943.121 962.162 927.493L961.625 926.316C954.791 910.179 954.334 892.277 960.512 876.154L960.824 875.137C961.673 873.099 962.635 871.061 963.71 869.021L1056.74 958.635C1054.75 959.785 1052.74 960.823 1050.74 961.748L1049.91 962.264Z" fill="#B89672"/>
<path fill-rule="evenodd" clip-rule="evenodd" d="M974.176 951.255C980.909 957.74 988.45 962.696 996.963 965.95C997.309 966.283 997.819 966.444 998.156 966.44L1002.75 967.893L1000.27 962.867L987.357 937.571L956.817 923.323L957.932 927.694C958.052 928.03 958.172 928.365 958.293 928.701C962.206 937.307 967.501 944.825 974.176 951.255ZM994.476 960.586C981.332 954.191 970.629 943.881 964.092 931.319L984.391 940.65L994.476 960.586Z" fill="#B89672"/>
<path d="M992.882 963.72L996.507 965.877C997.028 966.38 997.543 966.542 997.884 966.536L998.043 966.023L998.217 966.19L998.891 965.839L1024.42 956.403L1051.02 965.35L1052.46 961.408L1051.61 961.252L1024.32 951.976L992.882 963.72Z" fill="#B89672"/>
<path fill-rule="evenodd" clip-rule="evenodd" d="M987.822 1092.42L1008.65 1087.17L1008.62 1062.47L998.1 1052.33L976.688 1074.23L987.822 1092.42ZM1004.49 1084.13L989.567 1087.93L981.473 1074.94L998.02 1058.1L1004.53 1064.37L1004.49 1084.13Z" fill="#B89672"/>
<path fill-rule="evenodd" clip-rule="evenodd" d="M957.05 1062.78L976.688 1074.23L997.933 1052.17L986.493 1041.15L961.12 1041.38L957.05 1062.78ZM975.758 1069.11L961.724 1060.79L964.549 1045.33L984.826 1045.39L991.796 1052.1L975.758 1069.11Z" fill="#B89672"/>
<path fill-rule="evenodd" clip-rule="evenodd" d="M962.012 1041.17L987.13 1041.76L961.677 1017.25L956.136 1020.61L962.012 1041.17ZM977.317 1037.59L965.084 1037.3L960.949 1022.45L961.26 1022.13L977.317 1037.59Z" fill="#B89672"/>
<path fill-rule="evenodd" clip-rule="evenodd" d="M1009.27 1086.7L1030.47 1091.9L1033.6 1086.53L1007.3 1061.19L1009.27 1086.7ZM1028.21 1087.54L1012.89 1083.66L1011.92 1071.23L1028.52 1087.22L1028.21 1087.54Z" fill="#B89672"/>
<path fill-rule="evenodd" clip-rule="evenodd" d="M959.083 1092.5C965.84 1099.01 973.402 1103.99 981.935 1107.27C982.109 1107.43 982.793 1107.76 983.304 1107.93C1000.37 1114.48 1019.29 1114.26 1036.18 1107.13L1036.68 1106.95C1036.9 1106.95 1037.18 1106.78 1037.51 1106.44C1040.35 1105.22 1043.02 1103.84 1046.02 1102.11L1048.35 1100.73L947.517 1003.61L946.226 1005.99C944.499 1008.94 943.107 1011.77 942.05 1014.49C941.729 1015.17 941.565 1015.34 941.409 1015.84C934.918 1032.99 935.402 1051.9 942.937 1069.04C942.772 1069.21 943.119 1069.55 943.128 1069.89C947.066 1078.51 952.384 1086.05 959.083 1092.5ZM1034.73 1103.43C1018.51 1110.21 1000.77 1110.25 984.387 1104.03C984.214 1103.86 983.876 1103.86 983.703 1103.7C967.313 1097.14 953.973 1084.29 946.983 1068.66L946.446 1067.48C939.612 1051.34 939.155 1033.44 945.333 1017.32L945.645 1016.3C946.494 1014.26 947.456 1012.23 948.53 1010.19L1041.57 1099.8C1039.57 1100.95 1037.57 1101.99 1035.56 1102.91L1034.73 1103.43Z" fill="#B89672"/>
<path fill-rule="evenodd" clip-rule="evenodd" d="M958.997 1092.42C965.73 1098.91 973.271 1103.86 981.784 1107.11C982.13 1107.45 982.64 1107.61 982.977 1107.6L987.567 1109.06L985.087 1104.03L972.178 1078.74L941.638 1064.49L942.753 1068.86C942.873 1069.19 942.993 1069.53 943.114 1069.87C947.027 1078.47 952.321 1085.99 958.997 1092.42ZM979.297 1101.75C966.153 1095.36 955.45 1085.05 948.912 1072.48L969.212 1081.81L979.297 1101.75Z" fill="#B89672"/>
<path d="M977.703 1104.88L981.327 1107.04C981.849 1107.54 982.364 1107.71 982.705 1107.7L982.864 1107.19L983.038 1107.35L983.712 1107L1009.24 1097.57L1035.84 1106.51L1037.29 1102.57L1036.43 1102.42L1009.14 1093.14L977.703 1104.88Z" fill="#B89672"/>
<path fill-rule="evenodd" clip-rule="evenodd" d="M446.568 393.056L442.102 414.071L417.418 414.962L406.896 404.827L427.974 382.611L446.568 393.056ZM438.914 410.026L442.15 394.968L428.867 387.366L412.655 404.531L419.168 410.805L438.914 410.026Z" fill="#B89672"/>
<path fill-rule="evenodd" clip-rule="evenodd" d="M415.796 363.415L427.974 382.611L406.729 404.666L395.29 393.648L394.567 368.283L415.796 363.415ZM422.827 381.873L413.983 368.16L398.645 371.562L399.46 391.822L406.431 398.537L422.827 381.873Z" fill="#B89672"/>
<path fill-rule="evenodd" clip-rule="evenodd" d="M394.396 369.182L395.926 394.26L370.474 369.743L373.623 364.081L394.396 369.182ZM391.389 384.611L390.64 372.397L375.643 368.822L375.332 369.144L391.389 384.611Z" fill="#B89672"/>
<path fill-rule="evenodd" clip-rule="evenodd" d="M441.658 414.708L447.65 435.698L442.401 439.027L416.092 413.685L441.658 414.708ZM443.209 433.594L438.753 418.431L426.301 417.929L442.899 433.916L443.209 433.594Z" fill="#B89672"/>
<path fill-rule="evenodd" clip-rule="evenodd" d="M445.579 364.334C452.336 370.842 457.594 378.213 461.188 386.618C461.361 386.784 461.716 387.456 461.898 387.961C469.087 404.769 469.571 423.685 463.08 440.825L462.924 441.334C462.93 441.559 462.768 441.843 462.439 442.184C461.33 445.07 460.047 447.788 458.436 450.848L457.145 453.229L356.314 356.104L358.644 354.725C361.527 352.889 364.305 351.391 366.979 350.233C367.646 349.887 367.811 349.717 368.313 349.542C385.198 342.414 404.119 342.189 421.531 349.078C421.696 348.907 422.042 349.24 422.38 349.236C431.147 352.849 438.88 357.881 445.579 364.334ZM459.329 439.518C465.499 423.058 464.877 405.326 458.043 389.189C457.87 389.022 457.861 388.684 457.688 388.518C450.516 372.385 437.176 359.535 421.297 353.135L420.102 352.642C403.72 346.417 385.813 346.63 369.933 353.408L368.928 353.758C366.924 354.683 364.922 355.72 362.924 356.87L455.958 446.485C457.033 444.445 457.995 442.406 458.844 440.369L459.329 439.518Z" fill="#B89672"/>
<path fill-rule="evenodd" clip-rule="evenodd" d="M445.493 364.251C452.226 370.736 457.46 378.086 461.031 386.472C461.376 386.805 461.556 387.309 461.564 387.646L463.189 392.179L458.073 389.889L432.312 377.935L416.93 347.95L421.34 348.9C421.68 349.008 422.02 349.115 422.36 349.223C431.107 352.812 438.817 357.821 445.493 364.251ZM455.577 384.187C448.695 371.292 437.991 360.982 425.193 354.92L435.277 374.856L455.577 384.187Z" fill="#B89672"/>
<path d="M458.649 382.477L460.94 386.018C461.462 386.521 461.643 387.029 461.651 387.37L461.143 387.548L461.317 387.716L460.991 388.403L452.518 414.262L462.454 440.51L458.569 442.105L458.381 441.256L448.09 414.333L458.649 382.477Z" fill="#B89672"/>
<path fill-rule="evenodd" clip-rule="evenodd" d="M608.617 549.149L604.151 570.164L579.467 571.055L568.945 560.92L590.023 538.704L608.617 549.149ZM600.963 566.119L604.2 551.061L590.916 543.459L574.704 560.624L581.217 566.898L600.963 566.119Z" fill="#B89672"/>
<path fill-rule="evenodd" clip-rule="evenodd" d="M577.845 519.508L590.023 538.704L568.778 560.759L557.339 549.741L556.616 524.376L577.845 519.508ZM584.877 537.966L576.032 524.253L560.694 527.655L561.509 547.915L568.48 554.63L584.877 537.966Z" fill="#B89672"/>
<path fill-rule="evenodd" clip-rule="evenodd" d="M556.445 525.275L557.975 550.353L532.523 525.836L535.672 520.174L556.445 525.275ZM553.439 540.704L552.689 528.49L537.692 524.914L537.381 525.237L553.439 540.704Z" fill="#B89672"/>
<path fill-rule="evenodd" clip-rule="evenodd" d="M603.707 570.801L609.7 591.791L604.45 595.12L578.141 569.778L603.707 570.801ZM605.258 589.687L600.802 574.524L588.351 574.022L604.948 590.009L605.258 589.687Z" fill="#B89672"/>
<path fill-rule="evenodd" clip-rule="evenodd" d="M607.628 520.427C614.385 526.935 619.643 534.306 623.237 542.711C623.411 542.877 623.766 543.549 623.947 544.054C631.136 560.862 631.62 579.778 625.129 596.918L624.973 597.427C624.979 597.652 624.817 597.936 624.488 598.277C623.379 601.163 622.097 603.881 620.485 606.941L619.194 609.322L518.363 512.197L520.694 510.818C523.576 508.982 526.354 507.484 529.028 506.326C529.695 505.98 529.86 505.81 530.362 505.635C547.248 498.507 566.168 498.282 583.581 505.171C583.745 505 584.092 505.333 584.43 505.329C593.196 508.942 600.929 513.974 607.628 520.427ZM621.378 595.611C627.548 579.151 626.926 561.419 620.092 545.282C619.919 545.115 619.91 544.777 619.737 544.611C612.566 528.478 599.225 515.628 583.346 509.228L582.151 508.735C565.769 502.51 547.862 502.723 531.982 509.501L530.977 509.851C528.973 510.776 526.972 511.813 524.973 512.963L618.008 602.578C619.082 600.538 620.044 598.499 620.893 596.462L621.378 595.611Z" fill="#B89672"/>
<path fill-rule="evenodd" clip-rule="evenodd" d="M607.542 520.344C614.275 526.829 619.509 534.179 623.08 542.565C623.425 542.898 623.606 543.402 623.614 543.739L625.238 548.272L620.122 545.982L594.361 534.028L578.979 504.043L583.389 504.993C583.729 505.101 584.069 505.208 584.409 505.316C593.156 508.905 600.867 513.914 607.542 520.344ZM617.626 540.28C610.744 527.385 600.04 517.075 587.242 511.013L597.327 530.949L617.626 540.28Z" fill="#B89672"/>
<path d="M620.698 538.57L622.989 542.111C623.511 542.614 623.692 543.122 623.7 543.463L623.192 543.641L623.366 543.809L623.04 544.496L614.567 570.355L624.503 596.603L620.619 598.198L620.43 597.349L610.139 570.426L620.698 538.57Z" fill="#B89672"/>
<path fill-rule="evenodd" clip-rule="evenodd" d="M771.387 705.935L766.92 726.95L742.237 727.842L731.715 717.707L752.793 695.49L771.387 705.935ZM763.733 722.906L766.969 707.847L753.686 700.246L737.473 717.411L743.987 723.685L763.733 722.906Z" fill="#B89672"/>
<path fill-rule="evenodd" clip-rule="evenodd" d="M740.615 676.295L752.793 695.49L731.548 717.546L720.109 706.527L719.386 681.163L740.615 676.295ZM747.646 694.752L738.802 681.04L723.464 684.442L724.279 704.702L731.25 711.416L747.646 694.752Z" fill="#B89672"/>
<path fill-rule="evenodd" clip-rule="evenodd" d="M719.215 682.062L720.745 707.14L695.293 682.623L698.442 676.96L719.215 682.062ZM716.208 697.49L715.459 685.277L700.462 681.701L700.151 682.023L716.208 697.49Z" fill="#B89672"/>
<path fill-rule="evenodd" clip-rule="evenodd" d="M766.477 727.587L772.469 748.577L767.22 751.907L740.911 726.565L766.477 727.587ZM768.028 746.473L763.572 731.31L751.12 730.808L767.718 746.796L768.028 746.473Z" fill="#B89672"/>
<path fill-rule="evenodd" clip-rule="evenodd" d="M770.398 677.214C777.155 683.722 782.413 691.093 786.007 699.497C786.18 699.664 786.535 700.336 786.717 700.84C793.906 717.649 794.39 736.565 787.899 753.705L787.743 754.214C787.749 754.439 787.587 754.722 787.258 755.064C786.149 757.949 784.866 760.668 783.255 763.728L781.964 766.108L681.133 668.984L683.463 667.604C686.346 665.768 689.124 664.271 691.798 663.113C692.465 662.767 692.63 662.596 693.132 662.421C710.017 655.294 728.938 655.069 746.35 661.957C746.515 661.786 746.861 662.12 747.199 662.116C755.966 665.728 763.699 670.761 770.398 677.214ZM784.148 752.398C790.318 735.937 789.696 718.206 782.862 702.069C782.689 701.902 782.68 701.564 782.507 701.397C775.335 685.264 761.995 672.414 746.116 666.014L744.921 665.522C728.539 659.297 710.632 659.51 694.752 666.288L693.747 666.637C691.743 667.562 689.741 668.6 687.743 669.75L780.777 759.365C781.852 757.325 782.814 755.286 783.663 753.248L784.148 752.398Z" fill="#B89672"/>
<path fill-rule="evenodd" clip-rule="evenodd" d="M770.312 677.13C777.045 683.616 782.279 690.966 785.85 699.352C786.195 699.685 786.375 700.188 786.383 700.526L788.008 705.058L782.892 702.768L757.131 690.815L741.749 660.83L746.159 661.78C746.499 661.887 746.839 661.995 747.179 662.103C755.926 665.691 763.636 670.701 770.312 677.13ZM780.396 697.067C773.514 684.172 762.81 673.862 750.012 667.8L760.096 687.736L780.396 697.067Z" fill="#B89672"/>
<path d="M783.468 695.357L785.759 698.898C786.281 699.401 786.462 699.909 786.47 700.25L785.962 700.428L786.136 700.596L785.81 701.282L777.337 727.142L787.273 753.389L783.388 754.984L783.2 754.136L772.909 727.212L783.468 695.357Z" fill="#B89672"/>
<path fill-rule="evenodd" clip-rule="evenodd" d="M1096.21 1018.81L1091.74 1039.83L1067.06 1040.72L1056.53 1030.59L1077.61 1008.37L1096.21 1018.81ZM1088.55 1035.79L1091.79 1020.73L1078.51 1013.12L1062.29 1030.29L1068.81 1036.56L1088.55 1035.79Z" fill="#B89672"/>
<path fill-rule="evenodd" clip-rule="evenodd" d="M1065.43 989.174L1077.61 1008.37L1056.37 1030.43L1044.93 1019.41L1044.21 994.042L1065.43 989.174ZM1072.47 1007.63L1063.62 993.919L1048.28 997.321L1049.1 1017.58L1056.07 1024.3L1072.47 1007.63Z" fill="#B89672"/>
<path fill-rule="evenodd" clip-rule="evenodd" d="M1044.03 994.941L1045.56 1020.02L1020.11 995.502L1023.26 989.84L1044.03 994.941ZM1041.03 1010.37L1040.28 998.156L1025.28 994.58L1024.97 994.903L1041.03 1010.37Z" fill="#B89672"/>
<path fill-rule="evenodd" clip-rule="evenodd" d="M1091.3 1040.47L1097.29 1061.46L1092.04 1064.79L1065.73 1039.44L1091.3 1040.47ZM1092.85 1059.35L1088.39 1044.19L1075.94 1043.69L1092.54 1059.68L1092.85 1059.35Z" fill="#B89672"/>
<path fill-rule="evenodd" clip-rule="evenodd" d="M1095.22 990.093C1101.97 996.601 1107.23 1003.97 1110.83 1012.38C1111 1012.54 1111.35 1013.21 1111.54 1013.72C1118.73 1030.53 1119.21 1049.44 1112.72 1066.58L1112.56 1067.09C1112.57 1067.32 1112.41 1067.6 1112.08 1067.94C1110.97 1070.83 1109.69 1073.55 1108.07 1076.61L1106.78 1078.99L1005.95 981.863L1008.28 980.484C1011.16 978.648 1013.94 977.15 1016.62 975.992C1017.28 975.646 1017.45 975.476 1017.95 975.301C1034.84 968.173 1053.76 967.948 1071.17 974.837C1071.33 974.666 1071.68 974.999 1072.02 974.995C1080.79 978.608 1088.52 983.64 1095.22 990.093ZM1108.97 1065.28C1115.14 1048.82 1114.52 1031.09 1107.68 1014.95C1107.51 1014.78 1107.5 1014.44 1107.33 1014.28C1100.15 998.144 1086.81 985.294 1070.94 978.894L1069.74 978.401C1053.36 972.176 1035.45 972.389 1019.57 979.167L1018.57 979.517C1016.56 980.442 1014.56 981.479 1012.56 982.629L1105.6 1072.24C1106.67 1070.2 1107.63 1068.17 1108.48 1066.13L1108.97 1065.28Z" fill="#B89672"/>
<path fill-rule="evenodd" clip-rule="evenodd" d="M1095.13 990.01C1101.86 996.495 1107.1 1003.85 1110.67 1012.23C1111.01 1012.56 1111.19 1013.07 1111.2 1013.4L1112.83 1017.94L1107.71 1015.65L1081.95 1003.69L1066.57 973.709L1070.98 974.659C1071.32 974.767 1071.66 974.874 1072 974.982C1080.74 978.571 1088.46 983.58 1095.13 990.01ZM1105.22 1009.95C1098.33 997.051 1087.63 986.741 1074.83 980.679L1084.92 1000.62L1105.22 1009.95Z" fill="#B89672"/>
<path d="M1108.29 1008.24L1110.58 1011.78C1111.1 1012.28 1111.28 1012.79 1111.29 1013.13L1110.78 1013.31L1110.96 1013.48L1110.63 1014.16L1102.16 1040.02L1112.09 1066.27L1108.21 1067.86L1108.02 1067.02L1097.73 1040.09L1108.29 1008.24Z" fill="#B89672"/>
<path fill-rule="evenodd" clip-rule="evenodd" d="M1081.03 1159.98L1076.56 1180.99L1051.88 1181.89L1041.36 1171.75L1062.43 1149.53L1081.03 1159.98ZM1073.37 1176.95L1076.61 1161.89L1063.33 1154.29L1047.11 1171.45L1053.63 1177.73L1073.37 1176.95Z" fill="#B89672"/>
<path fill-rule="evenodd" clip-rule="evenodd" d="M1050.26 1130.34L1062.43 1149.53L1041.19 1171.59L1029.75 1160.57L1029.03 1135.21L1050.26 1130.34ZM1057.29 1148.8L1048.44 1135.08L1033.1 1138.49L1033.92 1158.75L1040.89 1165.46L1057.29 1148.8Z" fill="#B89672"/>
<path fill-rule="evenodd" clip-rule="evenodd" d="M1028.85 1136.11L1030.38 1161.18L1004.93 1136.67L1008.08 1131L1028.85 1136.11ZM1025.85 1151.53L1025.1 1139.32L1010.1 1135.74L1009.79 1136.07L1025.85 1151.53Z" fill="#B89672"/>
<path fill-rule="evenodd" clip-rule="evenodd" d="M1076.12 1181.63L1082.11 1202.62L1076.86 1205.95L1050.55 1180.61L1076.12 1181.63ZM1077.67 1200.52L1073.21 1185.35L1060.76 1184.85L1077.36 1200.84L1077.67 1200.52Z" fill="#B89672"/>
<path fill-rule="evenodd" clip-rule="evenodd" d="M1080.04 1131.26C1086.79 1137.77 1092.05 1145.14 1095.65 1153.54C1095.82 1153.71 1096.18 1154.38 1096.36 1154.88C1103.55 1171.69 1104.03 1190.61 1097.54 1207.75L1097.38 1208.26C1097.39 1208.48 1097.23 1208.77 1096.9 1209.11C1095.79 1211.99 1094.51 1214.71 1092.89 1217.77L1091.6 1220.15L990.773 1123.03L993.103 1121.65C995.986 1119.81 998.764 1118.31 1001.44 1117.16C1002.11 1116.81 1002.27 1116.64 1002.77 1116.47C1019.66 1109.34 1038.58 1109.11 1055.99 1116C1056.15 1115.83 1056.5 1116.16 1056.84 1116.16C1065.61 1119.77 1073.34 1124.8 1080.04 1131.26ZM1093.79 1206.44C1099.96 1189.98 1099.34 1172.25 1092.5 1156.11C1092.33 1155.95 1092.32 1155.61 1092.15 1155.44C1084.98 1139.31 1071.64 1126.46 1055.76 1120.06L1054.56 1119.57C1038.18 1113.34 1020.27 1113.55 1004.39 1120.33L1003.39 1120.68C1001.38 1121.61 999.381 1122.64 997.383 1123.79L1090.42 1213.41C1091.49 1211.37 1092.45 1209.33 1093.3 1207.29L1093.79 1206.44Z" fill="#B89672"/>
<path fill-rule="evenodd" clip-rule="evenodd" d="M1079.95 1131.17C1086.68 1137.66 1091.92 1145.01 1095.49 1153.4C1095.83 1153.73 1096.02 1154.23 1096.02 1154.57L1097.65 1159.1L1092.53 1156.81L1066.77 1144.86L1051.39 1114.87L1055.8 1115.82C1056.14 1115.93 1056.48 1116.04 1056.82 1116.15C1065.57 1119.74 1073.28 1124.74 1079.95 1131.17ZM1090.04 1151.11C1083.15 1138.22 1072.45 1127.91 1059.65 1121.84L1069.74 1141.78L1090.04 1151.11Z" fill="#B89672"/>
<path d="M1093.11 1149.4L1095.4 1152.94C1095.92 1153.44 1096.1 1153.95 1096.11 1154.29L1095.6 1154.47L1095.78 1154.64L1095.45 1155.33L1086.98 1181.19L1096.91 1207.43L1093.03 1209.03L1092.84 1208.18L1082.55 1181.26L1093.11 1149.4Z" fill="#B89672"/>
<path fill-rule="evenodd" clip-rule="evenodd" d="M921.858 1006.66L917.392 1027.68L892.708 1028.57L882.187 1018.43L903.265 996.217L921.858 1006.66ZM914.204 1023.63L917.441 1008.57L904.158 1000.97L887.945 1018.14L894.458 1024.41L914.204 1023.63Z" fill="#B89672"/>
<path fill-rule="evenodd" clip-rule="evenodd" d="M916.949 1028.31L922.941 1049.3L917.691 1052.63L891.383 1027.29L916.949 1028.31ZM918.5 1047.2L914.043 1032.04L901.592 1031.53L918.189 1047.52L918.5 1047.2Z" fill="#B89672"/>
<path fill-rule="evenodd" clip-rule="evenodd" d="M925.825 982.713C932.557 989.198 937.792 996.548 941.363 1004.93C941.708 1005.27 941.888 1005.77 941.896 1006.11L943.521 1010.64L938.405 1008.35L912.643 996.397L897.262 966.412L901.672 967.362C902.012 967.47 902.352 967.577 902.692 967.685C911.438 971.274 919.149 976.283 925.825 982.713ZM935.909 1002.65C929.027 989.754 918.323 979.444 905.525 973.382L915.609 993.318L935.909 1002.65Z" fill="#B89672"/>
<path d="M933.939 996.083L936.23 999.624C936.752 1000.13 936.934 1000.64 936.941 1000.98L936.434 1001.15L936.608 1001.32L936.282 1002.01L927.808 1027.87L937.744 1054.12L933.86 1055.71L933.671 1054.86L923.38 1027.94L933.939 996.083Z" fill="#B89672"/>
<path fill-rule="evenodd" clip-rule="evenodd" d="M934.877 863.416L930.41 884.431L905.727 885.322L895.205 875.187L916.283 852.971L934.877 863.416ZM927.223 880.386L930.459 865.328L917.176 857.726L900.963 874.891L907.477 881.165L927.223 880.386Z" fill="#B89672"/>
<path fill-rule="evenodd" clip-rule="evenodd" d="M904.105 833.775L916.283 852.971L895.038 875.026L883.599 864.007L882.876 838.643L904.105 833.775ZM911.136 852.233L902.291 838.52L886.954 841.922L887.769 862.182L894.74 868.897L911.136 852.233Z" fill="#B89672"/>
<path fill-rule="evenodd" clip-rule="evenodd" d="M882.704 839.542L884.235 864.62L858.782 840.103L861.932 834.441L882.704 839.542ZM879.698 854.971L878.949 842.757L863.951 839.181L863.641 839.504L879.698 854.971Z" fill="#B89672"/>
<path fill-rule="evenodd" clip-rule="evenodd" d="M929.967 885.067L935.959 906.058L930.71 909.387L904.401 884.045L929.967 885.067ZM931.518 903.954L927.061 888.791L914.61 888.289L931.208 904.276L931.518 903.954Z" fill="#B89672"/>
<path fill-rule="evenodd" clip-rule="evenodd" d="M933.888 834.694C940.645 841.202 945.903 848.573 949.497 856.977C949.67 857.144 950.025 857.816 950.207 858.321C957.396 875.129 957.879 894.045 951.389 911.185L951.233 911.694C951.239 911.919 951.077 912.202 950.748 912.544C949.639 915.429 948.356 918.148 946.745 921.208L945.454 923.588L844.623 826.464L846.953 825.085C849.835 823.248 852.614 821.751 855.288 820.593C855.955 820.247 856.119 820.076 856.622 819.902C873.507 812.774 892.428 812.549 909.84 819.437C910.005 819.267 910.351 819.6 910.689 819.596C919.456 823.209 927.189 828.241 933.888 834.694ZM947.638 909.878C953.808 893.418 953.186 875.686 946.352 859.549C946.179 859.382 946.17 859.044 945.997 858.877C938.825 842.744 925.485 829.895 909.606 823.495L908.41 823.002C892.029 816.777 874.122 816.99 858.242 823.768L857.237 824.118C855.232 825.043 853.231 826.08 851.233 827.23L944.267 916.845C945.342 914.805 946.304 912.766 947.153 910.729L947.638 909.878Z" fill="#B89672"/>
<path fill-rule="evenodd" clip-rule="evenodd" d="M933.802 834.611C940.534 841.096 945.769 848.446 949.34 856.832C949.685 857.165 949.865 857.668 949.873 858.006L951.498 862.539L946.382 860.249L920.62 848.295L905.239 818.31L909.649 819.26C909.989 819.368 910.329 819.475 910.669 819.583C919.415 823.172 927.126 828.181 933.802 834.611ZM943.886 854.547C937.004 841.652 926.3 831.342 913.502 825.28L923.586 845.216L943.886 854.547Z" fill="#B89672"/>
<path d="M946.958 852.837L949.249 856.378C949.771 856.881 949.952 857.389 949.959 857.73L949.452 857.908L949.626 858.076L949.3 858.763L940.827 884.622L950.763 910.87L946.878 912.465L946.69 911.616L936.398 884.692L946.958 852.837Z" fill="#B89672"/>
<path fill-rule="evenodd" clip-rule="evenodd" d="M517.573 483.667L538.406 478.417L538.372 453.717L527.851 443.582L506.439 465.477L517.573 483.667ZM534.245 475.383L519.318 479.181L511.224 466.191L527.771 449.347L534.284 455.621L534.245 475.383Z" fill="#B89672"/>
<path fill-rule="evenodd" clip-rule="evenodd" d="M486.801 454.026L506.439 465.477L527.684 443.421L516.244 432.402L490.871 432.63L486.801 454.026ZM505.509 460.361L491.474 452.036L494.3 436.582L514.577 436.638L521.547 443.353L505.509 460.361Z" fill="#B89672"/>
<path fill-rule="evenodd" clip-rule="evenodd" d="M491.763 432.425L516.881 433.015L491.428 408.498L485.887 411.857L491.763 432.425ZM507.068 428.843L494.835 428.551L490.7 413.698L491.011 413.376L507.068 428.843Z" fill="#B89672"/>
<path fill-rule="evenodd" clip-rule="evenodd" d="M539.025 477.95L560.225 483.152L563.356 477.782L537.047 452.44L539.025 477.95ZM557.957 478.793L542.637 474.907L541.669 462.483L558.267 478.471L557.957 478.793Z" fill="#B89672"/>
<path fill-rule="evenodd" clip-rule="evenodd" d="M488.834 483.754C495.591 490.262 503.153 495.24 511.686 498.518C511.86 498.684 512.544 499.014 513.055 499.177C530.121 505.732 549.042 505.507 565.927 498.379L566.429 498.204C566.654 498.202 566.932 498.029 567.261 497.687C570.103 496.471 572.771 495.088 575.769 493.363L578.099 491.984L477.268 394.859L475.977 397.24C474.25 400.188 472.858 403.021 471.801 405.736C471.48 406.416 471.316 406.587 471.16 407.096C464.669 424.236 465.153 443.152 472.688 460.294C472.523 460.465 472.87 460.799 472.879 461.136C476.817 469.762 482.135 477.301 488.834 483.754ZM564.48 494.68C548.262 501.461 530.52 501.503 514.138 495.278C513.965 495.112 513.627 495.116 513.454 494.949C497.064 488.386 483.723 475.536 476.734 459.908L476.197 458.732C469.363 442.595 468.906 424.692 475.084 408.569L475.396 407.552C476.245 405.515 477.207 403.476 478.281 401.436L571.316 491.051C569.318 492.201 567.316 493.238 565.312 494.163L564.48 494.68Z" fill="#B89672"/>
<path fill-rule="evenodd" clip-rule="evenodd" d="M488.748 483.67C495.481 490.156 503.022 495.111 511.535 498.366C511.881 498.698 512.391 498.86 512.728 498.855L517.318 500.309L514.838 495.282L501.929 469.986L471.389 455.738L472.504 460.109C472.624 460.445 472.744 460.781 472.865 461.116C476.778 469.723 482.072 477.241 488.748 483.67ZM509.048 493.002C495.904 486.607 485.201 476.297 478.663 463.734L498.963 473.065L509.048 493.002Z" fill="#B89672"/>
<path d="M507.454 496.135L511.078 498.292C511.6 498.795 512.115 498.957 512.455 498.952L512.615 498.438L512.789 498.606L513.463 498.254L538.987 488.819L565.588 497.765L567.036 493.824L566.181 493.667L538.891 484.391L507.454 496.135Z" fill="#B89672"/>
<path fill-rule="evenodd" clip-rule="evenodd" d="M842.392 796.546L863.225 791.296L863.192 766.596L852.67 756.462L831.258 778.356L842.392 796.546ZM859.064 788.262L844.137 792.06L836.043 779.071L852.59 762.227L859.103 768.501L859.064 788.262Z" fill="#B89672"/>
<path fill-rule="evenodd" clip-rule="evenodd" d="M811.62 766.905L831.258 778.356L852.503 756.301L841.064 745.282L815.69 745.509L811.62 766.905ZM830.328 773.241L816.294 764.916L819.12 749.461L839.396 749.518L846.367 756.232L830.328 773.241Z" fill="#B89672"/>
<path fill-rule="evenodd" clip-rule="evenodd" d="M816.582 745.304L841.7 745.895L816.247 721.378L810.707 724.737L816.582 745.304ZM831.887 741.722L819.654 741.431L815.52 726.578L815.83 726.256L831.887 741.722Z" fill="#B89672"/>
<path fill-rule="evenodd" clip-rule="evenodd" d="M863.845 790.829L885.044 796.032L888.175 790.661L861.866 765.319L863.845 790.829ZM882.776 791.672L867.457 787.786L866.489 775.363L883.086 791.35L882.776 791.672Z" fill="#B89672"/>
<path fill-rule="evenodd" clip-rule="evenodd" d="M813.653 796.633C820.41 803.141 827.973 808.12 836.505 811.397C836.679 811.564 837.363 811.894 837.874 812.056C854.94 818.611 873.861 818.386 890.746 811.259L891.248 811.084C891.474 811.081 891.751 810.909 892.08 810.567C894.922 809.35 897.59 807.967 900.588 806.242L902.918 804.863L802.088 707.738L800.797 710.119C799.069 713.068 797.677 715.9 796.62 718.616C796.3 719.295 796.135 719.466 795.979 719.975C789.489 737.115 789.972 756.031 797.507 773.173C797.343 773.344 797.689 773.678 797.698 774.016C801.636 782.641 806.954 790.18 813.653 796.633ZM889.3 807.559C873.081 814.341 855.339 814.383 838.957 808.158C838.784 807.991 838.446 807.995 838.273 807.828C821.883 801.266 808.543 788.416 801.553 772.787L801.016 771.611C794.182 755.474 793.725 737.572 799.903 721.449L800.215 720.431C801.064 718.394 802.026 716.355 803.101 714.315L896.135 803.93C894.137 805.08 892.135 806.117 890.131 807.042L889.3 807.559Z" fill="#B89672"/>
<path fill-rule="evenodd" clip-rule="evenodd" d="M813.567 796.55C820.3 803.035 827.841 807.991 836.354 811.245C836.7 811.578 837.21 811.739 837.547 811.734L842.138 813.188L839.658 808.161L826.748 782.866L796.208 768.617L797.323 772.989C797.443 773.324 797.563 773.66 797.684 773.996C801.597 782.602 806.892 790.12 813.567 796.55ZM833.867 805.881C820.723 799.486 810.02 789.176 803.483 776.614L823.782 785.945L833.867 805.881Z" fill="#B89672"/>
<path d="M832.273 809.015L835.897 811.171C836.419 811.674 836.934 811.836 837.275 811.831L837.434 811.317L837.608 811.485L838.282 811.133L863.806 801.698L890.407 810.644L891.856 806.703L891 806.546L863.711 797.27L832.273 809.015Z" fill="#B89672"/>
<path fill-rule="evenodd" clip-rule="evenodd" d="M1167.21 1109.43L1188.04 1104.18L1188.01 1079.48L1177.49 1069.34L1156.08 1091.24L1167.21 1109.43ZM1183.88 1101.14L1168.96 1104.94L1160.86 1091.95L1177.41 1075.11L1183.92 1081.38L1183.88 1101.14Z" fill="#B89672"/>
<path fill-rule="evenodd" clip-rule="evenodd" d="M1136.44 1079.78L1156.08 1091.24L1177.32 1069.18L1165.88 1058.16L1140.51 1058.39L1136.44 1079.78ZM1155.15 1086.12L1141.11 1077.79L1143.94 1062.34L1164.21 1062.4L1171.19 1069.11L1155.15 1086.12Z" fill="#B89672"/>
<path fill-rule="evenodd" clip-rule="evenodd" d="M1141.4 1058.18L1166.52 1058.77L1141.07 1034.26L1135.53 1037.62L1141.4 1058.18ZM1156.71 1054.6L1144.47 1054.31L1140.34 1039.46L1140.65 1039.13L1156.71 1054.6Z" fill="#B89672"/>
<path fill-rule="evenodd" clip-rule="evenodd" d="M1188.66 1103.71L1209.86 1108.91L1212.99 1103.54L1186.69 1078.2L1188.66 1103.71ZM1207.6 1104.55L1192.28 1100.67L1191.31 1088.24L1207.91 1104.23L1207.6 1104.55Z" fill="#B89672"/>
<path fill-rule="evenodd" clip-rule="evenodd" d="M1138.47 1109.51C1145.23 1116.02 1152.79 1121 1161.32 1124.28C1161.5 1124.44 1162.18 1124.77 1162.69 1124.94C1179.76 1131.49 1198.68 1131.27 1215.57 1124.14L1216.07 1123.96C1216.29 1123.96 1216.57 1123.79 1216.9 1123.45C1219.74 1122.23 1222.41 1120.85 1225.41 1119.12L1227.74 1117.74L1126.91 1020.62L1125.62 1023C1123.89 1025.95 1122.5 1028.78 1121.44 1031.5C1121.12 1032.17 1120.95 1032.35 1120.8 1032.85C1114.31 1049.99 1114.79 1068.91 1122.33 1086.05C1122.16 1086.22 1122.51 1086.56 1122.52 1086.9C1126.46 1095.52 1131.77 1103.06 1138.47 1109.51ZM1214.12 1120.44C1197.9 1127.22 1180.16 1127.26 1163.78 1121.04C1163.6 1120.87 1163.27 1120.87 1163.09 1120.71C1146.7 1114.14 1133.36 1101.3 1126.37 1085.67L1125.84 1084.49C1119 1068.35 1118.54 1050.45 1124.72 1034.33L1125.03 1033.31C1125.88 1031.27 1126.85 1029.23 1127.92 1027.19L1220.95 1116.81C1218.96 1117.96 1216.95 1119 1214.95 1119.92L1214.12 1120.44Z" fill="#B89672"/>
<path fill-rule="evenodd" clip-rule="evenodd" d="M1138.39 1109.43C1145.12 1115.91 1152.66 1120.87 1161.17 1124.12C1161.52 1124.46 1162.03 1124.62 1162.37 1124.61L1166.96 1126.07L1164.48 1121.04L1151.57 1095.75L1121.03 1081.5L1122.14 1085.87C1122.26 1086.2 1122.38 1086.54 1122.5 1086.88C1126.42 1095.48 1131.71 1103 1138.39 1109.43ZM1158.69 1118.76C1145.54 1112.37 1134.84 1102.06 1128.3 1089.49L1148.6 1098.82L1158.69 1118.76Z" fill="#B89672"/>
<path d="M1157.09 1121.89L1160.72 1124.05C1161.24 1124.55 1161.75 1124.72 1162.09 1124.71L1162.25 1124.2L1162.43 1124.36L1163.1 1124.01L1188.63 1114.58L1215.23 1123.52L1216.68 1119.58L1215.82 1119.43L1188.53 1110.15L1157.09 1121.89Z" fill="#B89672"/>
<path fill-rule="evenodd" clip-rule="evenodd" d="M1122.09 1181.11L1127.39 1201.93L1152.09 1201.83L1162.2 1191.28L1140.25 1169.93L1122.09 1181.11ZM1130.41 1197.76L1126.58 1182.84L1139.54 1174.71L1156.43 1191.22L1150.18 1197.75L1130.41 1197.76Z" fill="#B89672"/>
<path fill-rule="evenodd" clip-rule="evenodd" d="M1151.65 1150.26L1140.25 1169.93L1162.36 1191.11L1173.35 1179.64L1173.05 1154.27L1151.65 1150.26ZM1145.36 1168.98L1153.65 1154.93L1169.11 1157.71L1169.11 1177.99L1162.41 1184.98L1145.36 1168.98Z" fill="#B89672"/>
<path fill-rule="evenodd" clip-rule="evenodd" d="M1173.26 1155.16L1172.74 1180.28L1197.18 1154.76L1193.81 1149.23L1173.26 1155.16ZM1176.88 1170.46L1177.14 1158.22L1191.98 1154.05L1192.31 1154.36L1176.88 1170.46Z" fill="#B89672"/>
<path fill-rule="evenodd" clip-rule="evenodd" d="M1127.86 1202.55L1122.71 1223.76L1128.09 1226.88L1153.36 1200.5L1127.86 1202.55ZM1127.07 1221.48L1130.91 1206.15L1143.33 1205.15L1127.39 1221.79L1127.07 1221.48Z" fill="#B89672"/>
<path fill-rule="evenodd" clip-rule="evenodd" d="M1121.92 1152.37C1115.43 1159.14 1110.47 1166.72 1107.22 1175.26C1107.05 1175.44 1106.73 1176.12 1106.56 1176.63C1100.06 1193.72 1100.33 1212.64 1107.5 1229.5L1107.68 1230C1107.68 1230.23 1107.86 1230.51 1108.2 1230.83C1109.42 1233.67 1110.81 1236.34 1112.55 1239.33L1113.93 1241.66L1210.79 1140.57L1208.4 1139.28C1205.45 1137.56 1202.61 1136.18 1199.89 1135.13C1199.21 1134.81 1199.04 1134.65 1198.53 1134.49C1181.38 1128.05 1162.46 1128.58 1145.34 1136.16C1145.17 1136 1144.84 1136.35 1144.5 1136.36C1135.88 1140.32 1128.36 1145.65 1121.92 1152.37ZM1111.2 1228.05C1104.37 1211.85 1104.28 1194.1 1110.47 1177.71C1110.63 1177.53 1110.63 1177.19 1110.79 1177.02C1117.31 1160.61 1130.13 1147.24 1145.74 1140.21L1146.91 1139.67C1163.03 1132.79 1180.93 1132.28 1197.07 1138.42L1198.09 1138.73C1200.13 1139.57 1202.17 1140.53 1204.21 1141.6L1114.85 1234.87C1113.69 1232.88 1112.65 1230.88 1111.72 1228.88L1111.2 1228.05Z" fill="#B89672"/>
<path fill-rule="evenodd" clip-rule="evenodd" d="M1122.01 1152.28C1115.54 1159.03 1110.6 1166.59 1107.37 1175.11C1107.04 1175.46 1106.88 1175.97 1106.89 1176.3L1105.44 1180.9L1110.46 1178.41L1135.73 1165.43L1149.89 1134.85L1145.52 1135.98C1145.19 1136.1 1144.85 1136.22 1144.52 1136.34C1135.92 1140.28 1128.42 1145.59 1122.01 1152.28ZM1112.73 1172.61C1119.09 1159.45 1129.37 1148.72 1141.92 1142.15L1132.64 1162.47L1112.73 1172.61Z" fill="#B89672"/>
<path d="M1109.59 1171.02L1107.44 1174.65C1106.94 1175.18 1106.78 1175.69 1106.79 1176.03L1107.3 1176.19L1107.13 1176.36L1107.49 1177.04L1116.99 1202.54L1108.12 1229.16L1112.06 1230.6L1112.22 1229.74L1121.42 1202.43L1109.59 1171.02Z" fill="#B89672"/>
<path d="M239.868 41.4958C271.808 45.8449 303.727 50.2232 335.431 56.6567L1254.51 944.447L1138.05 1065.01L889.629 825.044L928.18 785.134L1114.56 965.169L1153.92 924.427L239.868 41.4958Z" stroke="#B8C9C7"/>
<path d="M129.75 254.382C159.183 256.308 188.593 258.264 217.664 262.154L1013.39 1030.79L896.929 1151.35L681.925 943.666L720.476 903.756L881.857 1059.64L921.212 1018.9L129.75 254.382Z" stroke="#315651"/>
</svg>
