<svg width="89" height="85" viewBox="0 0 89 85" fill="none" xmlns="http://www.w3.org/2000/svg">
<path fill-rule="evenodd" clip-rule="evenodd" d="M28.308 7.3552L27.0142 6.84447V2.00961L30.0445 1.26055L31.6788 3.88227L28.308 7.3552ZM27.593 6.4359L28.1718 6.67423L30.9297 3.84822L29.738 1.94151L27.5589 2.48629L27.593 6.4359Z" fill="#B28E68"/>
<path fill-rule="evenodd" clip-rule="evenodd" d="M25.7204 7.3552L22.3496 3.88227L24.018 1.26055L27.0142 2.00961V6.84447L25.7204 7.3552ZM23.0987 3.81417L25.8566 6.67423L26.4354 6.4359L26.4695 2.45224L24.2904 1.90746L23.0987 3.81417Z" fill="#B28E68"/>
<path fill-rule="evenodd" clip-rule="evenodd" d="M30.0445 15.8668L27.0142 15.1178V10.2829L28.308 9.7722L31.6788 13.2111L30.0445 15.8668ZM27.593 14.6752L29.7721 15.2199L30.9638 13.3132L28.2059 10.4532L27.627 10.6915L27.593 14.6752Z" fill="#B28E68"/>
<path fill-rule="evenodd" clip-rule="evenodd" d="M24.018 15.8668L22.3496 13.2111L25.7204 9.7722L27.0142 10.2829V15.1178L24.018 15.8668ZM23.0987 13.3132L24.2904 15.1859L26.4695 14.6752V10.6915L25.8906 10.4532L23.0987 13.3132Z" fill="#B28E68"/>
<path fill-rule="evenodd" clip-rule="evenodd" d="M21.1226 8.58051V4.66495L22.3483 3.88184L25.8212 7.25262L25.2765 8.54646L21.1226 8.58051ZM21.7014 5.00543V8.00168H24.9019L25.1403 7.42287L22.2802 4.6309L21.7014 5.00543Z" fill="#B28E68"/>
<path fill-rule="evenodd" clip-rule="evenodd" d="M22.3483 13.2453L21.1226 12.4622V8.54662H25.2765L25.8212 9.8745L22.3483 13.2453ZM21.7014 12.1557L22.2462 12.4962L25.1062 9.73831L24.8679 9.15949L21.7014 9.12544V12.1557Z" fill="#B28E68"/>
<path fill-rule="evenodd" clip-rule="evenodd" d="M33.5851 8.58089L28.7502 8.54684L28.2395 7.25301L31.6784 3.88222L34.3341 5.55059L33.5851 8.58089ZM29.1588 8.00206H33.1424L33.6532 5.82297L31.7805 4.63128L28.9205 7.3892L29.1588 8.00206Z" fill="#B28E68"/>
<path fill-rule="evenodd" clip-rule="evenodd" d="M31.6784 13.2114L28.2395 9.87462L28.7502 8.58078L33.5851 8.54673L34.3341 11.577L31.6784 13.2114ZM28.8864 9.70438L31.7465 12.4963L33.6532 11.3047L33.1084 9.12556H29.1248L28.8864 9.70438Z" fill="#B28E68"/>
<path fill-rule="evenodd" clip-rule="evenodd" d="M27.0129 18.6927C25.685 18.6927 24.4253 18.4203 23.2336 17.9437C23.1314 17.9096 23.0974 17.8756 23.0293 17.8415C22.4164 17.6032 21.8035 17.2627 21.2588 16.8541L21.1226 16.786V0.851389H33.5843L33.6523 0.95354C34.844 1.94094 35.7293 3.20073 36.3422 4.63076V4.66481C36.3649 4.7102 36.3876 4.76695 36.4103 4.83505C36.8869 5.95864 37.1253 7.25248 37.1253 8.58036C37.1253 9.8742 36.8869 11.134 36.4103 12.3257C36.3876 12.3938 36.3649 12.4505 36.3422 12.4959C35.2867 14.9474 33.38 16.8541 30.9625 17.8756C30.9285 17.9096 30.8604 17.9096 30.7923 17.9437C29.6346 18.4203 28.3408 18.6927 27.0129 18.6927ZM21.7014 16.4796C22.1781 16.7974 22.7115 17.0811 23.3017 17.3308L23.4379 17.3989C25.685 18.3182 28.3748 18.3182 30.588 17.3989C30.6561 17.3648 30.6902 17.3648 30.6902 17.3648C33.0054 16.3774 34.7759 14.6069 35.7633 12.3257L35.7974 12.2235L35.8655 12.1214C36.3081 10.9978 36.5464 9.8061 36.5464 8.58036C36.5464 7.32058 36.3081 6.12888 35.8655 4.97124L36.0698 4.76695L35.8314 4.90315L35.7974 4.801C35.2186 3.50716 34.4014 2.38357 33.3459 1.43021H21.7014V16.4796Z" fill="#B28E68"/>
<path fill-rule="evenodd" clip-rule="evenodd" d="M27.0124 18.6932C25.7186 18.6932 24.4248 18.4208 23.2331 17.9441C23.1309 17.9101 23.0969 17.876 23.0288 17.842L22.484 17.5356L23.199 17.2972L27.0124 15.9693L31.609 17.5356L30.9961 17.876L30.8599 17.6037L30.9621 17.876C30.928 17.876 30.8599 17.9101 30.7578 17.9441C29.6342 18.4208 28.3403 18.6932 27.0124 18.6932ZM24.0162 17.6037C25.991 18.2846 28.136 18.2506 30.0087 17.6037L27.0124 16.5822L24.0162 17.6037Z" fill="#B28E68"/>
<path fill-rule="evenodd" clip-rule="evenodd" d="M36.0363 13.0748L35.7639 12.3938L34.402 8.58041L36.0363 4.01794L36.3087 4.59675C36.3541 4.66485 36.3881 4.73295 36.4108 4.80104C36.8875 5.95869 37.1258 7.25253 37.1258 8.58041C37.1258 9.87425 36.8875 11.134 36.3768 12.3598C36.3768 12.3938 36.3427 12.4619 36.3087 12.53L36.0363 13.0748ZM35.0148 8.54636L36.0704 11.5426C36.3881 10.5666 36.547 9.56781 36.547 8.54636C36.547 7.52491 36.3881 6.53752 36.0704 5.58416L35.0148 8.54636Z" fill="#B28E68"/>
<path d="M30.1801 18.047L30.4865 17.4341L32.257 13.7909L36.0023 11.9864L36.2407 12.4971L36.1385 12.5652L32.6656 14.2336L30.9632 17.7746H30.9291L30.9972 17.8767C30.9291 17.8767 30.861 17.9108 30.7589 17.9448L30.1801 18.047Z" fill="#B28E68"/>
<path d="M35.9677 5.14231L35.8996 5.07422L32.2565 3.33775L31.269 1.29485L31.7798 1.02246L32.665 2.89512L36.2742 4.63158L35.9677 5.14231Z" fill="#B28E68"/>
<path d="M23.0978 17.8087L23.0297 17.7065L21.3613 14.2336L21.2932 14.1996L21.5316 13.6548L21.8039 13.791L23.5745 17.5023L23.0978 17.8087Z" fill="#B28E68"/>
<path d="M23.0306 33.9812L22.3496 32.8916L24.3585 30.8147L24.8011 31.1892C24.1882 32.0064 23.6775 32.7895 23.2689 33.5385L23.0306 33.9812Z" fill="#B28E68"/>
<path fill-rule="evenodd" clip-rule="evenodd" d="M28.308 27.0013L27.0142 26.4906V21.6557L30.0445 20.9067L31.6788 23.5624L28.308 27.0013ZM27.593 26.082L28.1718 26.3203L30.9297 23.4603L29.738 21.5536L27.5589 22.0984L27.593 26.082Z" fill="#B28E68"/>
<path fill-rule="evenodd" clip-rule="evenodd" d="M25.7204 27.0013L22.3496 23.5624L24.018 20.9067L27.0142 21.6557V26.4906L25.7204 27.0013ZM23.0987 23.4603L25.8566 26.3203L26.4354 26.082L26.4695 22.0984L24.2904 21.5536L23.0987 23.4603Z" fill="#B28E68"/>
<path fill-rule="evenodd" clip-rule="evenodd" d="M22.3483 32.8918L21.1226 32.1086V28.1931L25.2765 28.2271L25.8212 29.521L22.3483 32.8918ZM21.7014 31.8022L22.2462 32.1767L25.1062 29.3848L24.8679 28.806H21.7014V31.8022Z" fill="#B28E68"/>
<path fill-rule="evenodd" clip-rule="evenodd" d="M21.1226 28.2266V24.311L22.3483 23.5619L25.8212 26.8987L25.2765 28.2266H21.1226ZM21.7014 24.6174V27.6477L24.9019 27.6137L25.1403 27.0349L22.2802 24.2769L21.7014 24.6174Z" fill="#B28E68"/>
<path d="M31.235 24.788L30.8605 24.3454L31.6776 23.5623L32.3586 23.9368L31.9841 24.2092C31.7344 24.3908 31.4847 24.5837 31.235 24.788Z" fill="#B28E68"/>
<path d="M22.5178 35.1731L21.9731 34.9688C22.1774 34.424 22.4497 33.8792 22.7562 33.2664C23.1988 32.5173 23.6755 31.7342 24.2884 30.917V30.7127H24.4245C26.0248 28.6017 28.2039 26.4567 30.8937 24.3457C31.1434 24.1414 31.3931 23.9371 31.6428 23.7328C32.0514 23.4264 32.46 23.12 32.8685 22.8135C33.3225 22.5184 33.7651 22.2234 34.1964 21.9283C33.2431 20.8387 32.0514 19.9875 30.7235 19.4427C30.6894 19.4087 30.6894 19.4087 30.6213 19.4087C28.3401 18.4553 25.6843 18.4553 23.4371 19.3747L23.301 19.4427C22.6654 19.7151 22.0866 20.0329 21.5645 20.3961L21.2581 19.9194C21.8028 19.5335 22.4043 19.1931 23.0626 18.898C23.0853 18.8753 23.1307 18.8639 23.1988 18.8639C25.6503 17.8425 28.4422 17.8425 30.8256 18.8639C30.8597 18.8639 30.9278 18.898 30.9959 18.932C32.46 19.5449 33.7878 20.5323 34.8433 21.7921L35.0476 22.0304L34.7752 22.2347C34.2645 22.5752 33.7538 22.9157 33.209 23.2902C32.8004 23.5966 32.3919 23.9031 31.9833 24.2095C31.7336 24.3911 31.4839 24.584 31.2342 24.7883C28.5444 26.8993 26.3653 29.0444 24.7991 31.1894L24.731 31.2916C24.1522 32.0747 23.6755 32.8237 23.2669 33.5387C22.9605 34.1176 22.7221 34.6623 22.5178 35.1731Z" fill="#B28E68"/>
<path d="M21.6326 36.7731C21.4964 36.6823 21.3716 36.5915 21.2581 36.5007L21.5645 36.0581C21.678 36.1262 21.8028 36.2056 21.939 36.2964L21.6326 36.7731Z" fill="#B28E68"/>
<path fill-rule="evenodd" clip-rule="evenodd" d="M27.0124 20.8046L22.484 19.2383L23.0288 18.9319C23.0969 18.8865 23.1536 18.8638 23.199 18.8638C25.6846 17.8424 28.4425 17.8764 30.8259 18.8638C30.8599 18.8638 30.928 18.8979 30.9961 18.9319L31.609 19.2383L30.8259 19.4767L27.0124 20.8046ZM24.0162 19.1362L27.0124 20.1917L30.0087 19.1362C28.0679 18.4893 25.9569 18.5233 24.0162 19.1362Z" fill="#B28E68"/>
<path d="M32.9374 23.3235L32.2564 22.983L30.2135 18.6589L30.7923 18.8291C30.8604 18.8518 30.9285 18.8859 30.9966 18.9313L30.9626 18.9994L30.9966 19.1015L32.665 22.5404L33.1757 22.7787L32.9374 23.3235Z" fill="#B28E68"/>
<path d="M22.0084 35.2072L21.3614 33.8793L21.2933 33.8453L21.5317 33.3345L21.8041 33.4707L22.5191 34.9688L22.0084 35.2072Z" fill="#B28E68"/>
<path d="M21.5318 23.1202L21.2935 22.6095L21.3616 22.5414L23.098 18.9663L23.5747 19.2728L23.5406 19.3749L21.8042 22.984L21.5318 23.1202Z" fill="#B28E68"/>
<path fill-rule="evenodd" clip-rule="evenodd" d="M62.5928 7.35532L61.2989 6.84459L61.2649 2.00974L64.2952 1.26067L65.9636 3.88239L62.5928 7.35532ZM61.8437 6.43602L62.4225 6.67435L65.2145 3.84834L64.0228 1.94163L61.8437 2.48641V6.43602Z" fill="#B28E68"/>
<path fill-rule="evenodd" clip-rule="evenodd" d="M59.9703 7.35522L56.5995 3.8823L58.2679 1.26057L61.2982 2.00964L61.2641 6.8445L59.9703 7.35522ZM57.3486 3.8142L60.1405 6.67426L60.7193 6.43592V2.45226L58.5402 1.90749L57.3486 3.8142Z" fill="#B28E68"/>
<path fill-rule="evenodd" clip-rule="evenodd" d="M64.2952 15.8667L61.2649 15.1176L61.2989 10.2828L62.5928 9.77203L65.9636 13.2109L64.2952 15.8667ZM61.8437 14.675L64.0228 15.2198L65.2145 13.3131L62.4225 10.453L61.8437 10.6913V14.675Z" fill="#B28E68"/>
<path fill-rule="evenodd" clip-rule="evenodd" d="M58.2679 15.8669L56.5995 13.2111L59.9703 9.77222L61.2641 10.2829L61.2982 15.1178L58.2679 15.8669ZM57.3486 13.3132L58.5402 15.1859L60.7193 14.6752L60.6853 10.6915L60.1065 10.4532L57.3486 13.3132Z" fill="#B28E68"/>
<path fill-rule="evenodd" clip-rule="evenodd" d="M54.7276 8.58092L53.9785 5.55062L56.6002 3.88225L60.0732 7.25303L59.5625 8.54687L54.7276 8.58092ZM54.6254 5.823L55.1702 8.00209H59.1539L59.3922 7.42327L56.5321 4.63131L54.6254 5.823Z" fill="#B28E68"/>
<path fill-rule="evenodd" clip-rule="evenodd" d="M56.6002 13.2114L53.9785 11.5771L54.7276 8.54676L59.5625 8.58081L60.0732 9.87465L56.6002 13.2114ZM54.6254 11.2706L56.5321 12.4623L59.3922 9.70441L59.1539 9.12559L55.1702 9.09154L54.6254 11.2706Z" fill="#B28E68"/>
<path fill-rule="evenodd" clip-rule="evenodd" d="M67.1904 8.58092L63.0024 8.54687L62.4917 7.25303L65.9646 3.88225L67.1904 4.66536V8.58092ZM63.411 8.00209H66.6116V4.97179L66.0327 4.63131L63.1727 7.38922L63.411 8.00209Z" fill="#B28E68"/>
<path fill-rule="evenodd" clip-rule="evenodd" d="M65.9646 13.2454L62.4917 9.87465L63.0024 8.54676H67.1904V12.4623L65.9646 13.2454ZM63.1727 9.73846L66.0327 12.5304L66.6116 12.1559V9.15964H63.411L63.1727 9.73846Z" fill="#B28E68"/>
<path fill-rule="evenodd" clip-rule="evenodd" d="M61.2996 18.6928C59.9717 18.6928 58.6779 18.4204 57.4862 17.9437C57.4181 17.9097 57.35 17.8756 57.316 17.8416C54.8985 16.8542 52.9918 14.9475 51.9704 12.496C51.9363 12.4619 51.9023 12.3938 51.9023 12.3257C51.4256 11.134 51.1873 9.87426 51.1873 8.58042C51.1873 7.25254 51.4256 5.9587 51.9023 4.767C51.9023 4.73296 51.9363 4.69891 51.9704 4.63081C52.5492 3.20078 53.5026 1.941 54.6261 0.953597L54.7283 0.851446H67.19V16.7861L67.0538 16.8882C66.4863 17.2741 65.8734 17.6032 65.2152 17.8756C65.1811 17.9097 65.113 17.9097 65.0449 17.9437C63.8873 18.4204 62.6275 18.6928 61.2996 18.6928ZM52.5151 4.80105L52.447 4.93725C51.9704 6.11759 51.732 7.33198 51.732 8.58042C51.732 9.80616 51.9704 10.9979 52.447 12.1214L52.5151 12.2917C53.4685 14.5729 55.2731 16.3775 57.5543 17.3308L57.7245 17.3989C59.9717 18.3182 62.6275 18.3182 64.8747 17.3989C64.9087 17.3649 64.9428 17.3649 64.9768 17.3649C65.567 17.0925 66.1118 16.7974 66.6112 16.4796V1.43027H54.9326C53.8771 2.38363 53.094 3.50722 52.5151 4.80105Z" fill="#B28E68"/>
<path fill-rule="evenodd" clip-rule="evenodd" d="M61.2982 18.6929C59.9703 18.6929 58.7105 18.4205 57.4848 17.9438C57.4167 17.9098 57.3486 17.8757 57.2805 17.8417L56.7698 17.5352L57.4507 17.2969L61.2982 15.969L65.8607 17.5352L65.2478 17.8757C65.1797 17.8757 65.1116 17.9098 65.0095 17.9438C63.8859 18.4205 62.6261 18.6929 61.2982 18.6929ZM58.302 17.6033C60.2768 18.2843 62.3878 18.2502 64.2604 17.6033L61.2982 16.5819L58.302 17.6033Z" fill="#B28E68"/>
<path d="M52.4813 12.4958L51.9706 12.2575L52.0046 12.1553L53.2644 8.58026L51.9706 4.83495L51.9025 4.8009C51.9252 4.7328 51.9479 4.6647 51.9706 4.5966L52.277 4.01779L52.5494 4.73281L53.8773 8.58026L52.4813 12.4958Z" fill="#B28E68"/>
<path d="M64.4657 18.1151L64.7381 17.4682L66.5086 13.791L66.7469 13.6548L67.0193 14.1996L66.9512 14.2336L65.2488 17.7746H65.2148L65.2488 17.8427C65.1807 17.8881 65.1126 17.9222 65.0445 17.9449L64.4657 18.1151Z" fill="#B28E68"/>
<path d="M51.7997 5.41474L51.9018 4.83591C51.9018 4.73377 51.9359 4.66567 51.9699 4.63162L52.0721 4.66567L52.038 4.63162L52.1402 4.56353L55.6131 2.89515L56.5324 1.0225L57.0431 1.29489L56.0557 3.33779L51.7997 5.41474Z" fill="#B28E68"/>
<path d="M66.7456 3.43971L66.5073 3.33757L65.5199 1.29467L66.0306 1.02228L66.9499 2.89493L67.018 2.92898L66.7456 3.43971Z" fill="#B28E68"/>
<path d="M57.3479 17.8086L57.2798 17.7065L55.6114 14.2335L52.0704 12.4971L52.2747 11.9863L52.4109 12.0204L56.0541 13.7909L57.8587 17.5362L57.3479 17.8086Z" fill="#B28E68"/>
<path d="M65.2495 33.9812L65.0112 33.5385C64.6026 32.7895 64.1259 32.0064 63.5131 31.1892L63.9557 30.8147L65.9645 32.8916L65.2495 33.9812Z" fill="#B28E68"/>
<path fill-rule="evenodd" clip-rule="evenodd" d="M62.5931 27.0013L61.2993 26.4906L61.2653 21.6557L64.2955 20.9066L65.9639 23.5624L62.5931 27.0013ZM61.8441 26.082L62.4229 26.3203L65.2149 23.4603L64.0232 21.5536L61.8441 22.0983V26.082Z" fill="#B28E68"/>
<path fill-rule="evenodd" clip-rule="evenodd" d="M59.9706 27.0013L56.5999 23.5624L58.2682 20.9066L61.2985 21.6557L61.2645 26.4906L59.9706 27.0013ZM57.3489 23.4603L60.1409 26.3203L60.7197 26.082V22.0983L58.5406 21.5536L57.3489 23.4603Z" fill="#B28E68"/>
<path d="M57.0422 24.788C56.7925 24.5837 56.5428 24.3908 56.2931 24.2092L55.9526 23.9368L56.6336 23.5623L57.4508 24.3454L57.0422 24.788Z" fill="#B28E68"/>
<path fill-rule="evenodd" clip-rule="evenodd" d="M65.965 32.8919L62.4921 29.5211L63.0028 28.2272L67.1907 28.1932V32.1087L65.965 32.8919ZM63.173 29.3849L66.0331 32.1768L66.6119 31.8023V28.8061H63.4114L63.173 29.3849Z" fill="#B28E68"/>
<path fill-rule="evenodd" clip-rule="evenodd" d="M67.1907 28.2269H63.0028L62.4921 26.899L65.965 23.5623L67.1907 24.3113V28.2269ZM63.4114 27.6481H66.6119V24.6518L66.0331 24.2773L63.173 27.0692L63.4114 27.6481Z" fill="#B28E68"/>
<path fill-rule="evenodd" clip-rule="evenodd" d="M66.3377 36.9777L66.2356 36.6032C66.0994 36.0924 65.9632 35.6158 65.7589 35.2072C65.5546 34.6624 65.3049 34.1063 65.0099 33.5388C64.6353 32.8238 64.1586 32.0747 63.5798 31.2916L63.4777 31.1895C61.9115 29.0445 59.7664 26.8994 57.0425 24.7884C56.7929 24.5841 56.5432 24.3912 56.2935 24.2096C55.8849 23.8918 55.4763 23.5854 55.0677 23.2903C54.5457 22.9271 54.0349 22.5753 53.5356 22.2348L53.2632 22.0645L53.4675 21.7921C54.4889 20.5324 55.8509 19.545 57.349 18.898C57.3717 18.8753 57.4057 18.864 57.4511 18.864C59.9026 17.8425 62.6946 17.8425 65.078 18.864C65.112 18.864 65.1801 18.864 65.2482 18.898C65.8838 19.1931 66.4853 19.5336 67.0528 19.9195L67.1889 19.9876V36.4329L67.0528 36.501C66.9393 36.5918 66.8144 36.6826 66.6782 36.7734L66.3377 36.9777ZM63.9884 30.9171C64.6013 31.7343 65.112 32.5174 65.5206 33.2664C65.8384 33.8566 66.0994 34.4354 66.3037 35.0029C66.3945 35.2299 66.4853 35.4909 66.5761 35.786V20.294C66.0767 19.9535 65.5546 19.6698 65.0099 19.4428L64.9418 19.4088C64.9418 19.4088 64.9191 19.3974 64.8737 19.3747C62.5924 18.4214 59.9707 18.4554 57.7235 19.3747L57.5533 19.4428C56.2254 19.9876 55.0677 20.8388 54.1144 21.9283C54.5457 22.2234 54.9769 22.5185 55.4082 22.8136C55.8168 23.1087 56.2254 23.4151 56.634 23.7329C56.8836 23.9145 57.1447 24.1188 57.4171 24.3458C60.1069 26.4227 62.2519 28.6018 63.8522 30.7128H63.9884V30.9171Z" fill="#B28E68"/>
<path fill-rule="evenodd" clip-rule="evenodd" d="M61.2977 20.8044L56.7693 19.2382L57.28 18.9318C57.3481 18.8864 57.4049 18.8637 57.4503 18.8637C59.9358 17.8422 62.7278 17.8763 65.0771 18.8637C65.1111 18.8637 65.2133 18.8977 65.2473 18.9318L65.8602 19.2382L65.1111 19.4766L61.2977 20.8044ZM58.3015 19.1361L61.2977 20.1916L64.294 19.1361C62.3532 18.4892 60.2082 18.5232 58.3015 19.1361Z" fill="#B28E68"/>
<path d="M66.7465 23.1192L66.5081 22.983L64.4652 18.6589L65.044 18.8291C65.1121 18.8518 65.1916 18.8859 65.2824 18.9313L65.2143 18.9994H65.2483L65.2824 19.1015L66.9508 22.5404L67.0188 22.6085L66.7465 23.1192Z" fill="#B28E68"/>
<path d="M66.305 35.2072L65.7943 34.9688L66.5093 33.4707L66.7477 33.3345L67.02 33.8452L66.952 33.8793L66.305 35.2072Z" fill="#B28E68"/>
<path d="M55.3749 23.3244L55.1366 22.7796L55.6133 22.5413L57.3497 18.9662L57.8605 19.2726L57.7924 19.3748L56.0559 22.9839L55.3749 23.3244Z" fill="#B28E68"/>
<path fill-rule="evenodd" clip-rule="evenodd" d="M41.163 5.58501L39.4946 2.92923L42.0142 0.341555H44.1593L44.1933 4.80189L41.163 5.58501ZM40.2437 3.03138L41.4354 4.93808L43.6145 4.39332L43.5804 0.954431H42.2525L40.2437 3.03138Z" fill="#B28E68"/>
<path fill-rule="evenodd" clip-rule="evenodd" d="M47.1909 5.58549L44.1606 4.80237V0.342035H46.3397L48.8252 2.92971L47.1909 5.58549ZM44.7394 4.35975L46.9186 4.90452L48.1102 2.99781L46.1014 0.954912H44.7735L44.7394 4.35975Z" fill="#B28E68"/>
<path fill-rule="evenodd" clip-rule="evenodd" d="M48.8261 2.92925L46.1703 0.341574H51.2435L51.4818 1.29493L48.8261 2.92925ZM47.6003 0.9204L48.8942 2.18019L50.8009 0.9885V0.9204H47.6003Z" fill="#B28E68"/>
<path fill-rule="evenodd" clip-rule="evenodd" d="M39.4975 2.92971L36.8757 1.26134L37.08 0.342035H42.1532L39.4975 2.92971ZM37.5227 1.023L39.4294 2.21469L40.7232 0.954912H37.5227V1.023Z" fill="#B28E68"/>
<path fill-rule="evenodd" clip-rule="evenodd" d="M44.161 8.37651C42.8331 8.37651 41.5733 8.13818 40.3816 7.62746C40.3476 7.62746 40.2454 7.5934 40.1773 7.55936C37.794 6.53791 35.8872 4.63119 34.8658 2.21376L34.8318 2.14567C34.8091 2.12297 34.7977 2.07758 34.7977 2.00948C34.6275 1.6009 34.4913 1.19231 34.3551 0.715638L34.2529 0.341105H54.0691L53.9669 0.715638C53.8534 1.19231 53.7172 1.6236 53.5583 2.00948C53.5243 2.11163 53.5243 2.14567 53.4902 2.21376C52.4688 4.63119 50.5621 6.53791 48.1106 7.55936C48.1106 7.5934 48.0425 7.59341 48.0085 7.62746C46.76 8.12683 45.4775 8.37651 44.161 8.37651ZM35.3765 1.97543C36.3639 4.29072 38.1685 6.06123 40.4497 7.04863C40.4838 7.04863 40.5178 7.08268 40.5519 7.08268C42.8672 8.03603 45.4889 8.03604 47.7361 7.11673L47.9063 7.04863C50.1876 6.06123 51.9921 4.25667 52.9455 1.97543L53.0136 1.83924C53.1271 1.54415 53.2292 1.23771 53.32 0.91993H35.036C35.1268 1.23771 35.229 1.54415 35.3425 1.83924L35.3765 1.97543Z" fill="#B28E68"/>
<path fill-rule="evenodd" clip-rule="evenodd" d="M44.1615 8.3763C42.8336 8.3763 41.5738 8.13797 40.3821 7.62725C40.314 7.62725 40.2459 7.59319 40.2119 7.55915L39.599 7.25271L40.3481 6.98032L44.1615 5.65244L48.6899 7.21866L48.1451 7.55915C48.0997 7.58185 48.0543 7.60455 48.0089 7.62725C46.7605 8.12662 45.478 8.3763 44.1615 8.3763ZM41.1652 7.3208C43.14 7.96772 45.251 7.96772 47.1577 7.3208L44.1615 6.26531L41.1652 7.3208Z" fill="#B28E68"/>
<path fill-rule="evenodd" clip-rule="evenodd" d="M35.1386 2.75854L34.8662 2.21377C34.8321 2.14567 34.7981 2.11163 34.7981 2.00948C34.6278 1.6009 34.4916 1.19232 34.3554 0.715642L34.2533 0.341108H36.0579L35.3769 2.21377L35.1386 2.75854ZM35.0364 0.919934C35.0591 1.03343 35.0932 1.14692 35.1386 1.26042L35.2407 0.919934H35.0364Z" fill="#B28E68"/>
<path d="M52.9457 2.2145L52.9116 2.11236L52.4349 0.750429L52.9797 0.546137L53.4904 1.97617L52.9457 2.2145Z" fill="#B28E68"/>
<path d="M40.9927 7.76437L40.4139 7.62818C40.3118 7.62818 40.2437 7.59413 40.2096 7.56008L40.2437 7.49198H40.2096L40.1756 7.38984L38.5072 3.9169L34.9321 2.21449L35.1705 1.66972L35.2726 1.73781L38.9498 3.47428L40.9927 7.76437Z" fill="#B28E68"/>
<path d="M48.1106 7.52603L47.5999 7.2196L47.668 7.11745L49.4044 3.47428L53.1497 1.66972L53.3881 2.21449L53.2859 2.24854L49.847 3.9169L48.1106 7.52603Z" fill="#B28E68"/>
<path fill-rule="evenodd" clip-rule="evenodd" d="M42.8649 16.7188L39.4941 13.2459L41.1625 10.5901L44.1928 11.3732L44.1588 16.174L42.8649 16.7188ZM40.2432 13.1778L43.0011 16.0378L43.614 15.7995V11.8158L41.4349 11.2711L40.2432 13.1778Z" fill="#B28E68"/>
<path fill-rule="evenodd" clip-rule="evenodd" d="M45.488 16.7184L44.1602 16.1736V11.3728L47.1904 10.5897L48.8248 13.2455L45.488 16.7184ZM44.773 15.7991L45.3518 16.0374L48.1438 13.1774L46.9521 11.2707L44.773 11.8154V15.7991Z" fill="#B28E68"/>
<path fill-rule="evenodd" clip-rule="evenodd" d="M51.3121 20.26L50.7333 19.9195C49.7799 19.3407 48.9287 18.864 48.1797 18.4554L47.2263 17.9106H50.7333L51.3121 20.26ZM49.4054 18.4554C49.7232 18.637 50.0523 18.83 50.3928 19.0342L50.2566 18.4554H49.4054Z" fill="#B28E68"/>
<path fill-rule="evenodd" clip-rule="evenodd" d="M50.733 17.9105H45.8982L45.3875 16.6167L48.8263 13.2459L51.4821 14.8802L50.733 17.9105ZM46.3068 17.3317H50.2904L50.8011 15.1526L48.8944 13.9949L46.0684 16.7529L46.3068 17.3317Z" fill="#B28E68"/>
<path fill-rule="evenodd" clip-rule="evenodd" d="M37.0122 20.26L37.6251 17.9106H41.132L40.1446 18.4554C39.3956 18.864 38.5444 19.3407 37.6251 19.9195L37.0122 20.26ZM38.0677 18.4554L37.8975 19.0342C38.2379 18.83 38.5671 18.637 38.8849 18.4554H38.0677Z" fill="#B28E68"/>
<path fill-rule="evenodd" clip-rule="evenodd" d="M37.6243 17.9103L36.8752 14.88L39.497 13.2457L42.9699 16.6165L42.4592 17.9103H37.6243ZM37.5222 15.1524L38.0669 17.3315H42.0506L42.2889 16.7527L39.4289 13.9607L37.5222 15.1524Z" fill="#B28E68"/>
<path d="M52.9462 21.8259L52.9121 21.7579L53.4569 21.5536L53.4909 21.6217L52.9462 21.8259Z" fill="#B28E68"/>
<path d="M35.1717 22.4732L34.8652 21.8603C34.8425 21.8149 34.8199 21.7581 34.7972 21.69C34.7518 21.5766 34.7064 21.4631 34.661 21.3496C34.2524 20.2941 34.0481 19.1024 34.0481 17.9107C34.0481 16.6168 34.2864 15.323 34.7972 14.1654C34.7972 14.0973 34.8085 14.0405 34.8312 13.9951L34.8652 13.9611C35.8867 11.5436 37.7934 9.63694 40.2108 8.61549C40.2449 8.58144 40.347 8.54739 40.4151 8.54739C42.6964 7.55998 45.5564 7.55998 47.9398 8.54739C48.042 8.58143 48.11 8.58144 48.1441 8.61549C50.5615 9.63694 52.4342 11.5436 53.4897 13.9611C53.5237 14.0292 53.5237 14.0632 53.5578 14.1654C54.0345 15.323 54.2728 16.6168 54.2728 17.9107C54.2728 19.1024 54.0685 20.2941 53.6599 21.3496C53.6259 21.4858 53.5918 21.5879 53.5237 21.7241L53.013 21.4858C53.0584 21.395 53.0925 21.2928 53.1152 21.1793C53.501 20.1352 53.694 19.0456 53.694 17.9107C53.694 16.6509 53.4557 15.4592 53.013 14.3356L52.9449 14.1994C51.9916 11.9182 50.187 10.1136 47.9058 9.12621L47.8036 9.09216C47.7809 9.09216 47.7582 9.08081 47.7355 9.05811C45.4883 8.13881 42.8326 8.13881 40.5854 9.09216C40.5173 9.09216 40.4832 9.12621 40.4832 9.12621C38.1679 10.1136 36.3974 11.8841 35.41 14.1313L35.376 14.2675L35.3419 14.3356C34.8653 15.4592 34.6269 16.6509 34.6269 17.9107C34.6269 18.9321 34.7972 19.9536 35.1036 20.8729L35.1376 20.7707L35.2398 20.7367C35.9208 20.2941 36.6017 19.8514 37.3167 19.4088C38.2701 18.864 39.1213 18.3533 39.8704 17.9447C40.2449 17.7404 40.5854 17.5361 40.9259 17.3659L40.9939 17.3319H42.0495L42.3218 16.6509L42.424 16.6168C43.4454 16.1061 44.0583 15.8337 44.0583 15.8337L44.1605 15.7656L44.2966 15.8337C44.2966 15.8337 44.9095 16.1061 45.931 16.6168L45.9991 16.6509L46.3055 17.3319H47.361L47.4291 17.3659C47.7355 17.5361 48.11 17.7404 48.4846 17.9447C49.2336 18.3533 50.0849 18.864 51.0042 19.4088C51.7532 19.8514 52.4342 20.2941 53.1152 20.7367L52.8087 21.2134C52.1278 20.7707 51.4468 20.3622 50.7318 19.9195C49.7784 19.3407 48.9272 18.864 48.1782 18.4555C47.8377 18.2512 47.5312 18.0809 47.1907 17.9107H45.8969L45.5564 17.0595C44.8755 16.719 44.3647 16.5147 44.1605 16.4126C43.9562 16.5147 43.4795 16.719 42.7645 17.0595L42.458 17.9107H41.1301C40.8237 18.0809 40.4832 18.2512 40.1427 18.4555C39.3937 18.864 38.5425 19.3407 37.6232 19.9195C36.9082 20.3281 36.2612 20.7367 35.6484 21.1453L35.1717 22.4732Z" fill="#B28E68"/>
<path fill-rule="evenodd" clip-rule="evenodd" d="M44.1583 10.5222L39.5618 8.92194L40.2087 8.61551C40.2427 8.58146 40.3449 8.54741 40.413 8.54741C41.5706 8.03668 42.8304 7.79835 44.1583 7.79835C45.4862 7.79835 46.746 8.03668 47.9377 8.54741C48.0398 8.58146 48.1079 8.58146 48.1419 8.61551L48.6867 8.95599L48.0058 9.19432L44.1583 10.5222ZM41.162 8.85384L44.1583 9.90934L47.1545 8.85384C45.1457 8.20692 43.0347 8.20692 41.162 8.85384Z" fill="#B28E68"/>
<path fill-rule="evenodd" clip-rule="evenodd" d="M35.1714 22.4731L34.865 21.8602C34.8423 21.8148 34.8196 21.758 34.7969 21.69C34.7515 21.5765 34.7061 21.463 34.6607 21.3495C34.2521 20.294 34.0479 19.1023 34.0479 17.9106C34.0479 16.6167 34.2862 15.3229 34.7969 14.1653C34.7969 14.0631 34.831 14.0291 34.865 13.961L35.1374 13.4502L35.4438 14.0631L36.7717 17.9106L35.1714 22.4731ZM35.1033 14.9143C34.7856 15.8677 34.6267 16.8664 34.6267 17.9106C34.6267 18.9661 34.7969 19.9535 35.1033 20.9068L36.1589 17.9106L35.1033 14.9143Z" fill="#B28E68"/>
<path d="M52.9459 21.826L52.9119 21.7579L53.4567 21.5536L53.4907 21.6217L52.9459 21.826Z" fill="#B28E68"/>
<path d="M52.6738 21.0767L51.5842 17.9102L52.9462 13.9606L53.4909 14.1989L53.4228 14.301L52.1971 17.9102L53.2185 20.8724L52.6738 21.0767Z" fill="#B28E68"/>
<path d="M35.17 14.5063L34.9316 13.9615L35.0338 13.9275L38.5067 12.2591L40.2091 8.684H40.2432L40.2091 8.61591C40.2432 8.58186 40.3453 8.54781 40.4134 8.54781L40.9922 8.41162L40.6858 9.02449L38.9493 12.6677L35.17 14.5063Z" fill="#B28E68"/>
<path d="M53.3195 21.894L53.0471 21.3833L53.1493 21.3492L53.4216 21.86L53.3195 21.894Z" fill="#B28E68"/>
<path d="M52.9451 21.758V21.7239H53.5239L52.9451 21.758Z" fill="#B28E68"/>
<path d="M34.9997 21.8939L34.9316 21.8599L35.204 21.3492L35.3062 21.3832L34.9997 21.8939Z" fill="#B28E68"/>
<path d="M53.149 14.506L53.0469 14.4379L49.4037 12.6674L47.5991 8.95614L48.1098 8.64971L48.1439 8.75185L49.8463 12.2588L53.3873 13.9612L53.149 14.506Z" fill="#B28E68"/>
<path fill-rule="evenodd" clip-rule="evenodd" d="M68.0409 39.326H65.7256C65.7256 38.5089 65.6235 37.6577 65.3851 36.8064C65.2717 36.3525 65.1355 35.9325 64.9766 35.5467C64.7723 35.0019 64.5339 34.4798 64.2616 33.9804C63.887 33.2995 63.4784 32.6525 62.9677 31.9375L62.7975 31.6992C61.2653 29.6222 59.1543 27.5453 56.5326 25.4683C56.2602 25.264 56.0105 25.0711 55.7835 24.8895C55.3749 24.5944 54.9664 24.2993 54.5578 24.0043C54.0584 23.6411 53.559 23.2893 53.0596 22.9488C52.9235 22.8807 52.8554 22.8126 52.7532 22.7785L52.2765 22.438C51.6296 22.0295 50.9827 21.6209 50.2336 21.1783C49.3143 20.6335 48.4972 20.1228 47.7481 19.7142C47.3736 19.5439 47.0331 19.3396 46.6926 19.1694C46.1819 18.897 45.6712 18.6246 45.2626 18.4203C44.7859 18.1933 44.4114 18.0118 44.139 17.8756C43.8666 18.0118 43.5034 18.1933 43.0494 18.4203C42.6182 18.6246 42.1301 18.8743 41.5854 19.1694C41.2789 19.3396 40.9044 19.5439 40.5299 19.7482C39.8148 20.1228 38.9636 20.6335 38.0443 21.1783C37.3293 21.6209 36.6484 22.0295 36.0014 22.4721L35.4226 22.8466C35.3545 22.892 35.2864 22.9374 35.2183 22.9828C34.7417 23.2892 34.2309 23.6638 33.7202 24.0043C33.3457 24.2766 32.9371 24.5831 32.5285 24.8895C32.2788 25.0711 32.0291 25.264 31.7794 25.4683C29.1577 27.5453 27.0467 29.6222 25.5146 31.6992L25.3103 31.9716C24.8336 32.6525 24.391 33.2995 24.0505 33.9804C23.7781 34.4911 23.5397 35.0019 23.3355 35.4786C23.1539 35.9552 23.0063 36.4092 22.8928 36.8405C22.6885 37.6576 22.5864 38.5089 22.5864 39.326H20.2371V0.000183105H68.0409V39.326ZM22.5864 2.31548V31.8354C22.8361 31.4495 23.1085 31.0409 23.4036 30.6096V29.8265H23.9824C25.6167 27.7496 27.7277 25.6726 30.3494 23.6297C30.5991 23.4254 30.8601 23.2212 31.1325 23.0169C31.5411 22.7104 31.9497 22.404 32.3583 22.0976C32.903 21.7117 33.4365 21.3485 33.9585 21.008L34.1288 20.9059C34.1742 20.8605 34.2309 20.8151 34.299 20.7697L34.7076 20.4973C35.3886 20.0547 36.1036 19.612 36.8526 19.1694C37.806 18.5906 38.6572 18.0799 39.4403 17.6713C39.8035 17.467 40.1553 17.274 40.4958 17.0925C41.0633 16.7974 41.5627 16.5363 41.9939 16.3093C43.0494 15.7986 43.6623 15.5262 43.6623 15.5262L44.139 15.2879L44.6157 15.5262C44.6497 15.5262 45.2626 15.7986 46.284 16.3093C46.6926 16.5136 47.2374 16.786 47.7822 17.0925C48.1453 17.274 48.5085 17.467 48.8717 17.6713C49.6435 18.1026 50.506 18.6019 51.4594 19.1694C52.2085 19.612 52.8894 20.0547 53.5704 20.4973L54.013 20.8037C54.1152 20.8378 54.2173 20.9059 54.3194 20.974C54.8642 21.3371 55.3976 21.7117 55.9197 22.0976C56.351 22.3926 56.7709 22.6991 57.1795 23.0169C57.4292 23.2212 57.6902 23.4254 57.9626 23.6297C60.5503 25.6726 62.6953 27.7496 64.2956 29.8265H64.8744L64.9085 30.6096C65.2036 31.0409 65.4759 31.4495 65.7256 31.8354V2.31548H22.5864Z" fill="#B28E68"/>
<path fill-rule="evenodd" clip-rule="evenodd" d="M68.0409 67.6198H20.2371V39.3256C20.2371 26.183 42.709 15.9685 43.6623 15.5258L44.139 15.3216L44.6157 15.5258C45.569 15.9685 68.0409 26.183 68.0409 39.3256V67.6198ZM22.5864 65.3045H65.7256V39.3256C65.7256 28.6345 47.3736 19.4074 44.139 17.8752C40.9385 19.4074 22.5864 28.6685 22.5864 39.3256V65.3045Z" fill="#B28E68"/>
<path d="M63.477 37.0102V63.2614H61.1958V32.9244C62.1832 34.2523 63.0004 35.6142 63.477 37.0102Z" fill="white"/>
<path d="M58.9162 30.3382V63.2629H52.1066V54.3423H54.3878V61.0157H56.635V28.2612C57.4181 28.9422 58.2012 29.6232 58.9162 30.3382Z" fill="white"/>
<path fill-rule="evenodd" clip-rule="evenodd" d="M54.3884 26.4553V52.0937H49.8259V63.2615H29.3629V52.0937H26.5028V63.2615H24.2556V39.9384C24.2556 38.951 24.4599 37.9636 24.8004 36.9762C25.3111 35.5803 26.0942 34.2183 27.0816 32.8904C27.7626 32.0052 28.5457 31.154 29.3629 30.3368C30.0779 29.6218 30.8269 28.9408 31.6441 28.2599V61.0144H38.4538V25.9786C37.682 26.478 36.9216 27.0001 36.1725 27.5448V58.8012H33.9254V26.4553C34.6744 25.8878 35.4235 25.3544 36.1725 24.855C36.9443 24.3329 37.7047 23.8449 38.4538 23.3909C39.2255 22.8916 39.986 22.4489 40.735 22.0631V61.0144H42.9822V20.8373C43.3908 20.633 43.7767 20.4401 44.1399 20.2585C44.503 20.4401 44.8776 20.633 45.2634 20.8373V61.0144H47.5447V22.0631C48.271 22.4716 49.0314 22.9143 49.8259 23.3909C50.575 23.8449 51.3354 24.3329 52.1071 24.855C52.8562 25.3657 53.6393 25.9105 54.3884 26.4553ZM29.3629 33.6395C28.3755 34.8312 27.5923 36.0229 27.0816 37.2146C26.7071 38.1339 26.5028 39.0532 26.5028 39.9384V49.8805H29.3629V33.6395ZM52.1071 27.5448C51.3581 27.0001 50.5977 26.478 49.8259 25.9786V49.8465H52.1071V27.5448Z" fill="white"/>
<path fill-rule="evenodd" clip-rule="evenodd" d="M7.02662 81.5804C6.68614 81.9549 6.27756 82.2954 5.69874 82.4657C5.25611 82.6359 4.77943 82.704 4.30275 82.704C3.86013 82.704 3.4175 82.6359 3.04297 82.4997H3.07701L3.00892 82.4657H2.97487C2.77058 83.1126 2.39605 83.5892 1.98747 83.8616C1.47675 84.2362 0.931975 84.4064 0.659588 84.4405C0.557443 84.4745 0.251004 84.4745 0.080762 84.3043C-0.0894797 84.0659 0.0467178 83.8276 0.148863 83.6574V83.6233C0.62554 83.419 0.829827 83.1466 0.966021 82.7721C1.06817 82.4657 1.10221 82.1252 1.10221 81.8187V79.3332C1.10221 78.9246 1.20436 78.5842 1.3065 78.2777V78.2437C1.64699 77.4605 2.2939 76.8817 3.11106 76.5753C3.48559 76.4051 3.96227 76.337 4.43894 76.337C5.22206 76.337 6.14137 76.5753 6.78829 77.2222C7.36711 77.801 7.63949 78.5841 7.67354 79.3332C7.67354 80.0482 7.77569 80.3206 7.94593 80.5249C8.08212 80.6951 8.18427 80.7292 8.49071 80.7292H9.51216V81.9549H8.01402C7.67354 81.9209 7.29901 81.8188 7.02662 81.5804ZM5.63064 79.7078C5.63064 79.0268 5.56254 78.6523 5.35825 78.2777V78.2437C5.32421 78.1756 5.25611 78.1415 5.25611 78.1075C5.01777 77.7329 4.77944 77.5968 4.4049 77.5968H4.3368C4.26871 77.6308 4.23466 77.6308 4.16656 77.6308C3.86013 77.6989 3.68989 77.801 3.51965 78.0394C3.3494 78.2437 3.2813 78.3799 3.24725 78.6182C3.17916 78.8565 3.14511 79.0608 3.14511 79.3673C3.14511 79.6737 3.17916 79.912 3.24725 80.1504C3.2813 80.4568 3.41749 80.6611 3.58774 80.9335L3.5537 80.8994C3.82608 81.274 4.06441 81.4102 4.43894 81.4102C4.88157 81.4102 5.08587 81.308 5.3242 80.9675C5.59659 80.6611 5.63064 80.3887 5.63064 79.7078Z" fill="white"/>
<path d="M12.2015 81.9547H8.86475V80.7289H12.2015V81.9547Z" fill="white"/>
<path d="M18.1945 79.197C18.5009 79.5375 18.7733 79.7417 18.9435 79.946L19.3521 80.3546C19.4883 80.4908 19.5905 80.627 19.6586 80.7292H21.2929V81.9549H20.2033C20.3055 82.3975 20.2714 82.8061 20.2033 83.1466C20.0671 83.5892 19.8288 83.9978 19.7267 84.2021C19.6586 84.2702 19.4543 84.5085 19.2159 84.4745C18.8073 84.4404 18.8073 84.0318 18.8414 83.8956C18.9435 83.453 18.8754 83.1466 18.7392 82.8061C18.6031 82.4997 18.3988 82.2613 18.1604 82.023L18.0923 81.9549H11.5551V80.7292H16.9006L14.2449 78.1415C14.1087 77.9712 14.0406 77.9372 14.0065 77.9372L13.5299 78.4138L12.8489 77.7329L14.7556 75.7921C16.458 77.4605 17.5135 78.516 18.1945 79.197Z" fill="white"/>
<path d="M24.5262 81.9545C23.7771 81.9205 23.5728 81.7162 23.1643 81.3757C22.7557 81.7502 22.1769 81.9545 21.6321 81.9545H20.3042V80.7288H20.9511C21.2576 80.7288 21.4618 80.6607 21.6661 80.4905C21.8704 80.2521 21.9726 80.0138 22.0407 79.469V74.0894H24.7645V75.0768C24.0495 75.0427 24.0495 75.0087 24.0495 75.3832V79.469C24.1176 80.3543 24.4921 80.7288 25.2072 80.7288H25.8881V81.9545H24.5262Z" fill="white"/>
<path fill-rule="evenodd" clip-rule="evenodd" d="M33.2101 79.5375C33.2101 80.4909 32.8697 81.308 32.2568 81.8528C31.678 82.4316 30.7927 82.704 29.8053 82.704C28.886 82.704 28.0007 82.3295 27.49 81.8187C27.4219 81.7506 27.3538 81.6825 27.2857 81.6145C27.1495 81.6825 26.9793 81.7847 26.8431 81.8187C26.6729 81.9209 26.4686 81.9549 26.2983 81.9549H24.9023V80.7292H25.8216C26.094 80.7292 26.1962 80.6952 26.3324 80.559C26.4686 80.4228 26.5707 80.2185 26.6048 79.7078V79.5375C26.6048 78.7204 26.8091 78.0394 27.2857 77.4946C27.7965 76.8136 28.8179 76.337 29.9755 76.337C30.8948 76.337 31.8142 76.7115 32.3249 77.2222C32.9037 77.801 33.2101 78.6182 33.2101 79.5375ZM31.1672 79.7078C31.1672 78.9246 31.0651 78.5161 30.7927 78.1075C30.5203 77.7329 30.316 77.5968 29.9074 77.5968C29.3286 77.5968 29.1243 77.801 28.7158 78.482V78.6522C28.6817 78.8565 28.6817 79.0949 28.6817 79.3673C28.6817 80.1163 28.8179 80.4909 29.0903 80.8994C29.3627 81.274 29.567 81.4102 29.9755 81.4102C30.3841 81.4102 30.6225 81.308 30.8608 80.9675C31.0992 80.6611 31.1672 80.3887 31.1672 79.7078Z" fill="white"/>
<path d="M44.7167 75.3832V79.5371C44.7167 80.1159 44.4103 80.7969 44.0017 81.2055C43.5591 81.614 42.8782 81.9545 42.2653 81.9545H40.4267C39.5414 81.9545 38.7242 81.614 38.2476 81.1033C37.7368 80.5926 37.4304 79.8435 37.4304 79.0945C37.4304 78.3454 37.7028 77.5963 38.1795 77.1197C38.6902 76.5749 39.5414 76.3025 40.4267 76.3366L40.9034 77.5963C39.95 77.4942 39.5074 78.039 39.5074 79.0945C39.5074 80.0819 39.8478 80.7288 40.631 80.7288H41.6184C41.8907 80.7288 42.095 80.6607 42.2993 80.4905C42.5377 80.2521 42.6398 80.0138 42.6738 79.503V74.0894H45.4318V75.0768H44.853C44.7508 75.0768 44.7167 75.0768 44.7167 75.3832Z" fill="white"/>
<path d="M49.1451 75.0756C48.4642 75.0416 48.4301 75.0075 48.4301 75.3821V81.9534H46.4213V74.0882H49.1451V75.0756ZM47.0682 72.3858H48.2599C48.7366 72.488 49.0771 72.7263 49.2473 72.9646C49.4516 73.237 49.4856 73.5094 49.5537 73.6456C49.6218 73.8499 49.4175 73.918 49.3494 73.7818C49.043 73.2711 48.6004 73.237 48.2599 73.237H46.5234V71.9772H46.7617V72.1475C46.7617 72.3858 46.8299 72.3858 47.0682 72.3858Z" fill="white"/>
<path fill-rule="evenodd" clip-rule="evenodd" d="M58.9837 77.3233C58.8134 77.3233 58.8475 77.2552 58.8475 77.6638V81.9539H55.8853C55.1702 81.9539 54.3531 81.6474 53.8083 81.2048C53.1954 80.7281 52.7188 79.9791 52.7188 79.1279C52.7188 78.3107 53.1614 77.5276 53.8424 77.0509C54.4893 76.6083 55.4767 76.3359 56.5662 76.3359H59.5284V77.3233H58.9837ZM54.1147 74.259C54.1147 73.7482 54.5914 73.2034 55.1362 73.2034C55.6469 73.2034 56.1236 73.7482 56.1236 74.259C56.1236 74.7356 55.6469 75.2463 55.1362 75.2463C54.5914 75.2463 54.1147 74.7356 54.1147 74.259ZM55.4767 77.834C55.034 78.1064 54.7276 78.515 54.7276 79.1619C54.7276 80.0812 55.2043 80.7281 55.8853 80.7281H56.8046V77.6638C56.3279 77.5616 55.8853 77.6297 55.4767 77.834ZM56.4981 74.259C56.4981 73.7142 57.0429 73.2034 57.5196 73.2034C58.0303 73.2034 58.541 73.7142 58.541 74.259C58.541 74.7356 58.0303 75.2463 57.5196 75.2463C57.0429 75.2463 56.4981 74.7356 56.4981 74.259Z" fill="white"/>
<path d="M62.7989 77.6309V80.7294H64.8077V81.9551H62.7648C62.6286 82.7382 62.186 83.283 61.7433 83.5894C61.2326 83.9639 60.6198 84.1342 60.3474 84.2023C60.2452 84.2023 59.9388 84.2023 59.8026 84.032C59.5983 83.8277 59.7345 83.5554 59.8366 83.4192V83.3851C60.3133 83.1468 60.5176 82.8744 60.6538 82.4999C60.756 82.1934 60.79 81.887 60.79 81.5806V76.3371H63.5139V77.3245H62.935C62.8329 77.3245 62.7989 77.3586 62.7989 77.6309Z" fill="white"/>
<path d="M67.4974 81.9547H64.1606V80.7289H67.4974V81.9547Z" fill="white"/>
<path d="M70.5262 81.9547H67.1895V80.7289H70.5262V81.9547Z" fill="white"/>
<path d="M73.5585 81.9547H70.1877V80.7289H73.5585V81.9547Z" fill="white"/>
<path d="M84.5891 77.3244H84.0103C83.9081 77.3244 83.8741 77.3584 83.8741 77.6649V79.1289C83.8741 81.6485 80.8438 82.7721 79.3456 81.3761C78.5285 82.0571 77.0304 82.3635 75.9749 81.2059L75.7365 81.4102C75.7025 81.4442 75.6684 81.4782 75.6684 81.4782C75.2939 81.7847 74.9194 81.9549 74.4086 81.9549H72.8765V80.7292H73.7277C74.4767 80.7292 74.8853 80.3547 74.8853 79.5375V76.6774H77.6092V77.6649H77.0644C76.9282 77.6649 76.8942 77.6649 76.8942 78.3458V80.2525C76.8942 81.0016 78.2221 80.9675 78.3583 80.2185V76.5072H81.0821V77.4946H80.5373C80.3671 77.4946 80.3671 77.4265 80.3671 77.801V80.3206C80.5033 80.9675 81.8312 80.7973 81.8312 80.2525V76.337H84.5891V77.3244Z" fill="white"/>
<path d="M88.2993 75.0762C87.6183 75.0422 87.6183 75.0082 87.6183 75.3827V81.954H85.5754V74.0889H88.2993V75.0762ZM88.0269 71.4671C88.2312 71.6714 88.1972 71.8417 88.1972 72.1821H87.8226C87.8226 71.8757 87.6864 71.7736 87.3119 71.7736C86.9374 71.7736 86.7671 72.0119 86.7671 72.3524C86.7671 72.6929 86.9374 72.9312 87.3119 72.9312H88.2653V73.476H85.7116V72.9652H86.1543C85.984 72.795 85.9159 72.5567 85.9159 72.3524C85.9159 71.7736 86.4607 71.2969 87.2438 71.2969C87.5843 71.2969 87.8907 71.365 88.0269 71.4671Z" fill="white"/>
</svg>
