<svg width="425" height="1280" viewBox="0 0 425 1280" fill="none" xmlns="http://www.w3.org/2000/svg">
<path d="M-596.514 1071.24L323.027 183.002L205.874 61.7205L-43.267 302.38L-4.0206 343.01L182.36 162.974L221.02 202.997L-693.767 1086.64C-661.276 1082.22 -628.784 1077.79 -596.514 1071.24Z" fill="#B28E68"/>
<path fill-rule="evenodd" clip-rule="evenodd" d="M95.4855 352.35L116.318 357.599L116.285 382.299L105.764 392.434L84.3518 370.539L95.4855 352.35ZM112.158 360.633L97.2307 356.836L89.137 369.825L105.684 386.669L112.197 380.395L112.158 360.633Z" fill="#B89672"/>
<path fill-rule="evenodd" clip-rule="evenodd" d="M64.7138 381.99L84.3518 370.539L105.597 392.595L94.1572 403.614L68.7839 403.386L64.7138 381.99ZM83.4215 375.655L69.3872 383.98L72.213 399.434L92.4893 399.378L99.4601 392.663L83.4215 375.655Z" fill="#B89672"/>
<path fill-rule="evenodd" clip-rule="evenodd" d="M69.6756 403.591L94.7933 403.001L69.3409 427.518L63.8001 424.159L69.6756 403.591ZM84.9807 407.173L72.7479 407.465L68.6131 422.318L68.9235 422.64L84.9807 407.173Z" fill="#B89672"/>
<path fill-rule="evenodd" clip-rule="evenodd" d="M116.938 358.066L138.138 352.864L141.268 358.234L114.959 383.576L116.938 358.066ZM135.869 357.223L120.55 361.109L119.582 373.533L136.18 357.545L135.869 357.223Z" fill="#B89672"/>
<path fill-rule="evenodd" clip-rule="evenodd" d="M66.7468 352.263C73.5035 345.754 81.066 340.776 89.599 337.499C89.7723 337.332 90.4566 337.002 90.9677 336.839C108.034 330.285 126.954 330.51 143.84 337.637L144.342 337.812C144.567 337.815 144.844 337.987 145.174 338.329C148.015 339.545 150.684 340.928 153.681 342.653L156.012 344.033L55.1812 441.157L53.8901 438.777C52.163 435.828 50.7708 432.995 49.7136 430.28C49.393 429.6 49.2285 429.429 49.0725 428.921C42.5821 411.78 43.0654 392.865 50.6008 375.722C50.4362 375.551 50.7826 375.218 50.7912 374.88C54.7293 366.254 60.0478 358.715 66.7468 352.263ZM142.393 341.336C126.175 334.555 108.433 334.513 92.051 340.738C91.8778 340.905 91.5399 340.9 91.3667 341.067C74.9764 347.63 61.6362 360.48 54.6465 376.108L54.1095 377.285C47.2757 393.422 46.8183 411.324 52.9967 427.447L53.3087 428.464C54.1578 430.502 55.1197 432.54 56.1942 434.58L149.229 344.966C147.23 343.816 145.229 342.778 143.225 341.853L142.393 341.336Z" fill="#B89672"/>
<path fill-rule="evenodd" clip-rule="evenodd" d="M66.6605 352.346C73.3933 345.861 80.9343 340.905 89.448 337.651C89.7933 337.318 90.3034 337.157 90.6408 337.161L95.2311 335.708L92.7512 340.734L79.8416 366.03L49.3018 380.278L50.4164 375.907C50.5367 375.571 50.657 375.236 50.7773 374.9C54.6908 366.294 59.9852 358.776 66.6605 352.346ZM86.9603 343.015C73.8169 349.41 63.1133 359.72 56.5762 372.282L76.8759 362.951L86.9603 343.015Z" fill="#B89672"/>
<path d="M85.3666 339.881L88.9909 337.724C89.5129 337.221 90.0276 337.059 90.3682 337.065L90.5275 337.578L90.7016 337.411L91.3754 337.762L116.9 347.198L143.501 338.251L144.949 342.193L144.094 342.349L116.804 351.625L85.3666 339.881Z" fill="#B89672"/>
<path fill-rule="evenodd" clip-rule="evenodd" d="M80.3063 211.185L101.139 216.435L101.106 241.135L90.5844 251.27L69.1727 229.375L80.3063 211.185ZM96.9785 219.469L82.0516 215.671L73.9579 228.661L90.5044 245.505L97.0178 239.231L96.9785 219.469Z" fill="#B89672"/>
<path fill-rule="evenodd" clip-rule="evenodd" d="M49.5347 240.826L69.1727 229.375L90.4175 251.431L78.9781 262.449L53.6048 262.222L49.5347 240.826ZM68.2424 234.491L54.2081 242.816L57.0339 258.27L77.3101 258.214L84.281 251.499L68.2424 234.491Z" fill="#B89672"/>
<path fill-rule="evenodd" clip-rule="evenodd" d="M54.4965 262.427L79.6142 261.837L54.1618 286.354L48.621 282.995L54.4965 262.427ZM69.8016 266.009L57.5688 266.301L53.434 281.154L53.7444 281.476L69.8016 266.009Z" fill="#B89672"/>
<path fill-rule="evenodd" clip-rule="evenodd" d="M101.759 216.902L122.959 211.7L126.089 217.07L99.7803 242.412L101.759 216.902ZM120.69 216.059L105.371 219.945L104.403 232.369L121.001 216.381L120.69 216.059Z" fill="#B89672"/>
<path fill-rule="evenodd" clip-rule="evenodd" d="M51.5677 211.099C58.3244 204.59 65.8869 199.612 74.4199 196.335C74.5931 196.168 75.2775 195.838 75.7886 195.675C92.8545 189.12 111.775 189.345 128.66 196.473L129.163 196.648C129.388 196.651 129.665 196.823 129.995 197.165C132.836 198.381 135.505 199.764 138.502 201.489L140.833 202.869L40.0021 299.993L38.711 297.612C36.9839 294.664 35.5917 291.831 34.5345 289.116C34.2139 288.436 34.0494 288.265 33.8934 287.757C27.403 270.616 27.8863 251.701 35.4217 234.558C35.257 234.387 35.6035 234.054 35.6121 233.716C39.5502 225.09 44.8687 217.551 51.5677 211.099ZM127.214 200.172C110.996 193.391 93.2535 193.349 76.8719 199.574C76.6986 199.74 76.3608 199.736 76.1875 199.903C59.7973 206.466 46.4571 219.316 39.4674 234.944L38.9304 236.12C32.0966 252.258 31.6392 270.16 37.8176 286.283L38.1295 287.3C38.9787 289.338 39.9406 291.376 41.0151 293.416L134.05 203.801C132.051 202.651 130.05 201.614 128.046 200.689L127.214 200.172Z" fill="#B89672"/>
<path fill-rule="evenodd" clip-rule="evenodd" d="M51.4814 211.182C58.2142 204.696 65.7551 199.741 74.2689 196.487C74.6142 196.154 75.1242 195.992 75.4616 195.997L80.052 194.543L77.5721 199.57L64.6625 224.866L34.1227 239.114L35.2373 234.743C35.3576 234.407 35.4779 234.072 35.5982 233.736C39.5117 225.13 44.8061 217.612 51.4814 211.182ZM71.7812 201.851C58.6377 208.246 47.9342 218.556 41.397 231.118L61.6967 221.787L71.7812 201.851Z" fill="#B89672"/>
<path d="M70.1875 198.717L73.8118 196.56C74.3338 196.057 74.8485 195.895 75.1891 195.901L75.3484 196.414L75.5224 196.247L76.1963 196.598L101.72 206.034L128.322 197.087L129.77 201.029L128.915 201.185L101.625 210.461L70.1875 198.717Z" fill="#B89672"/>
<path fill-rule="evenodd" clip-rule="evenodd" d="M188.69 284.786L184.224 263.772L159.54 262.88L149.019 273.015L170.097 295.231L188.69 284.786ZM181.037 267.816L184.273 282.875L170.99 290.476L154.777 273.311L161.291 267.037L181.037 267.816Z" fill="#B89672"/>
<path fill-rule="evenodd" clip-rule="evenodd" d="M157.919 314.427L170.097 295.231L148.852 273.176L137.413 284.195L136.69 309.559L157.919 314.427ZM164.95 295.969L156.105 309.682L140.768 306.28L141.583 286.02L148.554 279.305L164.95 295.969Z" fill="#B89672"/>
<path fill-rule="evenodd" clip-rule="evenodd" d="M136.518 308.66L138.049 283.582L112.596 308.099L115.746 313.761L136.518 308.66ZM133.512 293.231L132.763 305.445L117.765 309.021L117.455 308.698L133.512 293.231Z" fill="#B89672"/>
<path fill-rule="evenodd" clip-rule="evenodd" d="M183.781 263.135L189.773 242.145L184.524 238.815L158.215 264.157L183.781 263.135ZM185.332 244.248L180.875 259.411L168.424 259.914L185.022 243.926L185.332 244.248Z" fill="#B89672"/>
<path fill-rule="evenodd" clip-rule="evenodd" d="M187.702 313.508C194.458 307 199.716 299.629 203.311 291.225C203.484 291.058 203.839 290.386 204.021 289.882C211.21 273.073 211.693 254.157 205.203 237.017L205.047 236.508C205.053 236.283 204.891 236 204.562 235.658C203.452 232.773 202.17 230.054 200.558 226.994L199.267 224.614L98.4365 321.738L100.767 323.117C103.649 324.954 106.427 326.451 109.102 327.609C109.769 327.955 109.933 328.126 110.436 328.301C127.321 335.428 146.242 335.653 163.654 328.765C163.819 328.936 164.165 328.602 164.503 328.606C173.27 324.994 181.003 319.961 187.702 313.508ZM201.452 238.324C207.622 254.785 206.999 272.516 200.166 288.653C199.992 288.82 199.984 289.158 199.811 289.325C192.639 305.458 179.299 318.308 163.42 324.707L162.224 325.2C145.843 331.425 127.936 331.212 112.055 324.434L111.05 324.084C109.046 323.16 107.045 322.122 105.047 320.972L198.081 231.357C199.156 233.397 200.117 235.436 200.967 237.474L201.452 238.324Z" fill="#B89672"/>
<path fill-rule="evenodd" clip-rule="evenodd" d="M187.615 313.591C194.348 307.106 199.582 299.756 203.153 291.37C203.499 291.037 203.679 290.533 203.687 290.196L205.311 285.663L200.195 287.953L174.434 299.907L159.053 329.892L163.463 328.942C163.803 328.834 164.143 328.727 164.483 328.619C173.229 325.03 180.94 320.021 187.615 313.591ZM197.7 293.655C190.817 306.55 180.114 316.86 167.316 322.922L177.4 302.986L197.7 293.655Z" fill="#B89672"/>
<path d="M200.772 295.365L203.063 291.824C203.585 291.321 203.766 290.813 203.773 290.472L203.266 290.294L203.44 290.126L203.114 289.44L194.641 263.58L204.576 237.333L200.692 235.738L200.503 236.586L190.212 263.51L200.772 295.365Z" fill="#B89672"/>
<path fill-rule="evenodd" clip-rule="evenodd" d="M173.511 143.622L169.045 122.607L144.361 121.716L133.84 131.85L154.918 154.067L173.511 143.622ZM165.857 126.651L169.094 141.71L155.811 149.312L139.598 132.146L146.111 125.872L165.857 126.651Z" fill="#B89672"/>
<path fill-rule="evenodd" clip-rule="evenodd" d="M142.74 173.262L154.918 154.067L133.673 132.011L122.233 143.03L121.511 168.394L142.74 173.262ZM149.771 154.805L140.926 168.518L125.588 165.115L126.404 144.855L133.375 138.141L149.771 154.805Z" fill="#B89672"/>
<path fill-rule="evenodd" clip-rule="evenodd" d="M121.339 167.495L122.869 142.417L97.4171 166.934L100.566 172.597L121.339 167.495ZM118.333 152.067L117.584 164.28L102.586 167.856L102.276 167.534L118.333 152.067Z" fill="#B89672"/>
<path fill-rule="evenodd" clip-rule="evenodd" d="M168.602 121.97L174.594 100.98L169.345 97.6507L143.036 122.993L168.602 121.97ZM170.153 103.084L165.696 118.247L153.245 118.749L169.842 102.762L170.153 103.084Z" fill="#B89672"/>
<path fill-rule="evenodd" clip-rule="evenodd" d="M172.522 172.344C179.279 165.835 184.537 158.464 188.132 150.06C188.305 149.893 188.66 149.222 188.842 148.717C196.031 131.908 196.514 112.993 190.024 95.8525L189.868 95.3438C189.873 95.1187 189.712 94.8352 189.382 94.4934C188.273 91.6082 186.991 88.8898 185.379 85.8297L184.088 83.4491L83.2574 180.574L85.5879 181.953C88.47 183.789 91.2483 185.286 93.9224 186.444C94.5895 186.79 94.7541 186.961 95.2566 187.136C112.142 194.264 131.062 194.489 148.475 187.6C148.639 187.771 148.986 187.437 149.324 187.441C158.091 183.829 165.824 178.796 172.522 172.344ZM186.273 97.1594C192.442 113.62 191.82 131.352 184.987 147.489C184.813 147.656 184.805 147.993 184.631 148.16C177.46 164.293 164.12 177.143 148.241 183.543L147.045 184.035C130.663 190.26 112.757 190.047 96.8762 183.27L95.8713 182.92C93.8671 181.995 91.8658 180.958 89.8674 179.807L182.902 90.1927C183.976 92.2328 184.938 94.2716 185.787 96.309L186.273 97.1594Z" fill="#B89672"/>
<path fill-rule="evenodd" clip-rule="evenodd" d="M172.436 172.427C179.169 165.941 184.403 158.591 187.974 150.205C188.319 149.873 188.5 149.369 188.508 149.032L190.132 144.499L185.016 146.789L159.255 158.742L143.874 188.728L148.283 187.777C148.623 187.67 148.963 187.562 149.303 187.454C158.05 183.866 165.761 178.857 172.436 172.427ZM182.521 152.49C175.638 165.385 164.935 175.695 152.136 181.758L162.221 161.821L182.521 152.49Z" fill="#B89672"/>
<path d="M185.592 154.2L187.883 150.659C188.405 150.157 188.587 149.648 188.594 149.308L188.087 149.129L188.261 148.962L187.935 148.275L179.461 122.416L189.397 96.168L185.513 94.573L185.324 95.4217L175.033 122.345L185.592 154.2Z" fill="#B89672"/>
<path fill-rule="evenodd" clip-rule="evenodd" d="M14.3427 296.94L9.87645 275.925L-14.8073 275.034L-25.3289 285.168L-4.25101 307.385L14.3427 296.94ZM6.68881 279.969L9.92526 295.028L-3.35792 302.63L-19.5705 285.464L-13.0572 279.19L6.68881 279.969Z" fill="#B89672"/>
<path fill-rule="evenodd" clip-rule="evenodd" d="M9.43315 275.288L15.4253 254.298L10.176 250.969L-16.133 276.311L9.43315 275.288ZM10.9841 256.402L6.52753 271.565L-5.92374 272.067L10.6738 256.08L10.9841 256.402Z" fill="#B89672"/>
<path fill-rule="evenodd" clip-rule="evenodd" d="M18.3091 320.889C25.042 314.403 30.2763 307.053 33.8471 298.667C34.1924 298.334 34.3729 297.831 34.3807 297.493L36.0053 292.961L30.8891 295.251L5.12796 307.204L-10.2535 337.189L-5.84365 336.239C-5.50362 336.132 -5.16364 336.024 -4.82361 335.916C3.92296 332.328 11.6338 327.318 18.3091 320.889ZM28.3935 300.952C21.5111 313.847 10.8076 324.157 -1.99061 330.22L8.09375 310.283L28.3935 300.952Z" fill="#B89672"/>
<path d="M26.4238 307.518L28.7149 303.977C29.2368 303.474 29.4182 302.966 29.4255 302.626L28.9181 302.447L29.0922 302.28L28.7662 301.593L20.2928 275.734L30.2286 249.486L26.3443 247.891L26.1556 248.74L15.8645 275.663L26.4238 307.518Z" fill="#B89672"/>
<path fill-rule="evenodd" clip-rule="evenodd" d="M27.3612 440.185L22.8949 419.171L-1.78883 418.279L-12.3104 428.414L8.76746 450.63L27.3612 440.185ZM19.7073 423.215L22.9437 438.273L9.66055 445.875L-6.55208 428.71L-0.0387421 422.436L19.7073 423.215Z" fill="#B89672"/>
<path fill-rule="evenodd" clip-rule="evenodd" d="M-3.41043 469.826L8.76746 450.63L-12.4774 428.575L-23.9167 439.594L-24.6396 464.958L-3.41043 469.826ZM3.6207 451.368L-5.224 465.081L-20.5617 461.679L-19.7464 441.419L-12.7755 434.704L3.6207 451.368Z" fill="#B89672"/>
<path fill-rule="evenodd" clip-rule="evenodd" d="M22.4516 418.534L28.4437 397.544L23.1945 394.214L-3.1145 419.556L22.4516 418.534ZM24.0026 399.647L19.546 414.81L7.09473 415.313L23.6922 399.325L24.0026 399.647Z" fill="#B89672"/>
<path fill-rule="evenodd" clip-rule="evenodd" d="M26.3724 468.907C33.1291 462.399 38.387 455.028 41.9815 446.624C42.1547 446.457 42.5098 445.785 42.6917 445.281C49.8805 428.472 50.3639 409.556 43.8735 392.416L43.7175 391.907C43.7233 391.682 43.5615 391.399 43.2323 391.057C42.1231 388.172 40.8408 385.453 39.2291 382.393L37.938 380.013L-62.8928 477.137L-60.5622 478.516C-57.6801 480.353 -54.9019 481.85 -52.2277 483.008C-51.5606 483.354 -51.396 483.525 -50.8935 483.7C-34.0082 490.827 -15.0877 491.052 2.32473 484.164C2.48935 484.335 2.83584 484.001 3.17371 484.005C11.9406 480.392 19.6734 475.36 26.3724 468.907ZM40.1225 393.723C46.2923 410.184 45.6702 427.915 38.8364 444.052C38.6632 444.219 38.6546 444.557 38.4813 444.724C31.3097 460.857 17.9695 473.707 2.09042 480.106L0.894914 480.599C-15.4867 486.824 -33.3935 486.611 -49.2739 479.833L-50.2789 479.483C-52.2831 478.559 -54.2843 477.521 -56.2827 476.371L36.7518 386.756C37.8263 388.796 38.7881 390.835 39.6373 392.872L40.1225 393.723Z" fill="#B89672"/>
<path fill-rule="evenodd" clip-rule="evenodd" d="M26.2861 468.99C33.0189 462.505 38.2532 455.155 41.824 446.769C42.1693 446.436 42.3498 445.932 42.3577 445.595L43.9822 441.062L38.8661 443.352L13.1049 455.306L-2.27662 485.291L2.13328 484.341C2.47331 484.233 2.81329 484.126 3.15332 484.018C11.8999 480.429 19.6108 475.42 26.2861 468.99ZM36.3705 449.054C29.4881 461.949 18.7845 472.259 5.98632 478.321L16.0707 458.385L36.3705 449.054Z" fill="#B89672"/>
<path d="M39.4423 450.764L41.7333 447.223C42.2553 446.72 42.4367 446.212 42.444 445.871L41.9366 445.693L42.1107 445.525L41.7847 444.839L33.3113 418.979L43.2471 392.731L39.3627 391.136L39.1741 391.985L28.883 418.909L39.4423 450.764Z" fill="#B89672"/>
<path fill-rule="evenodd" clip-rule="evenodd" d="M259.696 194.176L280.529 199.426L280.496 224.125L269.974 234.26L248.562 212.365L259.696 194.176ZM276.368 202.46L261.441 198.662L253.348 211.651L269.894 228.495L276.407 222.221L276.368 202.46Z" fill="#B89672"/>
<path fill-rule="evenodd" clip-rule="evenodd" d="M228.924 223.816L248.561 212.365L269.806 234.421L258.367 245.44L232.994 245.213L228.924 223.816ZM247.631 217.481L233.597 225.806L236.423 241.26L256.699 241.204L263.67 234.489L247.631 217.481Z" fill="#B89672"/>
<path fill-rule="evenodd" clip-rule="evenodd" d="M233.886 245.418L259.003 244.827L233.551 269.344L228.01 265.985L233.886 245.418ZM249.191 248.999L236.958 249.291L232.823 264.144L233.134 264.466L249.191 248.999Z" fill="#B89672"/>
<path fill-rule="evenodd" clip-rule="evenodd" d="M281.148 199.892L302.348 194.69L305.479 200.06L279.17 225.402L281.148 199.892ZM300.079 199.049L284.76 202.935L283.792 215.359L300.39 199.372L300.079 199.049Z" fill="#B89672"/>
<path fill-rule="evenodd" clip-rule="evenodd" d="M230.957 194.089C237.714 187.58 245.276 182.602 253.809 179.325C253.982 179.158 254.667 178.828 255.178 178.665C272.244 172.111 291.164 172.336 308.05 179.463L308.552 179.638C308.777 179.641 309.055 179.813 309.384 180.155C312.225 181.371 314.894 182.754 317.892 184.48L320.222 185.859L219.391 282.983L218.1 280.603C216.373 277.654 214.981 274.822 213.924 272.106C213.603 271.426 213.439 271.255 213.283 270.747C206.792 253.606 207.276 234.691 214.811 217.548C214.646 217.378 214.993 217.044 215.001 216.706C218.939 208.081 224.258 200.541 230.957 194.089ZM306.603 183.163C290.385 176.381 272.643 176.339 256.261 182.564C256.088 182.731 255.75 182.727 255.577 182.894C239.187 189.456 225.846 202.306 218.857 217.934L218.32 219.111C211.486 235.248 211.028 253.15 217.207 269.273L217.519 270.29C218.368 272.328 219.33 274.366 220.404 276.407L313.439 186.792C311.44 185.642 309.439 184.604 307.435 183.679L306.603 183.163Z" fill="#B89672"/>
<path fill-rule="evenodd" clip-rule="evenodd" d="M230.871 194.172C237.603 187.686 245.144 182.731 253.658 179.476C254.003 179.144 254.514 178.982 254.851 178.987L259.441 177.533L256.961 182.56L244.052 207.856L213.512 222.104L214.627 217.733C214.747 217.397 214.867 217.061 214.987 216.726C218.901 208.119 224.195 200.601 230.871 194.172ZM251.17 184.84C238.027 191.235 227.323 201.545 220.786 214.108L241.086 204.777L251.17 184.84Z" fill="#B89672"/>
<path d="M249.577 181.707L253.201 179.55C253.723 179.047 254.238 178.885 254.578 178.89L254.738 179.404L254.912 179.236L255.586 179.588L281.11 189.023L307.711 180.077L309.159 184.018L308.304 184.175L281.014 193.451L249.577 181.707Z" fill="#B89672"/>
<path fill-rule="evenodd" clip-rule="evenodd" d="M214.571 122.492L219.877 101.673L244.576 101.772L254.683 112.32L232.731 133.674L214.571 122.492ZM222.899 105.842L219.062 120.758L232.03 128.887L248.917 112.385L242.661 105.855L222.899 105.842Z" fill="#B89672"/>
<path fill-rule="evenodd" clip-rule="evenodd" d="M244.13 153.343L232.731 133.674L254.843 112.488L265.832 123.957L265.537 149.33L244.13 153.343ZM237.844 134.618L246.132 148.675L261.594 145.89L261.591 125.614L254.895 118.625L237.844 134.618Z" fill="#B89672"/>
<path fill-rule="evenodd" clip-rule="evenodd" d="M265.744 148.438L265.221 123.319L289.67 148.837L286.296 154.369L265.744 148.438ZM269.367 133.143L269.626 145.377L284.468 149.551L284.791 149.241L269.367 133.143Z" fill="#B89672"/>
<path fill-rule="evenodd" clip-rule="evenodd" d="M220.345 101.054L215.199 79.8408L220.578 76.7246L245.85 103.101L220.345 101.054ZM219.553 82.121L223.398 97.4505L235.819 98.4516L219.876 81.8115L219.553 82.121Z" fill="#B89672"/>
<path fill-rule="evenodd" clip-rule="evenodd" d="M214.408 151.23C207.917 144.456 202.959 136.88 199.705 128.339C199.538 128.165 199.21 127.48 199.049 126.968C192.54 109.885 192.815 90.9649 199.988 74.0986L200.164 73.5967C200.167 73.3715 200.34 73.0947 200.683 72.7664C201.907 69.928 203.297 67.2632 205.03 64.2701L206.416 61.9433L303.271 163.032L300.887 164.317C297.934 166.037 295.098 167.421 292.379 168.471C291.699 168.79 291.527 168.954 291.018 169.109C273.861 175.553 254.947 175.02 237.824 167.439C237.653 167.603 237.32 167.255 236.982 167.246C228.367 163.285 220.843 157.946 214.408 151.23ZM203.683 75.5549C196.858 91.755 196.769 109.497 202.95 125.895C203.117 126.069 203.112 126.407 203.278 126.58C209.797 142.988 222.611 156.363 238.221 163.394L239.396 163.934C255.515 170.811 273.416 171.316 289.555 165.18L290.573 164.871C292.613 164.027 294.654 163.071 296.697 162.002L207.33 68.729C206.175 70.7243 205.132 72.7229 204.202 74.7246L203.683 75.5549Z" fill="#B89672"/>
<path fill-rule="evenodd" clip-rule="evenodd" d="M214.491 151.317C208.023 144.567 203.088 137.013 199.856 128.49C199.524 128.144 199.364 127.633 199.37 127.296L197.928 122.702L202.949 125.195L228.21 138.172L242.377 168.75L238.008 167.624C237.673 167.502 237.338 167.381 237.002 167.26C228.407 163.324 220.903 158.009 214.491 151.317ZM205.214 130.992C211.573 144.153 221.855 154.884 234.4 161.454L225.123 141.13L205.214 130.992Z" fill="#B89672"/>
<path d="M202.076 132.577L199.929 128.947C199.427 128.424 199.266 127.909 199.273 127.568L199.787 127.41L199.62 127.236L199.973 126.563L209.476 101.064L200.601 74.4392L204.546 73.0012L204.701 73.8569L213.904 101.171L202.076 132.577Z" fill="#B89672"/>
<path d="M-667.648 1262.11C-635.708 1257.76 -603.788 1253.38 -572.084 1246.94L346.993 359.155L230.535 238.592L-17.8868 478.557L20.6648 518.467L207.045 338.432L246.4 379.174L-667.648 1262.11Z" stroke="#B8C9C7"/>
<path d="M-777.766 1049.22C-748.332 1047.29 -718.922 1045.34 -689.851 1041.45L105.871 272.813L-10.5869 152.251L-225.591 359.935L-187.039 399.845L-25.6583 243.958L13.6967 284.7L-777.766 1049.22Z" stroke="#315651"/>
</svg>
