<svg width="52" height="52" viewBox="0 0 52 52" fill="none" xmlns="http://www.w3.org/2000/svg">
<path fill-rule="evenodd" clip-rule="evenodd" d="M22.5008 22.7621L13.8996 13.9003L18.1568 7.12354L25.8892 9.12181L25.8023 21.372L22.5008 22.7621ZM15.811 13.7265L22.8483 21.0245L24.4122 20.4163V10.2512L18.8518 8.86115L15.811 13.7265Z" fill="#B28E68"/>
<path fill-rule="evenodd" clip-rule="evenodd" d="M29.1917 22.7621L25.8033 21.372V9.12181L33.5357 7.12354L37.706 13.9003L29.1917 22.7621ZM27.3672 20.4163L28.8442 21.0245L35.9684 13.7265L32.9275 8.86115L27.3672 10.2512V20.4163Z" fill="#B28E68"/>
<path fill-rule="evenodd" clip-rule="evenodd" d="M44.0491 31.7982L42.5721 30.9294C40.1395 29.4525 37.9674 28.2361 36.0561 27.1936L33.6234 25.8035H42.5721L44.0491 31.7982ZM39.1838 27.1936C39.9946 27.6569 40.8345 28.1493 41.7033 28.6705L41.3558 27.1936H39.1838Z" fill="#B28E68"/>
<path fill-rule="evenodd" clip-rule="evenodd" d="M42.5703 25.8029H30.2333L28.9301 22.5015L37.705 13.9003L44.4817 18.0705L42.5703 25.8029ZM31.2758 24.326H41.4409L42.7441 18.7656L37.8788 15.8116L30.6677 22.849L31.2758 24.326Z" fill="#B28E68"/>
<path fill-rule="evenodd" clip-rule="evenodd" d="M7.55853 31.7982L9.12238 25.8035H18.0711L15.5515 27.1936C13.6401 28.2361 11.4682 29.4525 9.12238 30.9294L7.55853 31.7982ZM10.2518 27.1936L9.81741 28.6705C10.6862 28.1493 11.5261 27.6569 12.337 27.1936H10.2518Z" fill="#B28E68"/>
<path fill-rule="evenodd" clip-rule="evenodd" d="M9.12178 25.8029L7.21039 18.0705L13.9002 13.9003L22.7621 22.5015L21.4589 25.8029H9.12178ZM8.86114 18.7656L10.2512 24.326H20.4163L21.0245 22.849L13.7264 15.7247L8.86114 18.7656Z" fill="#B28E68"/>
<path fill-rule="evenodd" clip-rule="evenodd" d="M22.5008 28.7L13.8996 37.5618L18.1568 44.3385L25.8892 42.3402L25.8023 30.0901L22.5008 28.7ZM15.811 37.7356L22.8483 30.4376L24.4122 31.0457V41.2108L18.8518 42.6009L15.811 37.7356Z" fill="#B28E68"/>
<path fill-rule="evenodd" clip-rule="evenodd" d="M29.1917 28.7L25.8033 30.0901V42.3402L33.5357 44.3385L37.706 37.5618L29.1917 28.7ZM27.3672 31.0457L28.8442 30.4376L35.9684 37.7356L32.9275 42.6009L27.3672 41.2108V31.0457Z" fill="#B28E68"/>
<path fill-rule="evenodd" clip-rule="evenodd" d="M42.5703 25.659H30.2333L28.9301 28.9605L37.705 37.5616L44.4817 33.3914L42.5703 25.659ZM31.2758 27.136H41.4409L42.7441 32.6963L37.8788 35.6503L30.6677 28.6129L31.2758 27.136Z" fill="#B28E68"/>
<path fill-rule="evenodd" clip-rule="evenodd" d="M9.12178 25.659L7.21039 33.3914L13.9002 37.5616L22.7621 28.9605L21.4589 25.659H9.12178ZM8.86114 32.6963L10.2512 27.136H20.4163L21.0245 28.6129L13.7264 35.7372L8.86114 32.6963Z" fill="#B28E68"/>
<path d="M48.2197 35.7948L48.1328 35.621L49.5229 35.0997L49.6097 35.2735L48.2197 35.7948Z" fill="#B28E68"/>
<path d="M2.86705 37.4452L2.08511 35.8814C2.02719 35.7656 1.96931 35.6208 1.91139 35.447C1.79555 35.1574 1.67968 34.8678 1.56384 34.5782C0.521274 31.8849 0 28.8441 0 25.8032C0 22.5018 0.608176 19.2003 1.91139 16.2463C1.91139 16.0726 1.94033 15.9278 1.99825 15.8119L2.08511 15.7251C4.69153 9.55652 9.55686 4.69121 15.7254 2.08479C15.8123 1.99791 16.073 1.91102 16.2467 1.91102C22.0677 -0.608523 29.3657 -0.608523 35.4473 1.91102C35.708 1.9979 35.8817 1.99791 35.9686 2.08479C42.1371 4.69121 46.9156 9.55652 49.6089 15.7251C49.6958 15.8988 49.6958 15.9857 49.7827 16.2463C50.999 19.2003 51.6071 22.5018 51.6071 25.8032C51.6071 28.8441 51.0859 31.8849 50.0433 34.5782C49.9564 34.9257 49.8696 35.1864 49.6958 35.5339L48.3926 34.9257C48.5084 34.694 48.5953 34.4334 48.6532 34.1438C49.6379 31.4794 50.1302 28.6993 50.1302 25.8032C50.1302 22.5886 49.522 19.5478 48.3926 16.6807L48.2188 16.3332C45.7862 10.5122 41.1815 5.90755 35.3605 3.388L35.0998 3.30112C35.0419 3.30112 34.984 3.27215 34.9261 3.21423C29.1919 0.86845 22.4152 0.868455 16.6811 3.30112C16.5074 3.30112 16.4204 3.388 16.4204 3.388C10.5125 5.90755 5.99477 10.4253 3.47523 16.1595L3.38832 16.507L3.30146 16.6807C2.08513 19.5478 1.47698 22.5886 1.47698 25.8032C1.47698 28.4097 1.91136 31.0161 2.69328 33.3619L2.7802 33.1012L3.04083 33.0144C4.77844 31.8849 6.51604 30.7554 8.34053 29.626C10.7732 28.2359 12.9452 26.9327 14.8566 25.8901C15.8123 25.3688 16.6811 24.8475 17.5499 24.4131L17.7236 24.3263H20.417L21.112 22.5887L21.3726 22.5018C23.9791 21.1986 25.5429 20.5035 25.5429 20.5035L25.8036 20.3298L26.1511 20.5035C26.1511 20.5035 27.7149 21.1986 30.3214 22.5018L30.4951 22.5887L31.2771 24.3263H33.9704L34.1441 24.4131C34.9261 24.8475 35.8817 25.3688 36.8374 25.8901C38.7488 26.9327 40.9208 28.2359 43.2666 29.626C45.178 30.7554 46.9156 31.8849 48.6532 33.0144L47.8713 34.2307C46.1337 33.1012 44.3961 32.0586 42.5716 30.9292C40.1389 29.4522 37.9669 28.2359 36.0555 27.1933C35.1867 26.672 34.4048 26.2376 33.536 25.8032H30.2345L29.3657 23.6312C27.6281 22.7624 26.3249 22.2411 25.8036 21.9805C25.2823 22.2411 24.066 22.7624 22.2415 23.6312L21.4596 25.8032H18.0712C17.2893 26.2376 16.4204 26.672 15.5516 27.1933C13.6402 28.2359 11.4683 29.4522 9.12248 30.9292C7.29799 31.9718 5.64726 33.0143 4.08341 34.0569L2.86705 37.4452Z" fill="#B28E68"/>
<path d="M2.86705 14.097L2.08511 15.6608C2.02719 15.7767 1.96931 15.9215 1.91139 16.0952C1.79555 16.3848 1.67968 16.6744 1.56384 16.964C0.521274 19.6574 0 22.6982 0 25.739C0 29.0405 0.608176 32.3419 1.91139 35.2959C1.91139 35.4697 1.94033 35.6145 1.99825 35.7303L2.08511 35.8172C4.69153 41.9857 9.55686 46.851 15.7254 49.4574C15.8123 49.5443 16.073 49.6312 16.2467 49.6312C22.0677 52.1508 29.3657 52.1508 35.4473 49.6312C35.708 49.5443 35.8817 49.5443 35.9686 49.4574C42.1371 46.851 46.9156 41.9857 49.6089 35.8172C49.6958 35.6434 49.6958 35.5565 49.7827 35.2959C50.999 32.3419 51.6071 29.0405 51.6071 25.739C51.6071 22.6982 51.0859 19.6574 50.0433 16.964C49.9564 16.6165 49.8696 16.3559 49.6958 16.0084L48.3926 16.6165C48.5084 16.8482 48.5953 17.1088 48.6532 17.3984C49.6379 20.0628 50.1302 22.843 50.1302 25.739C50.1302 28.9536 49.522 31.9944 48.3926 34.8615L48.2188 35.209C45.7862 41.03 41.1815 45.6347 35.3605 48.1542L35.0998 48.2411C35.0419 48.2411 34.984 48.2701 34.9261 48.328C29.1919 50.6738 22.4152 50.6738 16.6811 48.2411C16.5074 48.2411 16.4204 48.1542 16.4204 48.1542C10.5125 45.6347 5.99477 41.1169 3.47523 35.3828L3.38832 35.0352L3.30146 34.8615C2.08513 31.9944 1.47698 28.9536 1.47698 25.739C1.47698 23.1326 1.91136 20.5262 2.69328 18.1804L2.7802 18.441L3.04083 18.5279C4.77844 19.6573 6.51604 20.7868 8.34053 21.9163C10.7732 23.3064 12.9452 24.6096 14.8566 25.6521C15.8123 26.1734 16.6811 26.6947 17.5499 27.1291L17.7236 27.216H20.417L21.112 28.9536L21.3726 29.0405C23.9791 30.3437 25.5429 31.0387 25.5429 31.0387L25.8036 31.2125L26.1511 31.0387C26.1511 31.0387 27.7149 30.3437 30.3214 29.0405L30.4951 28.9536L31.2771 27.216H33.9704L34.1441 27.1291C34.9261 26.6947 35.8817 26.1734 36.8374 25.6521C38.7488 24.6096 40.9208 23.3064 43.2666 21.9163C45.178 20.7868 46.9156 19.6573 48.6532 18.5279L47.8713 17.3116C46.1337 18.441 44.3961 19.4836 42.5716 20.613C40.1389 22.09 37.9669 23.3063 36.0555 24.3489C35.1867 24.8702 34.4048 25.3046 33.536 25.739H30.2345L29.3657 27.911C27.6281 28.7798 26.3249 29.3011 25.8036 29.5618C25.2823 29.3011 24.066 28.7798 22.2415 27.911L21.4596 25.739H18.0712C17.2893 25.3046 16.4204 24.8702 15.5516 24.3489C13.6402 23.3063 11.4683 22.09 9.12248 20.613C7.29799 19.5705 5.64726 18.5279 4.08341 17.4853L2.86705 14.097Z" fill="#B28E68"/>
<path fill-rule="evenodd" clip-rule="evenodd" d="M25.8019 6.95046L14.073 2.86706L15.7237 2.08513C15.8106 1.99825 16.0713 1.91136 16.245 1.91136C19.199 0.60815 22.4136 0 25.8019 0C29.1903 0 32.4049 0.60815 35.4457 1.91136C35.7063 1.99824 35.8801 1.99825 35.9669 2.08513L37.3571 2.95394L35.6194 3.56209L25.8019 6.95046ZM18.1564 2.69328L25.8019 5.38659L33.4474 2.69328C28.3215 1.04255 22.9348 1.04255 18.1564 2.69328Z" fill="#B28E68"/>
<path fill-rule="evenodd" clip-rule="evenodd" d="M25.8019 44.5303L14.073 48.6137L15.7237 49.3956C15.8106 49.4825 16.0713 49.5694 16.245 49.5694C19.199 50.8726 22.4136 51.4807 25.8019 51.4807C29.1903 51.4807 32.4049 50.8726 35.4457 49.5694C35.7063 49.4825 35.8801 49.4825 35.9669 49.3956L37.3571 48.5268L35.6194 47.9186L25.8019 44.5303ZM18.1564 48.7874L25.8019 46.0941L33.4474 48.7874C28.3215 50.4382 22.9348 50.4382 18.1564 48.7874Z" fill="#B28E68"/>
<path fill-rule="evenodd" clip-rule="evenodd" d="M2.86733 37.4455L2.08538 35.8817C2.02746 35.7658 1.96958 35.621 1.91166 35.4473C1.79582 35.1577 1.67996 34.8681 1.56412 34.5785C0.521549 31.8852 0.000274658 28.8443 0.000274658 25.8035C0.000274658 22.502 0.608451 19.2006 1.91166 16.2466C1.91166 15.986 1.9985 15.8991 2.08538 15.7253L2.78047 14.4221L3.56237 15.986L6.95074 25.8035L2.86733 37.4455ZM2.69356 18.158C1.88267 20.5907 1.47726 23.1392 1.47726 25.8035C1.47726 28.4968 1.91163 31.0164 2.69356 33.449L5.38689 25.8035L2.69356 18.158Z" fill="#B28E68"/>
<path d="M48.22 35.7949L48.1331 35.6211L49.5232 35.0999L49.61 35.2736L48.22 35.7949Z" fill="#B28E68"/>
<path d="M47.5232 33.8833L44.743 25.8034L48.2183 15.7252L49.6083 16.3334L49.4346 16.594L46.3069 25.8034L48.9133 33.362L47.5232 33.8833Z" fill="#B28E68"/>
<path d="M2.86553 17.1151L2.25735 15.725L2.51799 15.6382L11.3798 11.381L15.7239 2.25851H15.8108L15.7239 2.08477C15.8108 1.99789 16.0714 1.91099 16.2452 1.91099L17.7221 1.56348L16.9402 3.12732L12.5093 12.4236L2.86553 17.1151Z" fill="#B28E68"/>
<path d="M2.86553 33.5257L2.25735 34.9158L2.51799 35.0027L11.3798 39.2599L15.7239 48.3824H15.8108L15.7239 48.5561C15.8108 48.643 16.0714 48.7299 16.2452 48.7299L17.7221 49.0774L16.9402 47.5135L12.5093 38.2173L2.86553 33.5257Z" fill="#B28E68"/>
<path d="M49.1733 35.9682L48.4783 34.665L48.7389 34.5781L49.4339 35.8813L49.1733 35.9682Z" fill="#B28E68"/>
<path d="M48.2184 35.6212V35.5343H49.6954L48.2184 35.6212Z" fill="#B28E68"/>
<path d="M2.43113 35.9682L2.25735 35.8813L2.95239 34.5781L3.21308 34.665L2.43113 35.9682Z" fill="#B28E68"/>
<path d="M48.7399 17.1156L48.4793 16.9419L39.183 12.424L34.5784 2.95404L35.8816 2.17212L35.9684 2.43275L40.3125 11.3815L49.3481 15.7255L48.7399 17.1156Z" fill="#B28E68"/>
<path d="M48.7729 34.0786L48.5028 34.2372L38.9637 38.2167L33.8256 47.4082L35.082 48.2633L35.1836 48.008L40.0317 39.3221L49.3007 35.5012L48.7729 34.0786Z" fill="#B28E68"/>
</svg>
